Libertine_I.sfdir
StartChar: exclam
Encoding: 33 33 0
Width: 260
VWidth: 999
Flags: W
HStem: -7 100<107.012 185.198> 638 20G<254.5 278>
VStem: 96 100<4.15561 81.2822> 189 124<529.67 622.104> 203 110<529.67 642.176>
LayerCount: 2
Fore
SplineSet
96 45 m 3xe0
 96 69 124 93 148 93 c 3
 175 93 196 65 196 41 c 3
 196 20 172 -7 144 -7 c 3
 120 -7 96 19 96 45 c 3xe0
313 618 m 3xd0
 313 612 312 604 310 596 c 0
 304 570 289 519 275 483 c 0
 246 408 204 253 190 198 c 1
 185 194 179 192 173 192 c 0
 167 192 161 194 158 198 c 1
 168 258 185 398 189 473 c 0xd0
 191 513 195 556 203 598 c 0xc8
 213 648 243 658 266 658 c 3
 290 658 313 653 313 618 c 3xd0
EndSplineSet
Validated: 1
EndChar
StartChar: quotedbl
Encoding: 34 34 1
Width: 336
VWidth: 999
Flags: W
HStem: 426 218
VStem: 167 90<550.594 628.116> 294 89<547.699 629.68>
LayerCount: 2
Fore
SplineSet
164 426 m 1
 164 426 166 585 167 594 c 0
 171 616 197 644 228 644 c 0
 250 644 257 631 257 618 c 0
 257 615 257 613 256 611 c 0
 253 595 191 430 191 430 c 1
 164 426 l 1
291 427 m 1
 291 427 292 586 294 595 c 0
 297 617 324 645 354 645 c 0
 376 645 383 632 383 619 c 0
 383 616 383 614 383 612 c 0
 380 596 318 431 318 431 c 1
 291 427 l 1
EndSplineSet
Validated: 1
EndChar
StartChar: numbersign
Encoding: 35 35 2
Width: 438
VWidth: 487
Flags: HMW
HStem: 183 49<72 146 196 290 339 414> 341 49<125 199 249 343 392 466>
DStem2: 90 13 123 13 0.318258 0.948004<10.4118 178.958 241.098 346.336 408.321 576.558> 233 13 266 13 0.316736 0.948514<10.362 178.959 240.893 346.337 408.272 576.406>
LayerCount: 2
Fore
SplineSet
307 231 m 1
 343 341 l 1
 233 341 l 1
 196 231 l 1
 307 231 l 1
376 341 m 1
 339 231 l 1
 429 231 l 1
 414 183 l 1
 324 183 l 1
 266 13 l 1
 233 13 l 1
 290 183 l 1
 180 183 l 1
 123 13 l 1
 90 13 l 1
 146 183 l 1
 56 183 l 1
 72 231 l 1
 163 231 l 1
 199 341 l 1
 109 341 l 1
 125 390 l 1
 216 390 l 1
 272 560 l 1
 306 560 l 1
 249 390 l 1
 359 390 l 1
 416 560 l 1
 449 560 l 1
 392 390 l 1
 482 390 l 1
 466 341 l 1
 376 341 l 1
EndSplineSet
Validated: 1
EndChar
StartChar: dollar
Encoding: 36 36 3
Width: 444
VWidth: 999
Flags: W
HStem: -8 34<142.172 181 226 302.265> 578 32<281.103 338> 674 20G<398.5 399.651>
VStem: 58 30<84.7839 155.819> 139.446 73.5889<402.001 504.519> 368.672 84.3604<120.231 230.928> 452 31<461.028 523.577>
DStem2: 157 -98 195 -93 0.257815 0.966194<7.81544 93.145 135.665 388.174 481.249 699.812 740.142 821.6>
LayerCount: 2
Back
SplineSet
118.894 610.012 m 5
 583.859 610.012 l 5
 452.071 -10 l 5
 -12.8936 -10 l 5
 118.894 610.012 l 5
126.769 600.012 m 5
 571.733 600.012 l 5
 444.197 0 l 5
 -0.768555 0 l 5
 126.769 600.012 l 5
EndSplineSet
Fore
SplineSet
488 585 m 1xfc
 488 536 487.75 509.25 483 465 c 1
 474 458 463 457 452 459 c 1xfa
 447 511 433 562 373 575 c 1
 313 351 l 1
 357.143 333.412 393.936 318.742 422.942 286.5 c 0
 441.337 266.055 453.032 240.354 453.032 206.896 c 3
 453.032 137.243 416.354 85.7754 368.791 45.5 c 0
 331 13.5 274.761 -7.51855 217 -9 c 1
 195 -93 l 1
 187 -97 167 -98 157 -98 c 1
 181 -8 l 1
 121 -4 99 12 47 12 c 1
 46 58 47 81 58 153 c 1
 68 158 78 160 88 156 c 1
 89 76 125 36 190 26 c 1
 258 281 l 1
 196.572 305.571 139.446 347.742 139.446 418.164 c 0
 139.446 483.983 172.75 533.707 214 565 c 0
 251.001 593.07 299.372 608.479 346 610 c 1
 367 689 l 1
 377 693 392 694 405 694 c 1
 382 608 l 1
 427.75 606 443.25 591 488 585 c 1xfc
291 268 m 1
 226 24 l 1
 263.867 24.5186 296.546 34.5312 320.5 55.3408 c 0
 347.106 78.4541 368.672 120.565 368.672 170.631 c 3xfc
 368.672 199.093 358.479 219.537 343.239 235 c 0
 328.873 249.578 310.022 259.729 291 268 c 1
281 367 m 1
 338 578 l 1
 306.918 577.435 273.196 562.604 249.5 539.5 c 0
 227.957 518.496 213.035 491.207 213.035 457.229 c 0
 213.035 414.144 245.86 386.327 281 367 c 1
EndSplineSet
Validated: 524321
EndChar
StartChar: percent
Encoding: 37 37 4
Width: 637
VWidth: 999
Flags: W
HStem: -19 35<455.409 524.31> 218 32<493.393 561.522> 297 35<199.836 267.861> 478 37<351.857 527.376> 533 32<235.922 305.752> 549 20G<565.5 617.429>
VStem: 126 62<337.938 483.247> 318 31<400.238 498.503> 382 62<22.0966 165.848> 575 30<87.9004 203.979>
LayerCount: 2
Back
SplineSet
561.523 218.262 m 4
 510.742 218.262 443.359 122.07 443.359 55.6641 c 4
 443.359 20.9961 463.379 10.2539 478.516 10.2539 c 4
 538.574 10.2539 597.656 120.605 597.656 175.781 c 4
 597.656 211.426 573.73 218.262 561.523 218.262 c 4
394.043 66.4062 m 4
 394.043 150.391 476.074 249.512 556.152 249.512 c 4
 591.309 249.512 628.418 235.84 628.418 183.594 c 4
 628.418 112.305 557.617 -18.5547 467.285 -18.5547 c 4
 416.016 -18.5547 394.043 21.9727 394.043 66.4062 c 4
127.93 380.859 m 4
 127.93 465.82 210.938 564.941 290.039 564.941 c 4
 317.871 564.941 343.75 551.758 352.051 540.039 c 5
 401.367 514.648 437.012 514.648 454.59 514.648 c 4
 496.582 514.648 565.43 525.391 613.77 568.848 c 5
 651.367 562.012 l 5
 136.719 -14.1602 l 5
 100.586 -4.88281 l 5
 549.316 496.582 l 5
 508.301 481.445 467.773 477.539 438.477 477.539 c 4
 414.551 477.539 378.906 487.793 361.816 499.023 c 5
 361.816 493.164 l 6
 361.816 430.176 292.48 296.875 201.66 296.875 c 4
 149.414 296.875 127.93 337.402 127.93 380.859 c 4
294.922 533.203 m 4
 242.188 533.203 176.758 433.594 176.758 371.582 c 4
 176.758 335.938 197.266 325.684 212.891 325.684 c 4
 272.461 325.684 331.543 435.059 331.543 491.211 c 4
 331.543 525.391 310.547 533.203 294.922 533.203 c 4
EndSplineSet
Fore
SplineSet
188 400 m 3xfbc0
 188 348 209 332 228 332 c 3
 282 332 318 415 318 473 c 3
 318 522 291 533 273 533 c 3
 225 533 188 458 188 400 c 3xfbc0
436 515 m 3
 478 515 545 525 586 569 c 1xf7c0
 619 548 l 1
 139 -14 l 1
 102 -5 l 1
 530 497 l 1
 491 481 456 478 427 478 c 3
 403 478 365 488 346 499 c 1
 348 491 349 482 349 474 c 3
 349 409 301 297 217 297 c 7
 154 297 126 354 126 406 c 3
 126 482 190 565 263 565 c 3
 291 565 319 552 329 540 c 1
 383 515 418 515 436 515 c 3
382 91 m 3
 382 167 446 250 520 250 c 3
 560 250 605 231 605 159 c 3
 605 91 555 -19 472 -19 c 3
 411 -19 382 39 382 91 c 3
444 83 m 3
 444 31 466 16 484 16 c 3
 540 16 575 102 575 157 c 3
 575 209 544 218 530 218 c 3
 481 218 444 140 444 83 c 3
EndSplineSet
Validated: 1
EndChar
StartChar: ampersand
Encoding: 38 38 253
Width: 705
VWidth: 479
Flags: W
HStem: -9 60<542.306 623.956> -9 39<186.489 321.99> 370 33<528.788 578.813 653.528 719.767> 605 39<376.927 469.801>
VStem: 69 83<62.1928 211.528> 262 78<400.115 565.287> 478 66<489.226 598.415>
LayerCount: 2
Fore
SplineSet
582.5 280.5 m 2x7e
 582.5 280.5 538.375 218.876 487 156 c 1
 514 111 l 2
 539.544 68.4268 562 51 579 51 c 3
 612 51 632 62.5 660 102.5 c 1
 671.585 101.201 678.741 94.964 683 85.5 c 1
 648 14.5 598 -9 563 -9 c 3xbe
 533 -9 494.952 -1.6748 456 60 c 2
 432 98 l 1
 375 35 318 -9 234 -9 c 3
 139 -9 69 23.9953 69 121 c 3
 69 223 130 290 289 372 c 1
 270 419 262 458 262 488 c 3
 262 582 343 644 435 644 c 3
 499 644 544 609 544 556 c 3
 544 482 456 403 378 362 c 1
 405.5 301.5 430 253 469 190 c 1
 510.162 238.023 547.374 286.5 547.374 286.5 c 2
 590.833 341.049 599.384 366.399 529.777 370 c 1
 523.67 377.33 526.92 397.979 532.777 403 c 1
 563.777 402 597.027 401 623.777 401 c 3
 651.545 401 684.777 402 718.777 403 c 1
 724.885 395.67 721.635 375.021 715.777 370 c 1
 656.777 367 633.463 346.938 582.5 280.5 c 2x7e
306 340 m 1
 244 309 152 253 152 132 c 3
 152 62 192 30 247 30 c 3x7e
 318 30 353 64 414 132 c 1
 367.5 206 336 268.5 306 340 c 1
424 605 m 3
 385 605 340 565 340 504 c 3
 340 482 348 435 363 397 c 1
 491 473 478 541 478 558 c 3
 478 591 459 605 424 605 c 3
EndSplineSet
Validated: 524321
Substitution2: "'salt' Stilistische Alternativformen 1" ampersand.alt
Substitution2: "'c2sc' Versale nach Kapitaelchen 1" ampersand.alt
Substitution2: "'smcp' Gemeine nach Kapitaelchen 1" ampersand.alt
AlternateSubs2: "LinLibertine-'aalt' Alle Alternativen zeigen 1" ampersand.alt
EndChar
StartChar: quotesingle
Encoding: 39 39 254
Width: 190
VWidth: 999
Flags: W
HStem: 426 218
VStem: 158 89<546.699 628.68>
LayerCount: 2
Fore
SplineSet
154 426 m 1
 154 426 156 585 158 594 c 0
 161 616 188 644 218 644 c 0
 240 644 247 631 247 618 c 0
 247 615 247 613 247 611 c 0
 244 595 182 430 182 430 c 1
 154 426 l 1
EndSplineSet
Validated: 1
EndChar
StartChar: parenleft
Encoding: 40 40 5
Width: 306
VWidth: 999
Flags: W
VStem: 81.6555 78.4774<-6.44018 279.761>
LayerCount: 2
Back
SplineSet
108 0 m 0
 93 50 86 102 86 154 c 0
 86 187 89 219 94 252 c 0
 110 343 144 425 197 503 c 0
 227 549 286 632 387 707 c 1
 402 689 l 1
 317 610 274 533 253 492 c 0
 214 417 187 338 172 252 c 0
 164 205 159 159 159 115 c 0
 159 79 162 44 168 11 c 0
 175 -32 191 -108 247 -187 c 1
 226 -204 l 1
 169 -145 130 -80 108 0 c 0
EndSplineSet
Fore
SplineSet
152.886 427 m 0
 210.809 540.404 298.191 638.402 391 707 c 1
 402 706 407 699 408 689 c 1
 377.913 661.227 285.333 572.747 221.632 413 c 0
 190.204 334.185 160.133 210.804 160.133 103.974 c 3
 160.133 -62.7871 220.486 -157.018 241 -187 c 1
 236 -195 227 -202 217 -204 c 1
 104.978 -88.1147 81.6555 48.9095 81.6555 143.829 c 3
 81.6555 266.002 106.545 336.273 152.886 427 c 0
EndSplineSet
Validated: 524289
Substitution2: "'case' Versalformen 1" parenleft.sc
Substitution2: "'c2sc' Versale nach Kapitaelchen 1" parenleft.sc
Substitution2: "'sinf' Wissenschaftliche Indices 1" parenleft.inferior
Substitution2: "'sups' Hochgestellte 1" parenleft.superior
AlternateSubs2: "LinLibertine-'aalt' Alle Alternativen zeigen 1" parenleft.sc
EndChar
StartChar: parenright
Encoding: 41 41 6
Width: 298
VWidth: 999
Flags: W
VStem: 233.868 78.477<221.694 511.284>
LayerCount: 2
Fore
SplineSet
216 32 m 0
 160 -62 84 -144 3 -203 c 1
 -8 -202 -13 -195 -14 -185 c 1
 13 -160 92 -85 154 48 c 0
 194.661 133.841 233.868 274.469 233.868 402.026 c 3
 233.868 568.787 173.514 661.018 153 691 c 1
 158 699 167 706 177 708 c 1
 289.022 592.115 312.345 455.091 312.345 360.171 c 3
 312.345 211.026 276.419 132.207 216 32 c 0
EndSplineSet
Validated: 524289
Substitution2: "'case' Versalformen 1" parenright.sc
Substitution2: "'c2sc' Versale nach Kapitaelchen 1" parenright.sc
Substitution2: "'sinf' Wissenschaftliche Indices 1" parenright.inferior
Substitution2: "'sups' Hochgestellte 1" parenright.superior
AlternateSubs2: "LinLibertine-'aalt' Alle Alternativen zeigen 1" parenright.sc
EndChar
StartChar: asterisk
Encoding: 42 42 7
Width: 369
VWidth: 999
Flags: HW
LayerCount: 2
Fore
SplineSet
291 547 m 5
 278 550 264 551 249 551 c 4
 200 551 168 558 168 588 c 4
 168 602 177 618 201 618 c 4
 235 618 253 585 297 567 c 5
 293 606 274 633 274 659 c 4
 274 680 286 698 304 698 c 4
 322 698 337 687 337 663 c 4
 337 636 320 596 318 566 c 5
 364 586 380 618 413 618 c 4
 440 618 447 598 447 588 c 4
 447 558 412 551 378 551 c 4
 359 551 341 550 323 547 c 5
 357 510 406 500 406 460 c 4
 406 442 391 431 377 431 c 4
 338 431 331 496 306 535 c 5
 281 490 274 431 236 431 c 4
 219 431 207 444 207 459 c 4
 207 502 258 510 291 547 c 5
EndSplineSet
Validated: 1
EndChar
StartChar: plus
Encoding: 43 43 8
Width: 550
VWidth: 999
Flags: W
HStem: 226 50<111.489 299 349 535.691> 442 20G<327 336>
VStem: 299 50<43.4893 226 276 458.691>
LayerCount: 2
Fore
SplineSet
299 435 m 6
 299 448 322 462 332 462 c 4
 340 462 349 458 349 448 c 6
 349 276 l 5
 525 276 l 6
 535 276 539 267 539 259 c 4
 539 249 525 226 512 226 c 6
 349 226 l 5
 349 66 l 6
 349 54 330 41 315 41 c 4
 307 41 299 47 299 56 c 6
 299 226 l 5
 124 226 l 6
 115 226 109 234 109 242 c 4
 109 257 122 276 134 276 c 6
 299 276 l 5
 299 435 l 6
EndSplineSet
Validated: 1
Substitution2: "'sinf' Wissenschaftliche Indices 1" plus.inferior
Substitution2: "'sups' Hochgestellte 1" plus.superior
AlternateSubs2: "LinLibertine-'aalt' Alle Alternativen zeigen 1" plus.superior plus.inferior uni2098
EndChar
StartChar: comma
Encoding: 44 44 255
Width: 219
VWidth: 999
Flags: W
HStem: -132 23<24.9095 51.7334> 4 92.665<78.6862 126.616>
VStem: 127 48<-50.3292 51>
LayerCount: 2
Back
SplineSet
124 97 m 4
 136 97 149 92 157 84 c 5
 167 72 169 58 169 46 c 4
 169 34 164 13 150 1 c 4
 137 -10 124 -14 108 -14 c 4
 98 -14 83 -10 74 0 c 4
 67 9 64 21 64 33 c 4
 64 51 69 68 84 82 c 4
 96 92 111 97 124 97 c 4
EndSplineSet
Fore
SplineSet
64.665 41.335 m 3
 64.665 72.335 95.3311 96.665 125.331 96.665 c 3
 156.331 96.665 175 71 175 31 c 3
 175 -21 147 -111 31 -132 c 1
 23.1748 -125.666 20.3418 -117.999 22.5 -109 c 1
 75.5 -97 127 -50 127 -22 c 3
 127 -4 112 0 96 4 c 0
 77 9 64.665 17.335 64.665 41.335 c 3
EndSplineSet
Validated: 524321
EndChar
StartChar: hyphen
Encoding: 45 45 256
Width: 333
VWidth: 999
Flags: MW
HStem: 223 60<85.0614 339.028>
LayerCount: 2
Fore
SplineSet
314 223 m 2
 87 223 l 2
 80 223 77 232 77 240 c 0
 77 256.636 99.0615 283 109 283 c 2
 338 283 l 2
 346 283 349 278 349 271 c 0
 349 255.701 329.064 223 314 223 c 2
EndSplineSet
Validated: 524289
Substitution2: "'case' Versalformen 1" hyphen.cap
Substitution2: "'c2sc' Versale nach Kapitaelchen 1" hyphen.sc
Substitution2: "'smcp' Gemeine nach Kapitaelchen 1" hyphen.sc
AlternateSubs2: "LinLibertine-'aalt' Alle Alternativen zeigen 1" hyphen.sc
EndChar
StartChar: period
Encoding: 46 46 257
Width: 219
VWidth: 999
Flags: HW
HStem: -10 106<80.3874 155.455>
VStem: 65 106<5.40833 79.8295>
LayerCount: 2
Back
SplineSet
124 97 m 4
 136 97 149 92 157 84 c 5
 167 72 169 58 169 46 c 4
 169 34 164 13 150 1 c 4
 137 -10 124 -14 108 -14 c 4
 98 -14 83 -10 74 0 c 4
 67 9 64 21 64 33 c 4
 64 51 69 68 84 82 c 4
 96 92 111 97 124 97 c 4
EndSplineSet
Fore
SplineSet
62 45 m 4
 64 70 97 96 122 96 c 7
 151 96 173 66 171 41 c 0
 169 19 141 -10 111 -10 c 3
 86 -10 60 17 62 45 c 4
EndSplineSet
Validated: 33
EndChar
StartChar: slash
Encoding: 47 47 9
Width: 291
VWidth: 999
Flags: HMW
HStem: 672 10G<356 402>
DStem2: 0 -21 42 -21 0.45658 0.889682<18.9498 790.312>
LayerCount: 2
Back
SplineSet
573.311 661.299 m 1
 58.166 17.6553 l 1
 22.6553 17.6553 l 1
 537.798 661.299 l 1
 573.311 661.299 l 1
EndSplineSet
Fore
SplineSet
402 682 m 1
 42 -21 l 1
 0 -21 l 1
 361 682 l 1
 402 682 l 1
EndSplineSet
Validated: 1
Ligature2: "'frac' Brueche 1" uni2215
AlternateSubs2: "LinLibertine-'aalt' Alle Alternativen zeigen 1" uni2215
EndChar
StartChar: zero
Encoding: 48 48 258
Width: 444
VWidth: 487
Flags: W
HStem: -10 35<194.948 281.179> 575 35<300.542 383.28>
LayerCount: 2
Back
SplineSet
118.894 610.012 m 5
 583.859 610.012 l 5
 452.071 -10 l 5
 -12.8936 -10 l 5
 118.894 610.012 l 5
126.769 600.012 m 5
 571.733 600.012 l 5
 444.197 0 l 5
 -0.768555 0 l 5
 126.769 600.012 l 5
EndSplineSet
Fore
SplineSet
226 -10 m 3
 189 -10 159 4 137 32 c 0
 95 87 83 187 104 294 c 0
 142 492 256 610 351 610 c 3
 403 610 437 580 455 545 c 0
 486 487 492 402 473 303 c 0
 427 68 300 -10 226 -10 c 3
344 575 m 3
 301 575 233 529 185 283 c 0
 168 196 145 25 234 25 c 3
 251 25 300 34 337 116 c 0
 360 167 375 230 393 322 c 0
 419 456 409 532 384 558 c 0
 375 569 360 575 344 575 c 3
EndSplineSet
Validated: 33
Substitution2: "'zero' gestrichene Null 1" zero.slash
Substitution2: "LinLibertine-'onum' Minuskelziffern 1" zero.taboldstyle
Substitution2: "LinLibertine-'pnum' Proportionalziffern 1" zero.fitted
Substitution2: "'sinf' Wissenschaftliche Indices 1" zero.inferior
Substitution2: "'sups' Hochgestellte 1" zero.superior
AlternateSubs2: "LinLibertine-'aalt' Alle Alternativen zeigen 1" zero.oldstyle zero.fitted zero.slash zero.slashfitted perthousandzero
EndChar
StartChar: one
Encoding: 49 49 10
Width: 444
VWidth: 999
Flags: W
HStem: -2 33<119.562 198.5 313.563 384.281>
VStem: 119 286
DStem2: 207.643 -2 281.643 -2 0.207912 0.978148<71.2726 514.315>
LayerCount: 2
Back
SplineSet
119.662 610.012 m 5
 581.627 610.012 l 5
 449.84 -10 l 5
 -12.126 -10 l 5
 119.662 610.012 l 5
127.536 600.012 m 5
 569.502 600.012 l 5
 441.965 0 l 5
 0 0 l 5
 127.536 600.012 l 5
EndSplineSet
Fore
SplineSet
308 122 m 2
 291.589 38.2563 317 34 384 31 c 1
 389 25 387 4 380 -2 c 1
 346 -1 302.536 0 253 0 c 27
 200.734 0 159 -1 119 -2 c 1
 114 4 117 25 124 31 c 1
 192 34 218 39 234 122 c 2
 298 448 l 2
 305 482 306 506 290 506 c 3
 272 506 249 500 202 481 c 1
 195 487 191 497 192 508 c 1
 284 549 340 574 400 608 c 1
 403 608 406 608 405 603 c 1
 401 590 388 529 376 469 c 2
 308 122 l 2
EndSplineSet
Validated: 524321
Substitution2: "LinLibertine-'onum' Minuskelziffern 1" one.taboldstyle
Substitution2: "LinLibertine-'pnum' Proportionalziffern 1" one.fitted
Substitution2: "'sinf' Wissenschaftliche Indices 1" one.inferior
Substitution2: "'sups' Hochgestellte 1" one.superior
AlternateSubs2: "LinLibertine-'aalt' Alle Alternativen zeigen 1" one.oldstyle one.superior one.fitted
EndChar
StartChar: two
Encoding: 50 50 11
Width: 444
VWidth: 487
Flags: W
HStem: 0 65<145 356.875> 429 21G<187.5 206.5> 575 35<261.526 372.141>
VStem: 158 73<450.908 527.574> 400.583 84.958<402.432 550.572>
DStem2: 198 205 236 186 0.767136 0.641484<-101.131 247.437>
LayerCount: 2
Back
SplineSet
118.894 610.012 m 1
 583.859 610.012 l 1
 452.071 -10 l 1
 -12.8936 -10 l 1
 118.894 610.012 l 1
126.769 600.012 m 1
 571.733 600.012 l 1
 444.197 0 l 1
 -0.768555 0 l 1
 126.769 600.012 l 1
EndSplineSet
Fore
SplineSet
342 610 m 3
 413.334 610 485.541 567.514 485.541 484.664 c 3
 485.541 396.988 422.318 342.5 352 283 c 2
 236 186 l 2
 230 181 154 113 145 65 c 1
 312 65 l 2
 347 65 368 90 398 161 c 1
 408 163 420 161 425 156 c 1
 418 126 394 51 371 -2 c 1
 371 -2 328 0 297 0 c 2
 129 0 l 2
 98 0 48 -2 48 -2 c 1
 59 57 84 105 198 205 c 2
 283 278 l 2
 360.696 344.727 400.583 388.03 400.583 483.296 c 3
 400.583 544.639 365.823 575 323 575 c 3
 257.33 575 231 539 231 514 c 3
 231 505.82 233.404 500.663 237 495 c 0
 242 487.125 246 479.553 246 469 c 3
 246 446.909 215 429 198 429 c 3
 177 429 158 447 158 468 c 3
 158 528 238.666 610 342 610 c 3
EndSplineSet
Validated: 524321
Substitution2: "LinLibertine-'onum' Minuskelziffern 1" two.taboldstyle
Substitution2: "LinLibertine-'pnum' Proportionalziffern 1" two.fitted
Substitution2: "'sinf' Wissenschaftliche Indices 1" two.inferior
Substitution2: "'sups' Hochgestellte 1" two.superior
AlternateSubs2: "LinLibertine-'aalt' Alle Alternativen zeigen 1" two.oldstyle two.superior two.fitted
EndChar
StartChar: three
Encoding: 51 51 12
Width: 444
VWidth: 487
Flags: W
HStem: -10 35<163.902 265.37> 312 32<211 255.434> 575 35<263.733 374.458>
VStem: 153 73<450.746 530.906> 361.244 86.5721<137.994 287.563> 392.752 76.2552<443.061 560.237>
LayerCount: 2
Back
SplineSet
118.894 610.012 m 5
 583.859 610.012 l 5
 452.071 -10 l 5
 -12.8936 -10 l 5
 118.894 610.012 l 5
126.769 600.012 m 5
 571.733 600.012 l 5
 444.197 0 l 5
 -0.768555 0 l 5
 126.769 600.012 l 5
75 575 m 3
 49 575 -20 563 -20 499 c 0
 -20 480 -23.9961 447 -59 447 c 3
 -83 447 -93 467 -93 481 c 3
 -93 514 -51 610 96 610 c 1027
327 575 m 3
 302 575 233 563 221 499 c 0
 217 480 208 447 174 447 c 3
 151 447 145 467 148 481 c 0
 154 514 213 610 354 610 c 3
 404 610 434 593 451 571 c 0
 470 546 472 522 466 492 c 0
 456 439 426 398 339 359 c 1
 340 357 l 1
 395 347 465 308 444 199 c 0
 418 67 302 -10 188 -10 c 3
 130 -10 54 17 62 57 c 0
 65 73 90 92 110 92 c 3
 129 92 139 80 146 66 c 0
 154 48 158 25 207 25 c 3
 241 25 331 52 357 185 c 0
 379 298 311 314 256 314 c 3
 244 314 227 314 210 312 c 1
 211 344 l 1
 309 358 380 435 390 485 c 0
 403 549 368 575 327 575 c 3
6.79102 -115.412 m 1024
EndSplineSet
Fore
SplineSet
352 610 m 3xf4
 420.911 610 469.008 576.856 469.008 519.032 c 3xf4
 469.008 453.988 432.056 400.715 339 359 c 1
 340 357 l 1
 388.158 348.244 447.816 317.254 447.816 236.507 c 3
 447.816 81.5375 314.713 -10 198 -10 c 3
 140 -10 58 17 66 57 c 0
 69 73 89 92 109 92 c 3
 130.318 92 145.602 76.8535 152.333 60.4678 c 0
 159.253 43.6221 172.909 25 217 25 c 3
 252.86 25 361.244 80.5723 361.244 224.924 c 3xf8
 361.244 301.952 303.728 314 256 314 c 3
 244 314 227 314 210 312 c 1
 211 344 l 1
 317.224 359.175 392.752 438.837 392.752 510.37 c 3
 392.752 555.963 361.939 575 326 575 c 3
 300 575 226 560.667 226 499 c 0
 226 480 222.004 447 187 447 c 3
 163 447 153 467 153 481 c 3
 153 514 208.665 610 352 610 c 3xf4
EndSplineSet
Validated: 524321
Substitution2: "LinLibertine-'onum' Minuskelziffern 1" three.taboldstyle
Substitution2: "LinLibertine-'pnum' Proportionalziffern 1" three.fitted
Substitution2: "'sinf' Wissenschaftliche Indices 1" three.inferior
Substitution2: "'sups' Hochgestellte 1" three.superior
AlternateSubs2: "LinLibertine-'aalt' Alle Alternativen zeigen 1" three.oldstyle three.superior three.fitted
EndChar
StartChar: four
Encoding: 52 52 13
Width: 444
VWidth: 487
Flags: W
HStem: -2 33<188.562 259.906 354.938 410.438> 172 47<124 298 380 466.954>
DStem2: 73 214 124 219 0.66159 0.749866<37.4904 408.307> 262.57 -2 335.57 -2 0.207912 0.978148<61.2215 177.564 240.586 512.534>
LayerCount: 2
Back
SplineSet
118.894 610.012 m 5
 583.859 610.012 l 5
 452.071 -10 l 5
 -12.8936 -10 l 5
 118.894 610.012 l 5
126.769 600.012 m 5
 571.733 600.012 l 5
 444.197 0 l 5
 -0.768555 0 l 5
 126.769 600.012 l 5
338.379 396.973 m 1
 405.273 396.973 l 1
 329.59 27.832 l 1
 262.695 27.832 l 1
 338.379 396.973 l 1
EndSplineSet
Fore
SplineSet
460 219 m 2
 471 219 473 213 471 203 c 0
 469 191 450 172 437 172 c 2
 371 172 l 1
 353 80 l 2
 344.565 36.8894 365 35 411 31 c 1
 416 25 413 4 406 -2 c 1
 375 -1 340 0 302 0 c 0
 258 0 219 -1 188 -2 c 1
 183 4 186 25 193 31 c 1
 235 34 271.714 37.6501 280 80 c 2
 298 172 l 1
 102 172 l 2
 73 172 73 199 73 214 c 1
 189 357 332 521 408 599 c 0
 412 604 418 610 425 610 c 2
 457 610 l 1
 459 608 l 1
 459 608 403.202 337.859 380 219 c 1
 460 219 l 2
366 500 m 1
 366 500 364.164 500.084 363.75 499.625 c 1
 279.126 405.91 188.683 300.601 124 219 c 1
 307 219 l 1
 366 500 l 1
EndSplineSet
Validated: 524321
Substitution2: "LinLibertine-'onum' Minuskelziffern 1" four.taboldstyle
Substitution2: "LinLibertine-'pnum' Proportionalziffern 1" four.fitted
Substitution2: "'sinf' Wissenschaftliche Indices 1" four.inferior
Substitution2: "'sups' Hochgestellte 1" four.superior
AlternateSubs2: "LinLibertine-'aalt' Alle Alternativen zeigen 1" four.oldstyle four.superior four.fitted
EndChar
StartChar: five
Encoding: 53 53 14
Width: 444
VWidth: 487
Flags: HMW
LayerCount: 2
Back
SplineSet
118.894 610.012 m 1
 583.859 610.012 l 1
 452.071 -10 l 1
 -12.8936 -10 l 1
 118.894 610.012 l 1
126.769 600.012 m 1
 571.733 600.012 l 1
 444.197 0 l 1
 -0.768555 0 l 1
 126.769 600.012 l 1
EndSplineSet
Fore
SplineSet
345 189 m 4xe8
 366 298 325 341 263 341 c 7
 228 341 191 337 136 317 c 5
 225 605 l 5
 258 602 292 600 328 600 c 7xe8
 379 600 431 605 487 611 c 5
 493 607 l 5
 465 539 l 5xd8
 425 535 392 533 363 533 c 7
 317 533 287 538 252 542 c 5
 201 375 l 5
 220 382 257 391 298 391 c 7
 406 391 453 304 434 207 c 4
 410 81 307 -11 188 -11 c 7
 133 -11 58 23 66 64 c 4
 70 84 92 101 110 101 c 7
 130 101 144 86 153 69 c 4
 164 49 171 24 207 24 c 7
 265 24 327 94 345 189 c 4xe8
EndSplineSet
Validated: 33
Substitution2: "LinLibertine-'onum' Minuskelziffern 1" five.taboldstyle
Substitution2: "LinLibertine-'pnum' Proportionalziffern 1" five.fitted
Substitution2: "'sinf' Wissenschaftliche Indices 1" five.inferior
Substitution2: "'sups' Hochgestellte 1" five.superior
AlternateSubs2: "LinLibertine-'aalt' Alle Alternativen zeigen 1" five.oldstyle five.superior five.fitted
EndChar
StartChar: six
Encoding: 54 54 15
Width: 444
VWidth: 487
Flags: W
HStem: -10 35<188.804 285.118> 330 35<220.086 330.013>
VStem: 82.457 77.784<51.0293 277.911> 368.023 82.384<133.172 296.351>
LayerCount: 2
Back
SplineSet
118.894 610.012 m 5
 583.859 610.012 l 5
 452.071 -10 l 5
 -12.8936 -10 l 5
 118.894 610.012 l 5
126.769 600.012 m 5
 571.733 600.012 l 5
 444.197 0 l 5
 -0.768555 0 l 5
 126.769 600.012 l 5
471 585 m 1
 270 512 190 329 171 229 c 0
 138 58 186 24 246 24 c 3
 293 24 343 74 364 184 c 0
 366.341 195.703 368.024 209.926 368.024 224.848 c 0
 368.024 273.68 349.999 330 278 330 c 3
 258 330 216 328 171 291 c 1
 170 290 174 322 175 323 c 1
 205 349 269 365 305 365 c 3
 414.035 365 452.408 311.656 452.408 244.179 c 0
 452.408 230.586 450.85 216.42 448 202 c 0
 431 116 355 -11 229 -11 c 3
 155 -11 52 29 91 232 c 0
 106 311 154 402 228 474 c 0
 294 539 362 581 465 611 c 1
 472 606 473 597 471 585 c 1
EndSplineSet
Fore
SplineSet
471 585 m 1
 349.071 540.717 271.667 455.957 225.395 373.8 c 0
 219.601 363.512 214.216 353.41 209.23 343.418 c 1
 240.651 357.114 279.726 365 305 365 c 3
 414.035 365 450.407 300.656 450.407 233.18 c 3
 450.407 121.21 364.021 -10 229 -10 c 3
 166.179 -10 82.457 13.8281 82.457 146.737 c 3
 82.457 227.302 103.018 293.841 137.472 355.8 c 0
 205.821 478.711 314.97 567.302 465 611 c 1
 472 606 473 597 471 585 c 1
192.37 306.255 m 1
 170.471 252.36 160.241 198.854 160.241 133.095 c 3
 160.241 44.4039 199.52 25 236 25 c 3
 295.21 25 368.023 100.997 368.023 217.848 c 3
 368.023 266.68 349.999 330 278 330 c 3
 261.212 330 228.923 328.591 192.37 306.255 c 1
EndSplineSet
Validated: 524321
Substitution2: "LinLibertine-'onum' Minuskelziffern 1" six.taboldstyle
Substitution2: "LinLibertine-'pnum' Proportionalziffern 1" six.fitted
Substitution2: "'sinf' Wissenschaftliche Indices 1" six.inferior
Substitution2: "'sups' Hochgestellte 1" six.superior
AlternateSubs2: "LinLibertine-'aalt' Alle Alternativen zeigen 1" six.oldstyle six.superior six.fitted
EndChar
StartChar: seven
Encoding: 55 55 16
Width: 444
VWidth: 487
Flags: W
HStem: -13 21G<139 211> 535 65<228.886 458>
LayerCount: 2
Back
SplineSet
118.894 610.012 m 1
 583.859 610.012 l 1
 452.071 -10 l 1
 -12.8936 -10 l 1
 118.894 610.012 l 1
126.769 600.012 m 1
 571.733 600.012 l 1
 444.197 0 l 1
 -0.768555 0 l 1
 126.769 600.012 l 1
287 535 m 2xc0
 256 535 223 528 186 448 c 1
 175 447 166 448 156 451 c 1
 174 503 196 563 207 611 c 1xa0
 208 614 209 614 212 614 c 1
 228 610 224 600 257 600 c 2
 455 600 l 2xc0
 491 600 514 606 531 611 c 1xa0
 544 599 l 1
 381 326 294 160 205 -10 c 1
 139 -13 l 1
 133 -6 l 1
 229 146 345 341 459 535 c 1
 287 535 l 2xc0
EndSplineSet
Fore
SplineSet
286 535 m 2
 255 535 223 528 186 448 c 1
 175 447 166 448 156 451 c 1
 174 503 195 564 206 611 c 1
 207 614 207 614 210 614 c 1
 227 610 223 600 256 600 c 2
 453 600 l 2
 489 600 512 606 529 611 c 1
 542 599 l 1
 381 326 263.5 125 211 -10 c 1
 145 -13 l 1
 139 -6 l 1
 223.5 153 327.5 334 458 535 c 1
 286 535 l 2
EndSplineSet
Validated: 524321
Substitution2: "LinLibertine-'onum' Minuskelziffern 1" seven.taboldstyle
Substitution2: "LinLibertine-'pnum' Proportionalziffern 1" seven.fitted
Substitution2: "'sinf' Wissenschaftliche Indices 1" seven.inferior
Substitution2: "'sups' Hochgestellte 1" seven.superior
AlternateSubs2: "LinLibertine-'aalt' Alle Alternativen zeigen 1" seven.oldstyle seven.superior seven.fitted
EndChar
StartChar: eight
Encoding: 56 56 2068
Width: 444
VWidth: 487
Flags: W
HStem: -10 35<173.639 297.802> 575 35<275.677 379.595>
VStem: 71.0791 67.9248<53.0797 191.298> 158.897 75.462<412.361 526.029> 368.451 75.117<105.434 233.831> 402.319 67.23<431.343 558.433>
DStem2: 284 386 224 337 0.790147 -0.612918<-76.7419 9.02392 29.9995 38.7548 62.4438 173.971>
LayerCount: 2
Back
SplineSet
118.894 610.012 m 5
 583.859 610.012 l 5
 452.071 -10 l 5
 -12.8936 -10 l 5
 118.894 610.012 l 5
126.769 600.012 m 5
 571.733 600.012 l 5
 444.197 0 l 5
 -0.768555 0 l 5
 126.769 600.012 l 5
324 608 m 0xe4
 401 608 458 553 458 483 c 0xe4
 458 418 426 385 333 320 c 0
 331 318 332 317 333 315 c 0
 405 257 440 217 440 162 c 0
 440 59 338 -12 231 -12 c 0
 111 -12 64 61 64 122 c 0xe8
 64 181 90 212 217 294 c 0
 219 296 219 298 217 300 c 0
 162 347 136 391 136 438 c 0
 136 492 161 536 206 570 c 1xd4
 244 597 284 608 324 608 c 0xe4
299 576 m 0xd4
 245 576 205 536 205 471 c 0
 205 417 243 380 304 336 c 0
 305 335 309 334 310 336 c 0
 370 382 391 423 391 469 c 0
 391 535 348 576 299 576 c 0xd4
257 22 m 0xe8
 310 22 361 56 361 122 c 1
 362 176 331 214 248 276 c 0
 245 278 243 278 241 276 c 0
 182 236 137 193 137 131 c 1
 138 70 183 22 257 22 c 0xe8
EndSplineSet
Fore
SplineSet
227 25 m 3xf8
 272.029 25 368.451 51.0156 368.451 164.611 c 3
 368.451 203.522 349.7 243.796 307 275 c 2
 267 303 l 1
 162.414 239.581 139.004 172.337 139.004 112.951 c 3
 139.004 48.5 189.188 25 227 25 c 3xf8
332 346 m 1
 391 303 l 2
 426.348 277.863 443.568 236.003 443.568 193.235 c 3xf8
 443.568 127.481 415.363 81.4209 365.813 39.9131 c 0
 328.71 8.83105 278.085 -10 218 -10 c 3
 129.464 -10 71.0791 29.6846 71.0791 105.13 c 3
 71.0791 170.298 101.346 222.444 157 266 c 0
 185 288 214 305 245 321 c 1
 224 337 l 2
 173.04 374.062 158.897 408.959 158.897 454.043 c 3
 158.897 491 176.174 529.969 207.813 558.99 c 0
 241.87 590.229 290.208 610 346 610 c 3
 428.56 610 469.549 559.116 469.549 500.384 c 3xf4
 469.549 415.968 388.714 372.089 332 346 c 1
334 575 m 3
 269.195 575 234.359 528.448 234.359 467.111 c 3
 234.359 442.877 244.343 416.678 284 386 c 2
 310 367 l 1
 344.832 390.222 402.319 428.971 402.319 498.757 c 3xf4
 402.319 535.243 385.576 575 334 575 c 3
EndSplineSet
Validated: 524289
Substitution2: "LinLibertine-'onum' Minuskelziffern 1" eight.taboldstyle
Substitution2: "LinLibertine-'pnum' Proportionalziffern 1" eight.fitted
Substitution2: "'sinf' Wissenschaftliche Indices 1" eight.inferior
Substitution2: "'sups' Hochgestellte 1" eight.superior
AlternateSubs2: "LinLibertine-'aalt' Alle Alternativen zeigen 1" eight.oldstyle eight.superior eight.fitted
EndChar
StartChar: nine
Encoding: 57 57 17
Width: 444
VWidth: 487
Flags: W
HStem: -11 26<106.639 138.829> 240 35<247.992 356.381> 576 35<287.738 388.209>
VStem: 127 82<313.286 479.171> 417 78<326.142 548.437>
LayerCount: 2
Back
SplineSet
106 15 m 1
 228 59 306 144 352 226 c 0
 358 236 363.5 247.333 368 257 c 1
 337 243 297 235 272 235 c 3
 163 235 127 300 127 367 c 3
 127 479 213 611 348 611 c 3
 411 611 495 586 495 453 c 3
 495 372 474 306 440 244 c 0
 372 121 262 33 112 -11 c 1
 105 -6 104 3 106 15 c 1
385 294 m 1
 407 348 417 401 417 467 c 3
 417 556 377 576 331 576 c 3
 282 576 209 499 209 382 c 3
 209 333 227 270 299 270 c 3
 316 270 348 272 385 294 c 1
EndSplineSet
Fore
SplineSet
106 15 m 1
 227.045 50.8 306 144 352 226 c 0
 358 236 363.5 252.333 368 262 c 1
 337 248 297 240 272 240 c 3
 163 240 127 315 127 382 c 3
 127 494 213 611 348 611 c 3
 411 611 495 586 495 453 c 3
 495 372 472.127 306.991 440 244 c 0
 371.045 108.8 257.045 26.8 112 -11 c 1
 105 -6 104 3 106 15 c 1
385 299 m 1
 407 353 417 401 417 467 c 3
 417 556 377 576 341 576 c 3
 282 576 209 514 209 397 c 3
 209 348 227 275 299 275 c 3
 316 275 348 277 385 299 c 1
EndSplineSet
Validated: 524321
Substitution2: "LinLibertine-'onum' Minuskelziffern 1" nine.taboldstyle
Substitution2: "LinLibertine-'pnum' Proportionalziffern 1" nine.fitted
Substitution2: "'sinf' Wissenschaftliche Indices 1" nine.inferior
Substitution2: "'sups' Hochgestellte 1" nine.superior
AlternateSubs2: "LinLibertine-'aalt' Alle Alternativen zeigen 1" nine.oldstyle nine.superior nine.fitted
EndChar
StartChar: less
Encoding: 60 60 20
Width: 487
VWidth: 999
Flags: HMW
DStem2: 164 239 87 215 0.931794 -0.362988<0 318.177> 95 263 164 239 0.946433 0.322901<57.4341 414.129>
LayerCount: 2
Fore
SplineSet
164 239 m 1
 460 123 l 1
 452 73 l 1
 87 215 l 1
 95 263 l 1
 510 404 l 1
 501 354 l 1
 164 239 l 1
EndSplineSet
Validated: 1
EndChar
StartChar: equal
Encoding: 61 61 21
Width: 527
VWidth: 999
Flags: HMW
HStem: 144 49<100 487> 269 49<122 509>
LayerCount: 2
Fore
SplineSet
518 318 m 1
 509 269 l 1
 113 269 l 1
 122 318 l 1
 518 318 l 1
496 193 m 1
 487 144 l 1
 91 144 l 1
 100 193 l 1
 496 193 l 1
EndSplineSet
Validated: 1
Substitution2: "'sinf' Wissenschaftliche Indices 1" equal.inferior
Substitution2: "'sups' Hochgestellte 1" equal.superior
AlternateSubs2: "LinLibertine-'aalt' Alle Alternativen zeigen 1" equal.superior
EndChar
StartChar: greater
Encoding: 62 62 22
Width: 487
VWidth: 999
Flags: HMW
DStem2: 70 121 62 71 0.946433 0.322901<0 356.233> 120 402 111 352 0.931958 -0.362567<9.86646 328.044>
LayerCount: 2
Fore
SplineSet
407 236 m 1
 111 352 l 1
 120 402 l 1
 485 260 l 1
 477 212 l 1
 62 71 l 1
 70 121 l 1
 407 236 l 1
EndSplineSet
Validated: 1
EndChar
StartChar: question
Encoding: 63 63 23
Width: 410
VWidth: 487
Flags: W
HStem: -7 100<174.012 252.198> 626 32<270.047 370.696>
VStem: 163 100<4.15561 81.2822> 171 83<511.115 593.727> 212 35<191.037 264.304> 401 82<454.197 601.857>
LayerCount: 2
Back
SplineSet
227 95 m 4
 253 95 273 76 273 51 c 4
 273 21 246 -11 211 -11 c 4
 185 -11 165 9 165 35 c 4
 165 62 191 95 227 95 c 4
146 520 m 0xec
 146 568 207 659 338 659 c 0
 428 659 486 612 486 539 c 0
 486 398 326 355 289 301 c 0
 271 276 262 252 257 228 c 2
 250 184 l 2
 249 177 243 174 235 174 c 0
 228 174 223 177 224 184 c 2
 232 230 l 2
 267 419 408 390 408 530 c 0
 408 584 373 629 323 629 c 0
 254 629 219 593 219 563 c 0
 219 557 221 551 224 546 c 0
 226 542 227 537 227 532 c 0
 227 512 211 487 180 487 c 0
 166 487 146 493 146 520 c 0xec
EndSplineSet
Fore
SplineSet
163 45 m 3xe4
 163 69 191 93 215 93 c 3
 242 93 263 65 263 41 c 3
 263 20 239 -7 211 -7 c 3
 187 -7 163 19 163 45 c 3xe4
319 626 m 3
 274 626 254 601 254 577 c 0
 254 572 255 568 257 564 c 0
 258 562 258 556 258 552 c 0
 258 522 234 506 208 506 c 3
 187 506 171 519 171 538 c 3xd4
 171 601 255 658 331 658 c 3
 430 658 483 603 483 536 c 3
 483 440 408 388 344 344 c 0
 278 299 259 282 247 197 c 1
 243 193 235 191 228 191 c 0
 221 191 215 193 212 198 c 1xcc
 216 276 237 315 312 375 c 0
 364 417 401 457 401 537 c 3
 401 592 372 626 319 626 c 3
EndSplineSet
Validated: 1
EndChar
StartChar: at
Encoding: 64 64 24
Width: 829
VWidth: 999
Flags: W
HStem: -158 33<312.798 497.591> 27 43<359.639 428.854> 27 35<507.172 630.98> 379 31<493.862 585.38> 581 30<463.595 626.896>
VStem: 90.7389 77.0951<14.2942 262.615> 282.147 68.759<78.9204 213.001> 491.405 65.239<48.2307 117.506> 772.196 74.752<231.928 451.398>
DStem2: 619 367 693 399 0.392197 0.919881<-258.445 -20.81 0 25.9991>
LayerCount: 2
Back
SplineSet
557 74 m 0xb8
 555 64 562 62 564 62 c 0
 660 62 729 109 764 275 c 0
 808 481 666 581 549 581 c 0
 408 581 230 478 179 241 c 0
 172.087 208.596 167.834 173.113 167.834 137.392 c 4
 167.834 7.75761 223.846 -125 412 -125 c 0
 491 -125 554 -102 613 -59 c 1
 622 -77 l 1
 556 -123 492 -158 387 -158 c 0
 199.119 -158 90.7389 -36.5795 90.7389 130.686 c 4
 90.7389 160.171 94.1065 191.08 101 223 c 0
 146 438 355 611 565 611 c 0
 765 611 879 469 839 282 c 0
 814 168 719 27 517 27 c 0
 491 27 489 52 493 68 c 0
 496 83 507 106 520 131 c 1
 518 132 l 1
 461 58 405 29 373 29 c 0
 280 29 277 113 285 153 c 0
 315 296 458 410 557 410 c 0
 587 410 615 393 619 367 c 1
 629 391 l 1
 681 404 l 1
 693 399 l 1
 583 141 l 2
 572 114 559 83 557 74 c 0xb8
596 316 m 0
 604 354 581 379 548 379 c 0
 532 379 491 370 456 339 c 0
 397 288 368 224 355 162 c 0
 345 114 350 70 408 70 c 0xd8
 440 70 499 127 542 200 c 0
 562 231 588 282 596 316 c 0
EndSplineSet
Fore
SplineSet
556.644 70.6656 m 3xbf80
 556.644 63.5388 562.246 62 564 62 c 3
 669.121 62 772.196 157.481 772.196 348.638 c 3
 772.196 504.874 651.082 581 549 581 c 3
 380.988 581 167.834 425.622 167.834 137.392 c 3
 167.834 7.75761 223.846 -125 412 -125 c 3
 491 -125 553 -103 612 -60 c 1
 617.667 -63.3333 622 -69 622 -77 c 1
 556 -123 492 -158 387 -158 c 3
 199.119 -158 90.7389 -36.5795 90.7389 130.686 c 3
 90.7389 397.001 333.939 611 565 611 c 3
 738.235 611 846.948 504.463 846.948 354.425 c 3
 846.948 189.912 740.182 27 517 27 c 3
 497.344 27 491.405 41.2878 491.405 55.1735 c 3
 491.405 73.0019 504.219 100.651 520 131 c 1
 518 132 l 1
 461 58 405 29 373 29 c 3
 299.354 29 282.147 81.6753 282.147 123.463 c 3
 282.147 259.003 441.983 410 557 410 c 3
 587 410 615 393 619 367 c 1
 629 391 l 1
 681 404 l 1
 693 399 l 1
 583 141 l 2
 572.667 116.765 556.644 77.3428 556.644 70.6656 c 3xbf80
596 316 m 0
 604 354 581 379 548 379 c 3
 532 379 491 370 456 339 c 0
 392.71 284.292 350.906 195 350.906 127.043 c 3
 350.906 94.5822 364.648 70 408 70 c 3xdf80
 440 70 499 127 542 200 c 0
 562 231 588 282 596 316 c 0
EndSplineSet
Validated: 524321
EndChar
StartChar: A
Encoding: 65 65 25
Width: 667
VWidth: 999
Flags: W
HStem: -2 33<8.5625 69.0686 170.524 221.281 424.562 495.012 613.887 663.438> 241 42<293.688 480> 638 20G<499 509.873>
DStem2: 135 122 189 122 0.521048 0.853527<-44.9237 180.859 228.755 527.976> 507 658 445 555 0.142197 -0.989838<93.1371 367.35 409.919 602.6>
AnchorPoint: "unten_punkt" 308 -110 basechar 0
AnchorPoint: "unten_anhang" 116 5 basechar 0
AnchorPoint: "top_akzent" 354 850 basechar 0
LayerCount: 2
Fore
SplineSet
221 31 m 1
 226 25 224 4 217 -2 c 1
 182 -1 133 0 94 0 c 3
 65 0 33 -1 8 -2 c 1
 3 4 6 25 13 31 c 1
 69 37.25 94.0545 54.9275 135 122 c 2
 450 638 l 1
 462 638 491 649 507 658 c 1
 584 122 l 2
 593 59 605.31 37.3449 664 31 c 1
 669 25 666 4 659 -2 c 1
 626 -1 589 0 550 0 c 3
 513 0 460 -1 424 -2 c 1
 419 4 422 25 429 31 c 1
 512.259 36.43 511 52 502 122 c 2
 487 241 l 1
 284 241 l 2
 261 241 254 237 247 224 c 2
 189 122 l 2
 159 69 142.75 38.25 221 31 c 1
310 283 m 2
 480 283 l 1
 445 555 l 1
 439 555 l 1
 289 296 l 2
 283 286 289 283 310 283 c 2
EndSplineSet
Validated: 524321
Position2: "'cpsp' Versalabstaende 1" dx=2 dy=0 dh=5 dv=0
Substitution2: "'c2sc' Versale nach Kapitaelchen 1" a.sc
EndChar
StartChar: B
Encoding: 66 66 26
Width: 563
VWidth: 999
Flags: W
HStem: -2 33<19.9137 94 211.729 375.999> 332 34<254 402.341> 613 32<139.802 200.012 306.068 443.411>
VStem: 471.75 93.072<126.242 277.223> 487.748 80.185<450.26 581.019>
AnchorPoint: "mittelpunkt" 306 175 basechar 0
AnchorPoint: "top_rechts" 509 732 basechar 0
AnchorPoint: "unten_punkt" 268 -110 basechar 0
AnchorPoint: "unten_anhang" 250 0 basechar 0
AnchorPoint: "top_akzent" 267 850 basechar 0
LayerCount: 2
Back
SplineSet
304.995 583.005 m 6
 203 127 l 6
 194.049 86.9795 190 72 190 64 c 7
 190 56 194 50 202 50 c 7
 214 50 253 74 283 110 c 5
 296 110 301 103 305 93 c 5
 261 16 208 -10 154 -10 c 7
 121 -10 112 16 112 35 c 7
 112 54 118.874 87.0391 126 119 c 6
 225.002 563.009 l 6
 229.866 584.825 232 602 232 613 c 4
 232 635 224 641 211 641 c 14
 180 643 l 22
 176 643 175 645 175 648 c 13
 178 672 l 5
 219 675 291 688 318 698 c 5
 327 698 330 695 330 688 c 5
 330 688 319.508 647.889 304.995 583.005 c 6
EndSplineSet
Fore
SplineSet
267 645 m 3xf0
 302 645 354 647 388 647 c 3
 534.799 647 567.933 588.486 567.933 530.478 c 3xe8
 567.933 448.583 511.159 392.263 447 362 c 1
 447 360 l 1
 515.237 338.406 564.822 294.429 564.822 220.982 c 3
 564.822 104.433 483.461 -2 283 -2 c 3
 202 -2 177 0 143 0 c 3
 107 0 58 -1 20 -2 c 1
 13.6216 5.65412 18.4201 26.2172 24 31 c 1
 92 34 109 39 125 122 c 2
 203 523 l 2
 215.64 588.568 215.947 610.555 139 614 c 1
 132.424 621.891 138.636 642.402 144 647 c 1
 181 646 233 645 267 645 c 3xf0
248 332 m 1
 206 118 l 2
 195.144 62.8174 198.688 31 269 31 c 3
 426.295 31 471.75 100.734 471.75 203.098 c 3xf0
 471.75 275.692 426.879 332 314 332 c 2
 248 332 l 1
290 550 m 2
 254 366 l 1
 325 366 l 2
 414.354 366 487.748 408.92 487.748 516.781 c 3xe8
 487.748 590.202 433.074 613 386 613 c 3
 302 613 300 603 290 550 c 2
EndSplineSet
Validated: 524321
Position2: "'cpsp' Versalabstaende 1" dx=2 dy=0 dh=5 dv=0
Substitution2: "'c2sc' Versale nach Kapitaelchen 1" b.sc
EndChar
StartChar: C
Encoding: 67 67 27
Width: 618
VWidth: 999
Flags: W
HStem: -10 41<273.7 444.799> 621 37<375.355 544.23>
VStem: 86.9986 92.2414<141.862 368.983> 631 32<454.437 522.878>
AnchorPoint: "komb_OR" 617 606 basechar 0
AnchorPoint: "mittelpunkt" 346 315 basechar 0
AnchorPoint: "top_rechts" 609 732 basechar 0
AnchorPoint: "unten_punkt" 363 -110 basechar 0
AnchorPoint: "unten_anhang" 356 -7 basechar 0
AnchorPoint: "top_akzent" 340 850 basechar 0
LayerCount: 2
Back
SplineSet
338 -10 m 3
 163.57 -10 88.8001 107.586 88.8001 241.37 c 0
 88.8001 265.583 91.2492 290.327 96 315 c 0
 134 512 310 658 469 658 c 3
 587 658 616 616 670 613 c 1
 664 559 662 510 661 458 c 1
 632 454 l 1
 624 540 584 621 451 621 c 3
 375 621 223 537 183 334 c 0
 177.612 305.905 174.779 277.402 174.779 249.689 c 0
 174.779 133.39 224.673 31 345 31 c 3
 434 31 506 62 589 140 c 1
 600 140 605 134 608 125 c 1
 526 36 431 -10 338 -10 c 3
EndSplineSet
Fore
SplineSet
340 -10 m 3
 166.12 -10 86.9986 94.0196 86.9986 231.097 c 3
 86.9986 379.353 159.657 506.488 250 579 c 0
 317 633 389 658 471 658 c 3
 589 658 621 618 669 613 c 1
 670 557.667 668 510 663 458 c 1
 652.592 451.296 642.986 450.642 631 453 c 1
 623 539 585 621 453 621 c 3
 403 621 344 599 285 538 c 0
 231.954 483.748 179.24 374.949 179.24 258.277 c 3
 179.24 137.761 238.888 31 347 31 c 3
 436 31 508 62 591 140 c 1
 602 140 607 134 610 125 c 1
 527 36 433 -10 340 -10 c 3
EndSplineSet
Validated: 524321
Position2: "'cpsp' Versalabstaende 1" dx=2 dy=0 dh=5 dv=0
Substitution2: "'c2sc' Versale nach Kapitaelchen 1" c.sc
EndChar
StartChar: D
Encoding: 68 68 28
Width: 671
VWidth: 999
Flags: W
HStem: -2 34<20.145 96.691 205.736 396.922> 613 32<137.562 202.044 315.992 476.342>
VStem: 603.448 94.0524<244.425 484.516>
DStem2: 98.643 -2 180.72 -2 0.207912 0.978148<69.4018 605.235>
AnchorPoint: "mittelpunkt" 406 315 basechar 0
AnchorPoint: "top_rechts" 739 732 basechar 0
AnchorPoint: "unten_punkt" 289 -110 basechar 0
AnchorPoint: "unten_anhang" 309 1 basechar 0
AnchorPoint: "top_akzent" 426 850 basechar 0
LayerCount: 2
Back
SplineSet
193 73 m 2
 192.109 68.2472 191.549 64.0017 191.549 60.2177 c 0
 191.549 38.5251 209.961 32 290 32 c 3
 425 32 555 82 594 284 c 0
 599.788 313.713 603.045 344.208 603.045 374.077 c 0
 603.045 499.015 546.061 613 379 613 c 3
 332 613 298 609 291 574 c 2
 193 73 l 2
19 18 m 2
 20 23 24 27 28 27 c 2
 57 29 l 2
 91 31 110 42 116 74 c 2
 213 572 l 2
 214.349 578.94 215.067 584.727 215.067 589.571 c 0
 215.067 609.853 202.482 613.578 171 616 c 2
 145 618 l 2
 140 618 137 621 138 626 c 2
 141 645 l 1
 144 647 l 1
 189 646 228 645 265 645 c 3
 304 645 361 647 422 647 c 19
 583.23 647 693.784 529.525 693.784 375.31 c 0
 693.784 353.53 691.579 331.018 687 308 c 0
 640 62 449 -2 313 -2 c 3
 214 -2 177 0 140 0 c 3
 101 0 63 -1 18 -2 c 1
 16 0 l 1
 19 18 l 2
EndSplineSet
Fore
SplineSet
267 645 m 3
 304 645 358 647 426 647 c 3
 587.586 647 697.5 529.006 697.5 374.288 c 3
 697.5 119 481.682 -2 317 -2 c 3
 218 -2 179 0 143 0 c 3
 107 0 58 -1 20 -2 c 1
 15 4 17 25 24 31 c 1
 92 34 109 39 125 122 c 2
 203 523 l 2
 219 606 204 611 137 614 c 1
 132 620 135 641 142 647 c 1
 180 646 233 645 267 645 c 3
199 84 m 2
 193 52 200 32 294 32 c 3
 453.729 32 603.448 128.33 603.448 377.46 c 3
 603.448 501.065 548.552 613 383 613 c 3
 336 613 300 599 293 564 c 2
 199 84 l 2
EndSplineSet
Validated: 524321
Position2: "'cpsp' Versalabstaende 1" dx=2 dy=0 dh=5 dv=0
Substitution2: "'c2sc' Versale nach Kapitaelchen 1" d.sc
EndChar
StartChar: E
Encoding: 69 69 29
Width: 533
VWidth: 999
Flags: W
HStem: 0 39<201.58 421.005> 0 31<18.7188 93> 323 38<252 402.269> 605 40<304.854 494.992> 614 33<137.511 200.125>
VStem: 406 32<251.77 314.081> 440 32<384.682 432.23> 522 33<498.16 570.91>
DStem2: 97.643 -2 179.894 -2 0.207912 0.978148<71.6333 348.535 387.16 604.895>
AnchorPoint: "top_rechts" 657 732 basechar 0
AnchorPoint: "unten_anhang" 277 4 basechar 0
AnchorPoint: "unten_punkt" 267 -110 basechar 0
AnchorPoint: "top_akzent" 411 850 basechar 0
LayerCount: 2
Fore
SplineSet
340 361 m 2x37
 422 361 426 374 440 429 c 1
 447 435 467 435 472 429 c 1
 466 405 458 371 453 343 c 8
 446.88 308.728 442 281 438 255 c 1
 431 249 411 249 406 255 c 1
 412 300 414 323 332 323 c 2
 245 323 l 1
 202 102 l 2
 193 55 203 39 243 39 c 2
 355 39 l 2
 428 39 473 98 506 170 c 1
 519 173 530 171 539 165 c 1
 521 114 494 48 471 -2 c 1
 471 -2 394 0 348 0 c 2xb7
 142 0 l 2
 110 0 55 -1 19 -2 c 1
 14 4 16 25 23 31 c 1
 91 34 108 39 124 122 c 2
 202 523 l 2
 218 606 203 611 136 614 c 1
 131 620 134 641 141 647 c 1x6f
 179 646 237 645 266 645 c 2
 511 645 l 2
 534 645 542 646 559 649 c 1
 562 649 562 648 562 646 c 0
 562 638 558 542 555 501 c 1
 545 496 534 494 522 496 c 1
 514 565 507 605 435 605 c 2
 363 605 l 2
 311 605 296 585 287 541 c 2
 252 361 l 1
 340 361 l 2x37
EndSplineSet
Validated: 524321
Position2: "'cpsp' Versalabstaende 1" dx=2 dy=0 dh=5 dv=0
Substitution2: "'c2sc' Versale nach Kapitaelchen 1" e.sc
EndChar
StartChar: F
Encoding: 70 70 30
Width: 465
VWidth: 999
Flags: W
HStem: -2 33<18.7188 93 207.875 271.438> 323 38<252 404.269> 605 40<301.98 483.601> 614 33<137.511 200.125>
VStem: 408 32<251.14 314.718> 442 32<384.63 430.86> 522 31<498.84 556.97>
DStem2: 97.643 -2 179.643 -2 0.207912 0.978148<69.4018 348.535 387.16 605.654>
AnchorPoint: "top_rechts" 637 732 basechar 0
AnchorPoint: "unten_anhang" 155 -1 basechar 0
AnchorPoint: "unten_punkt" 209 -110 basechar 0
AnchorPoint: "top_akzent" 424 850 basechar 0
LayerCount: 2
Fore
SplineSet
334 323 m 2xee
 245 323 l 1
 206 122 l 2
 190 39 205 34 272 31 c 1
 277 25 274 4 267 -2 c 1
 234 -1 187 0 144 0 c 3
 101 0 53 -1 19 -2 c 1
 14 4 16 25 23 31 c 1
 91 34 108 39 124 122 c 2
 202 523 l 2
 218 606 203 611 136 614 c 1
 131 620 134 641 141 647 c 1xde
 179 646 235 645 266 645 c 2
 511 645 l 2
 535 645 540 646 557 649 c 1
 559 649 561 648 561 646 c 0
 561 638 556 542 553 501 c 1
 545 498 534 496 522 496 c 1
 514 565 499 605 397 605 c 2
 353 605 l 2
 311 605 297 595 287 541 c 2
 252 361 l 1
 342 361 l 2
 424 361 428 374 442 429 c 1
 449 435 469 433 474 427 c 1
 468 402 461.587 374.711 455 341 c 24
 448.323 306.831 443 277 440 253 c 1
 433 247 413 249 408 255 c 1
 414 300 416 323 334 323 c 2xee
EndSplineSet
Validated: 524321
Position2: "'cpsp' Versalabstaende 1" dx=2 dy=0 dh=5 dv=0
Substitution2: "'c2sc' Versale nach Kapitaelchen 1" f.sc
EndChar
StartChar: G
Encoding: 71 71 31
Width: 656
VWidth: 999
Flags: W
HStem: -10 36<289.8 481.288> 265 36<481.789 545.869 645.179 689.211> 622 36<393.648 560.275>
VStem: 86.7221 97.5039<139.735 367.343> 639 33<456.504 533.861>
DStem2: 505.846 -10 585.406 -10 0.207912 0.978148<105.038 264.596>
AnchorPoint: "komb_OR" 600 606 basechar 0
AnchorPoint: "mittelpunkt" 378 335 basechar 0
AnchorPoint: "top_rechts" 741 732 basechar 0
AnchorPoint: "unten_anhang" 337 2 basechar 0
AnchorPoint: "unten_punkt" 327 -110 basechar 0
AnchorPoint: "top_akzent" 495 850 basechar 0
LayerCount: 2
Fore
SplineSet
489 658 m 3
 596 658 624 623 680 613 c 1
 681 541 678 501 672 459 c 1
 660 454 650 452 639 453 c 1
 631 539 608 622 469 622 c 3
 399.83 622 323.031 576.229 266.4 500 c 0
 221.199 439.156 184.226 358.935 184.226 256.808 c 3
 184.226 141.968 238.087 26 364 26 c 3
 416 26 483 34 522 66 c 1
 550 217 l 2
 557.438 257.108 533 261 481 265 c 1
 476 271 479 295 486 301 c 1
 528 300 573 299 605 299 c 3
 643 299 667 300 690 301 c 1
 695 295 692 271 685 265 c 1
 657 262 639 252 632 217 c 2
 609 101 l 2
 607 90 610 82 619 73 c 1
 542 15 448 -10 335 -10 c 3
 177.549 -10 86.7221 91.4166 86.7221 234.38 c 3
 86.7221 370.308 149.743 473.074 222.373 542.603 c 0
 300.184 617.091 399.589 658 489 658 c 3
EndSplineSet
Validated: 524321
Position2: "'cpsp' Versalabstaende 1" dx=2 dy=0 dh=5 dv=0
Substitution2: "'c2sc' Versale nach Kapitaelchen 1" g.sc
EndChar
StartChar: H
Encoding: 72 72 259
Width: 700
VWidth: 999
Flags: W
HStem: -2 33<19.7188 94 208.875 272.438 429.562 504 618.875 682.438> 321 42<254 574> 614 33<137.562 201.125 316 390.281 547.562 611.125 726 800.281>
DStem2: 98.643 -2 180.643 -2 0.207912 0.978148<69.4018 346.371 389.324 605.102> 508.643 -2 590.643 -2 0.207912 0.978148<69.4018 329.53 372.276 605.102>
AnchorPoint: "mittelpunkt" 442 485 basechar 0
AnchorPoint: "top_rechts" 685 732 basechar 0
AnchorPoint: "unten_anhang" 152 0 basechar 0
AnchorPoint: "unten_punkt" 339 -110 basechar 0
AnchorPoint: "top_akzent" 476 850 basechar 0
LayerCount: 2
Back
SplineSet
557 321 m 1
 239 321 l 1
 247 363 l 1
 565 363 l 1
 557 321 l 1
EndSplineSet
Refer: 260 73 N 1 0 0 1 390 0 2
Refer: 260 73 N 1 0 0 1 0 0 2
Fore
SplineSet
617 122 m 2
 601 39 616 34 683 31 c 1
 688 25 685 4 678 -2 c 1
 636 -1 591 0 555 0 c 3
 519 0 472 -1 429 -2 c 1
 424 4 427 25 434 31 c 1
 502 34 519 39 535 122 c 2
 574 321 l 1
 245 321 l 1
 207 122 l 2
 191 39 206 34 273 31 c 1
 278 25 275 4 268 -2 c 1
 226 -1 180 0 145 0 c 3
 109 0 62 -1 20 -2 c 1
 15 4 17 25 24 31 c 1
 92 34 109 39 125 122 c 2
 203 523 l 2
 219 606 204 611 137 614 c 1
 132 620 135 641 142 647 c 1
 178 646 217 645 265 645 c 3
 314 645 353 646 390 647 c 1
 395 641 393 620 386 614 c 1
 318 611 301 606 285 523 c 2
 254 363 l 1
 582 363 l 1
 613 523 l 2
 629 606 614 611 547 614 c 1
 542 620 545 641 552 647 c 1
 594 646 639 645 675 645 c 3
 711 645 760 646 800 647 c 1
 805 641 803 620 796 614 c 1
 728 611 711 606 695 523 c 2
 617 122 l 2
EndSplineSet
Validated: 33
Position2: "'cpsp' Versalabstaende 1" dx=2 dy=0 dh=5 dv=0
Substitution2: "'c2sc' Versale nach Kapitaelchen 1" h.sc
EndChar
StartChar: I
Encoding: 73 73 260
Width: 284
VWidth: 999
Flags: W
HStem: -2 33<19.7188 94 208.875 272.438> 614 33<137.562 201.125 316 390.281>
DStem2: 98.643 -2 180.643 -2 0.207912 0.978148<69.4018 605.102>
AnchorPoint: "top_akzent" 308 850 basechar 0
AnchorPoint: "unten_punkt" 127 -110 basechar 0
AnchorPoint: "unten_anhang" 149 1 basechar 0
AnchorPoint: "mittelpunkt" 148 325 basechar 0
LayerCount: 2
Fore
SplineSet
207 122 m 2
 191 39 206 34 273 31 c 1
 278 25 275 4 268 -2 c 1
 225 -1 179 0 145 0 c 3
 110 0 63 -1 20 -2 c 1
 15 4 17 25 24 31 c 1
 92 34 109 39 125 122 c 2
 203 523 l 2
 219 606 204 611 137 614 c 1
 132 620 135 641 142 647 c 1
 187 646 233 645 265 645 c 3
 302 645 348 646 390 647 c 1
 395 641 393 620 386 614 c 1
 318 611 301 606 285 523 c 2
 207 122 l 2
EndSplineSet
Validated: 33
Position2: "'cpsp' Versalabstaende 1" dx=2 dy=0 dh=5 dv=0
Substitution2: "'c2sc' Versale nach Kapitaelchen 1" i.sc
EndChar
StartChar: J
Encoding: 74 74 261
Width: 310
VWidth: 999
Flags: W
HStem: -170 44<22.1012 85.7727> 614 33<141.875 232.37 355.684 416.125>
DStem2: 97.9191 -170 179.243 -170 0.207912 0.978148<126.403 772.909>
AnchorPoint: "mittelpunkt" 186 315 basechar 0
AnchorPoint: "top_akzent" 329 850 basechar 0
LayerCount: 2
Fore
SplineSet
27 -170 m 3
 -19 -170 -69 -147 -69 -111 c 0
 -69 -96 -55 -71 -28 -71 c 0
 -6 -71 8.5 -79 16 -94 c 0
 25.5 -113 36.5 -126 52.5 -126 c 0
 84.5 -126 122.058 -77.9405 167 155 c 2
 238 523 l 2
 253.654 604.139 239 611 143 614 c 1
 138 620 139 641 146 647 c 1
 194 646 264 645 299 645 c 3
 336 645 378 646 415 647 c 1
 420 641 419 620 412 614 c 1
 354 611 336.069 594.984 320 512 c 2
 253 177 l 2
 209.529 -40.3555 177.5 -92 128.5 -129 c 0
 82.5 -164 50 -170 27 -170 c 3
EndSplineSet
Validated: 524321
Position2: "'cpsp' Versalabstaende 1" dx=2 dy=0 dh=5 dv=0
Substitution2: "'c2sc' Versale nach Kapitaelchen 1" j.sc
EndChar
StartChar: K
Encoding: 75 75 262
Width: 611
VWidth: 999
Flags: W
HStem: -2 33<19.875 94 208.875 273.281 554.347 608.281> 614 33<136.719 201.125 316 390.125 508.875 552.052 637.03 713.281>
DStem2: 98.643 -2 180.643 -2 0.207912 0.978148<69.4018 336.252 373.05 605.102> 372 333 315 271 0.521715 -0.85312<-25.2284 321.787> 334 386 407 407 0.7389 0.673815<3.55715 305.045>
AnchorPoint: "top_rechts" 649 732 basechar 0
AnchorPoint: "unten_anhang" 151 -1 basechar 0
AnchorPoint: "unten_punkt" 292 -109 basechar 0
AnchorPoint: "top_akzent" 466 850 basechar 0
LayerCount: 2
Back
Refer: 260 73 N 1 0 0 1 0 0 2
Fore
SplineSet
207 122 m 2
 191 39 206 34 273 31 c 1
 278 25 276 4 269 -2 c 1
 226 -1 182 0 146 0 c 3
 109 0 64 -1 21 -2 c 1
 16 4 17 25 24 31 c 1
 92 34 109 39 125 122 c 2
 203 523 l 2
 219 606 204 611 137 614 c 1
 132 620 134 641 141 647 c 1
 184 646 227 645 264 645 c 3
 299 645 345 646 389 647 c 1
 394 641 393 620 386 614 c 1
 318 611 301 606 285 523 c 2
 251 347 l 1
 285 350 309 363 334 386 c 2
 527 562 l 2
 576 607 544 611 510 614 c 1
 505 620 506 641 513 647 c 1
 548 646 585 645 621 645 c 3
 652 645 683 646 713 647 c 1
 718 641 716 620 709 614 c 1
 670 611 632 607 578 558 c 2
 407 407 l 2
 368 372 365 365 364 358 c 0
 362 350 366 342 372 333 c 2
 531 73 l 2
 553 37 581 34 608 31 c 1
 613 25 611 4 604 -2 c 1
 573 -1 541 0 508 0 c 3
 488 0 474 -1 455 -2 c 0
 451 -2 452 1 452 4 c 0
 453 20 442 47 428 73 c 2
 315 271 l 2
 301 297 275 308 243 309 c 1
 207 122 l 2
EndSplineSet
Validated: 33
Position2: "'cpsp' Versalabstaende 1" dx=2 dy=0 dh=5 dv=0
Substitution2: "'ss02' Stilgruppe 2 1" K.alt
Substitution2: "'c2sc' Versale nach Kapitaelchen 1" k.sc
AlternateSubs2: "LinLibertine-'aalt' Alle Alternativen zeigen 1" K.alt k.sc
EndChar
StartChar: L
Encoding: 76 76 263
Width: 506
VWidth: 999
Flags: W
HStem: 0 39<205.096 393.356> 0 31<19.7188 94> 614 33<137.562 201.125 316 390.281>
DStem2: 98.643 -2 180.406 -2 0.207912 0.978148<73.9415 605.102>
AnchorPoint: "mittelpunkt" 338 315 basechar 0
AnchorPoint: "top_rechts" 481 732 basechar 0
AnchorPoint: "unten_anhang" 252 1 basechar 0
AnchorPoint: "unten_punkt" 242 -110 basechar 0
AnchorPoint: "top_akzent" 301 850 basechar 0
LayerCount: 2
Fore
SplineSet
145 0 m 2x60
 113 0 58 -1 20 -2 c 1
 15 4 17 25 24 31 c 1x60
 92 34 109 39 125 122 c 2
 203 523 l 2
 219 606 204 611 137 614 c 1
 132 620 135 641 142 647 c 1
 186 646 230 645 265 645 c 3
 302 645 347 646 390 647 c 1
 395 641 393 620 386 614 c 1
 318 611 301 606 285 523 c 2
 204 109 l 2
 194 58 208 39 245 39 c 2
 306 39 l 2
 408 39 455 98 488 170 c 1
 500 172 511 170 519 165 c 1
 503 113 480 48 461 -2 c 1
 461 -2 373 0 347 0 c 2xa0
 145 0 l 2x60
EndSplineSet
Validated: 33
Position2: "'cpsp' Versalabstaende 1" dx=2 dy=0 dh=5 dv=0
Substitution2: "'c2sc' Versale nach Kapitaelchen 1" l.sc
EndChar
StartChar: M
Encoding: 77 77 264
Width: 804
VWidth: 999
Flags: W
HStem: -10 21G<375 381> -2 33<20.7188 74.7582 153.043 197.438 576.562 640.801 730.848 788.281> 614 33<183.562 241.438 803.553 869.281>
AnchorPoint: "mittelpunkt" 486 445 basechar 0
AnchorPoint: "unten_anhang" 109 2 basechar 0
AnchorPoint: "unten_punkt" 373 -110 basechar 0
AnchorPoint: "top_akzent" 521 850 basechar 0
LayerCount: 2
Fore
SplineSet
658 116 m 2x60
 715 534 l 1
 713 534 l 1
 394 5 l 2
 389 -3 384 -10 378 -10 c 3xa0
 372 -10 367 -2 366 5 c 2
 269 524 l 1
 267 524 l 1
 152 123 l 2
 136 67 136 36 198 31 c 1
 203 25 200 4 193 -2 c 1
 164 -1 126 0 103 0 c 3
 80 0 50 -1 21 -2 c 1
 16 4 18 25 25 31 c 1
 81 36 97 61 114 121 c 2
 233 533 l 2
 254 608 248 610 183 614 c 1
 178 620 181 641 188 647 c 13
 329 645 l 1
 427 137 l 2
 428 129 430 124 432 124 c 0
 434 124 437 128 443 138 c 2
 745 645 l 1
 869 647 l 21
 874 641 872 620 865 614 c 1
 799 610 791 596 785 542 c 2
 732 121 l 2
 721 38 723 34 788 31 c 1
 793 25 791 4 784 -2 c 1
 752 -1 708 0 679 0 c 3
 650 0 612 -1 576 -2 c 1
 571 4 574 25 581 31 c 1
 644 34 647 35 658 116 c 2x60
EndSplineSet
Validated: 33
Position2: "'cpsp' Versalabstaende 1" dx=2 dy=0 dh=5 dv=0
Substitution2: "'c2sc' Versale nach Kapitaelchen 1" m.sc
EndChar
StartChar: N
Encoding: 78 78 265
Width: 670
VWidth: 999
Flags: W
HStem: -10 21G<549.5 563.5> -2 33<15.7188 85.4644 174.021 234.281> 614 33<141.562 180.23 569.562 629.409 717.942 787.438>
DStem2: 93.6044 -10 140.604 -10 0.207912 0.978148<73.563 518.944> 277 645 274 455 0.491667 -0.870783<122.109 564.244> 522.045 -10 569.045 -10 0.207912 0.978148<168.724 616>
AnchorPoint: "mittelpunkt" 396 320 basechar 0
AnchorPoint: "unten_anhang" 127 -4 basechar 0
AnchorPoint: "unten_punkt" 298 -110 basechar 0
AnchorPoint: "top_akzent" 476 850 basechar 0
LayerCount: 2
Fore
SplineSet
633 512 m 2x60
 651 603 635 607 569 614 c 1
 564 620 567 641 574 647 c 1
 616 646 662 645 682 645 c 3
 705 645 748 646 788 647 c 1
 793 641 790 620 783 614 c 1
 714 607 697 601 680 512 c 2
 585 21 l 2
 581 2 570 -10 557 -10 c 3xa0
 542 -10 531 -1 523 14 c 2
 274 455 l 2
 262 477 253 488 247 488 c 3
 240.495 488 238.452 482.834 230 439 c 2
 171 133 l 2
 153 42 168 38 234 31 c 1
 239 25 237 4 230 -2 c 1
 190 -1 146 0 124 0 c 3
 101 0 57 -1 16 -2 c 1
 11 4 13 25 20 31 c 1
 89 38 107 44 124 133 c 2
 205 550 l 17
 204 576 182 611 141 614 c 1
 136 620 139 641 146 647 c 9
 277 645 l 1
 522 210 l 2
 542.521 173.565 553 155 557 155 c 3
 562.667 155 566.199 165.271 570 185 c 10
 633 512 l 2x60
EndSplineSet
Validated: 524321
Position2: "'cpsp' Versalabstaende 1" dx=2 dy=0 dh=5 dv=0
Substitution2: "'c2sc' Versale nach Kapitaelchen 1" n.sc
EndChar
StartChar: O
Encoding: 79 79 266
Width: 672
VWidth: 999
Flags: W
HStem: -10 36<287.995 433.368> 622 36<363.341 517.661>
VStem: 87.6127 94.8982<131.96 373.125> 616.85 94.1661<277.201 519.131>
AnchorPoint: "mittelpunkt" 386 322 basechar 0
AnchorPoint: "komb_OR" 720 606 basechar 0
AnchorPoint: "unten_anhang" 350 0 basechar 0
AnchorPoint: "unten_punkt" 330 -110 basechar 0
AnchorPoint: "top_akzent" 485 850 basechar 0
LayerCount: 2
Fore
SplineSet
602 116 m 0
 534.656 37.4326 439 -10 333 -10 c 3
 191.454 -10 87.6127 82.752 87.6127 236.169 c 3
 87.6127 376.553 151.648 492.534 230 565.967 c 0
 291.119 623.249 368.644 658 457 658 c 3
 605.677 658 711.016 566.843 711.016 408.427 c 3
 711.016 284.573 650 172 602 116 c 0
438 622 m 3
 383.066 622 322.782 593.578 273.776 529 c 0
 230.302 471.711 182.511 359.783 182.511 243.139 c 3
 182.511 103.584 261.291 26 360 26 c 3
 427.365 26 492.439 66.106 540.585 139 c 0
 581.407 200.806 616.85 301.03 616.85 405.76 c 3
 616.85 546.509 543.21 622 438 622 c 3
EndSplineSet
Validated: 524289
Position2: "'cpsp' Versalabstaende 1" dx=2 dy=0 dh=5 dv=0
Substitution2: "'c2sc' Versale nach Kapitaelchen 1" o.sc
EndChar
StartChar: P
Encoding: 80 80 267
Width: 518
VWidth: 999
Flags: W
HStem: -2 33<17.7188 92 211.25 285.281> 282 34<244.568 399.269> 618 34<293.016 455.789> 618 27<135.562 190.964 325.885 396.25>
VStem: 493.664 90.008<425.295 587.947>
DStem2: 96.643 -2 178.643 -2 0.207912 0.978148<71.6351 316.965 346.579 605.654>
AnchorPoint: "mittelpunkt" 376 464 basechar 0
AnchorPoint: "top_rechts" 569 732 basechar 0
AnchorPoint: "unten_anhang" 152 -3 basechar 0
AnchorPoint: "unten_punkt" 220 -110 basechar 0
AnchorPoint: "top_akzent" 417 850 basechar 0
LayerCount: 2
Back
SplineSet
261.99 645 m 3
 301.99 645 361.955 652 400.288 652 c 3
 585.288 652 595.456 545 584.521 486 c 0
 568.768 401 500.712 282 318.712 282 c 3
 283.712 282 260.269 285 239.565 292 c 1025
288.124 554 m 2
 244.94 321 l 1
 255.385 318 295.014 316 320.014 316 c 3
 417.014 316 468.169 360 488.186 468 c 0
 511.724 595 455.986 618 386.986 618 c 3
 314.986 618 293.499 583 288.124 554 c 2
EndSplineSet
Fore
SplineSet
201 523 m 2xe8
 217 606 202 611 135 614 c 1
 130 620 133 641 140 647 c 1
 178 646 230 645 265 645 c 3xd8
 303 645 361 652 398 652 c 3
 549.56 652 583.672 574.427 583.672 514.961 c 3
 583.672 447.352 549.895 385.732 492 339.278 c 0
 450.023 305.595 391.925 282 314 282 c 3
 280 282 258 285 238 292 c 1
 205 122 l 2
 189 39 211 35 285 31 c 1
 290 25 288 4 281 -2 c 1
 233 -1 177 0 143 0 c 3
 109 0 61 -1 18 -2 c 1
 13 4 15 25 22 31 c 1
 90 34 107 39 123 122 c 2
 201 523 l 2xe8
289 554 m 2
 244 321 l 1
 254 318 292 316 316 316 c 3
 366.946 316 407.389 329.204 437 358.9 c 0
 467.569 389.557 493.664 453.004 493.664 519.908 c 3
 493.664 601.584 440.759 618 385 618 c 3xe8
 316 618 295 583 289 554 c 2
EndSplineSet
Validated: 524321
Position2: "'cpsp' Versalabstaende 1" dx=2 dy=0 dh=5 dv=0
Substitution2: "'c2sc' Versale nach Kapitaelchen 1" p.sc
EndChar
StartChar: Q
Encoding: 81 81 268
Width: 672
VWidth: 999
Flags: W
HStem: -209 57<443.886 559.29> -114 44<194.537 292.724> -10 36<287.995 433.368> -2 30<360.977 402.7> 622 36<363.341 517.661>
VStem: 87.6127 94.8982<131.96 373.125> 616.85 94.1661<277.201 519.131>
AnchorPoint: "mittelpunkt" 396 324 basechar 0
AnchorPoint: "top_rechts" 689 732 basechar 0
AnchorPoint: "komb_OR" 710 606 basechar 0
AnchorPoint: "top_akzent" 508 850 basechar 0
LayerCount: 2
Back
SplineSet
405 -2 m 1xde
 354 -13 234 -62 137 -173 c 1
 104 -153 l 1
 165 -82 295 13 402 28 c 1
 405 -2 l 1xde
104 -153 m 1
 145 -98 229 -70 272 -70 c 3
 378 -70 440 -152 524 -152 c 3
 552 -152 589 -142 615 -115 c 1
 629 -127 l 1
 581 -183 535 -209 475 -209 c 3
 350 -209 308 -114 219 -114 c 3
 204 -114 165 -127 137 -173 c 1
 104 -153 l 1
EndSplineSet
Refer: 266 79 N 1 0 0 1 0 0 3
Fore
SplineSet
405 -2 m 1xde
 354 -13 233 -62 137 -173 c 1
 104 -153 l 1
 165 -82 295 13 402 28 c 1
 405 -2 l 1xde
104 -153 m 1
 145 -98 229 -70 272 -70 c 3
 327 -70 372 -92 412 -114 c 0
 449 -134 484 -152 524 -152 c 3
 552 -152 589 -142 615 -115 c 1
 629 -127 l 1
 581 -183 535 -209 475 -209 c 3
 407 -209 364 -182 324 -155 c 0
 291 -133 260 -114 219 -114 c 3
 205 -114 165 -127 137 -173 c 1
 104 -153 l 1
EndSplineSet
Refer: 266 79 N 1 0 0 1 0 0 3
Validated: 524293
Position2: "'cpsp' Versalabstaende 1" dx=2 dy=0 dh=5 dv=0
Substitution2: "'c2sc' Versale nach Kapitaelchen 1" q.sc
EndChar
StartChar: R
Encoding: 82 82 269
Width: 563
VWidth: 999
Flags: W
HStem: -10 31<524.724 562.48> -2 33<17.875 92 206.875 271.281> 291 34<244 326.446> 618 34<291.962 449.573> 618 27<135.562 190.964 323.59 384.893>
VStem: 485.799 88.148<429.613 589.214>
AnchorPoint: "mittelpunkt" 368 468 basechar 0
AnchorPoint: "top_rechts" 659 732 basechar 0
AnchorPoint: "unten_anhang" 151 -1 basechar 0
AnchorPoint: "unten_punkt" 248 -110 basechar 0
AnchorPoint: "top_akzent" 409 850 basechar 0
LayerCount: 2
Back
SplineSet
387 654 m 3x34
 447 654 506 649 543 604 c 0
 563.632 578.947 573.947 550.094 573.947 516.64 c 0
 573.947 504.693 572.632 492.158 570 479 c 0
 549 374 453 322 409 308 c 1
 489 98 l 2
 506 55 523 21 566 21 c 1
 563 -3 l 1
 552 -8 535 -10 521 -10 c 3xb4
 463 -10 430 32 411 79 c 2
 343 253 l 2
 333 276 316 291 236 291 c 1
 193 72 l 2
 192.035 67.1726 191.535 62.8631 191.535 59.0173 c 0
 191.535 38.963 205.115 31.5173 237 29 c 2
 262 27 l 2
 266 27 269 24 268 19 c 2
 265 0 l 1
 262 -2 l 1
 217 -1 178 0 140 0 c 3
 102 0 63 -1 18 -2 c 1
 16 0 l 1
 20 19 l 2
 21 24 24 27 29 27 c 2
 54 29 l 2
 95 32 110 44 115 72 c 2
 213 574 l 2
 213.644 577.433 213.942 580.602 213.942 583.524 c 0
 213.942 607.839 193.283 615.107 179 616 c 2
 142 618 l 2
 138 618 136 620 137 624 c 2
 141 645 l 1
 144 647 l 1
 189 646 227 645 265 645 c 3x6c
 303 645 363 654 387 654 c 3x34
381 620 m 3
 313 620 296 603 291 574 c 2
 242 325 l 1
 290 325 l 2
 383 325 461 353 485 478 c 0
 488.143 494.122 489.586 508.49 489.586 521.281 c 0
 489.586 602.11 431.939 620 381 620 c 3
EndSplineSet
Fore
SplineSet
205 122 m 2xb4
 189 39 204 34 271 31 c 1
 276 25 274 4 267 -2 c 1
 225 -1 180 0 144 0 c 3
 107 0 62 -1 19 -2 c 1
 14 4 15 25 22 31 c 1
 90 34 107 39 123 122 c 2
 201 523 l 2
 217 606 202 611 135 614 c 1
 130 620 133 641 140 647 c 1
 185 646 231 645 265 645 c 3x6c
 300 645 342 652 387 652 c 3
 494.661 652 573.947 622.698 573.947 516.64 c 0
 573.947 390.957 458.923 323.884 409 308 c 1
 489 98 l 2
 506 55 523 21 566 21 c 1
 568 13 568 4 563 -3 c 1
 552 -8 535 -10 521 -10 c 3
 463 -10 430 32 412 79 c 2
 343 253 l 2
 334 276 319 291 238 291 c 1
 205 122 l 2xb4
381 618 m 3x34
 313 618 295 583 289 554 c 2
 244 325 l 1
 290 325 l 2
 405 325 485.799 388 485.799 522.948 c 0
 485.799 601.842 431.563 618 381 618 c 3x34
EndSplineSet
Validated: 524321
Position2: "'cpsp' Versalabstaende 1" dx=2 dy=0 dh=5 dv=0
Substitution2: "'ss02' Stilgruppe 2 1" R.alt
Substitution2: "'c2sc' Versale nach Kapitaelchen 1" r.sc
AlternateSubs2: "LinLibertine-'aalt' Alle Alternativen zeigen 1" R.alt r.sc
EndChar
StartChar: S
Encoding: 83 83 270
Width: 464
VWidth: 999
Flags: W
HStem: -10 36<148.495 303.608> 624 34<283.017 410.522>
VStem: 57 32<91.4457 167.819> 139.655 75.4295<435.255 539.637> 377.376 87.4914<133.418 246.448> 461 32<498.236 565.504>
AnchorPoint: "mittelpunkt" 236 345 basechar 0
AnchorPoint: "top_rechts" 481 732 basechar 0
AnchorPoint: "unten_anhang" 224 2 basechar 0
AnchorPoint: "unten_punkt" 234 -110 basechar 0
AnchorPoint: "top_akzent" 232 850 basechar 0
LayerCount: 2
Fore
SplineSet
501 631 m 1xf8
 501 578 499 550 493 502 c 1
 483 495 471 494 461 496 c 1xf4
 455 562 436 624 343 624 c 3
 273 624 215.085 561.04 215.085 492.398 c 3
 215.085 421.924 292.311 388.21 341 368 c 0
 404.846 340.887 464.867 301.536 464.867 221.178 c 3
 464.867 137.995 410.215 63.7701 340 23 c 0
 302 1 259 -10 215 -10 c 3
 130 -10 107 13 47 13 c 1
 45 62 46 88 57 165 c 1
 67 170 78 172 89 168 c 1
 91 68 140 26 230 26 c 3
 313.255 26 377.376 81.7892 377.376 181.721 c 3
 377.376 253.727 321.443 277.793 274 298 c 0
 204.864 328.136 139.655 369.272 139.655 451.35 c 3
 139.655 512.359 166.634 557.985 200 591.519 c 0
 242.084 633.816 300.723 658 359 658 c 3
 453 658 447 639 501 631 c 1xf8
EndSplineSet
Validated: 524321
Position2: "'cpsp' Versalabstaende 1" dx=2 dy=0 dh=5 dv=0
Substitution2: "'c2sc' Versale nach Kapitaelchen 1" s.sc
EndChar
StartChar: T
Encoding: 84 84 271
Width: 572
VWidth: 999
Flags: W
HStem: -2 33<162.719 245.375 363 435.281> 606 39<203.874 355.91 462.338 596.513> 633 20G<662.5 679.5>
VStem: 632 34<505.785 567.416>
DStem2: 251.643 -2 333.643 -2 0.207912 0.978148<69.3087 598.863>
AnchorPoint: "mittelpunkt" 350 285 basechar 0
AnchorPoint: "top_rechts" 619 732 basechar 0
AnchorPoint: "unten_anhang" 308 3 basechar 0
AnchorPoint: "unten_punkt" 286 -110 basechar 0
AnchorPoint: "top_akzent" 446 850 basechar 0
LayerCount: 2
Fore
SplineSet
360 122 m 2xd0
 344 39 359 34 435 31 c 1
 440 25 438 4 431 -2 c 1
 383 -1 335 0 298 0 c 3
 259 0 210 -1 163 -2 c 1
 158 4 160 25 167 31 c 1
 244 34 262 39 278 122 c 2
 353 507 l 2
 365 568 363 606 327 606 c 2
 280 606 l 2xd0
 217 606 168 580 133 500 c 1
 121 500 110 501 101 505 c 1
 121 553 140 605 153 650 c 1
 153 651 156 653 158 653 c 1xb0
 194 650 306 645 380 645 c 2
 462 645 l 2xd0
 538 645 646 650 679 653 c 1xb0
 680 653 681 651 681 650 c 1
 673 605 668 554 666 508 c 1
 657 504 643 503 632 503 c 1
 631 580 591 606 519 606 c 2
 498 606 l 2
 463 606 446 568 434 504 c 2
 360 122 l 2xd0
EndSplineSet
Validated: 33
Position2: "'cpsp' Versalabstaende 1" dx=2 dy=0 dh=5 dv=0
Substitution2: "'c2sc' Versale nach Kapitaelchen 1" t.sc
EndChar
StartChar: U
Encoding: 85 85 272
Width: 634
VWidth: 999
Flags: W
HStem: -10 41<260.843 424.46> 614 33<128.719 185.155 298.709 377.281 535.719 601.958 685.947 749.438>
VStem: 121.05 82.8234<85.2607 318.417>
DStem2: 497.996 -10 544.17 -10 0.207912 0.978148<139.998 613.126>
AnchorPoint: "mittelpunkt" 336 321 basechar 0
AnchorPoint: "unten_anhang" 328 4 basechar 0
AnchorPoint: "unten_punkt" 328 -110 basechar 0
AnchorPoint: "top_akzent" 346 850 basechar 0
LayerCount: 2
Fore
SplineSet
267 523 m 0
 241.743 408.6 203.873 230 203.873 164.285 c 3
 203.873 83.5287 253.694 31 334 31 c 3
 496 31 537 165 559 277 c 2
 607 523 l 2
 623 604 607 607 536 614 c 1
 531 620 533 641 540 647 c 1
 584 646 630 645 651 645 c 3
 673 645 713 646 750 647 c 1
 755 641 752 620 745 614 c 1
 686 607 670 603 654 523 c 2
 609 295 l 2
 574 117 503 -10 306 -10 c 3
 221.358 -10 121.05 19.093 121.05 158.46 c 3
 121.05 230.061 159.586 406.928 185 523 c 0
 203.079 605.572 186 611 129 614 c 1
 124 620 126 641 133 647 c 1
 170 646 210 645 247 645 c 3
 285 645 332 646 377 647 c 1
 382 641 380 620 373 614 c 1
 298 611 285.223 605.54 267 523 c 0
EndSplineSet
Validated: 524321
Position2: "'cpsp' Versalabstaende 1" dx=2 dy=0 dh=5 dv=0
Substitution2: "'c2sc' Versale nach Kapitaelchen 1" u.sc
EndChar
StartChar: V
Encoding: 86 86 273
Width: 597
VWidth: 999
Flags: HW
HStem: 614 33<110.625 172.08 282.651 344.375 511.625 570.717 664.109 722.375>
DStem2: 269 568 187.999 552.004 0.148073 -0.988976<-28.8043 446.73> 340 127 314 11 0.488258 0.8727<-3.48949 520.262>
AnchorPoint: "unten_punkt" 275 -110 basechar 0
AnchorPoint: "unten_anhang" 293 3 basechar 0
AnchorPoint: "top_akzent" 441 850 basechar 0
LayerCount: 2
Back
SplineSet
617 553 m 2
 635.461 586.022 668 612 721 618 c 1
 727 624 727 641 721 647 c 1
 684 646 653 645 627 645 c 3
 601 645 557 646 517 647 c 1
 511 641 511 624 517 618 c 1
 567.333 614 594.064 600.234 573 561 c 2
 340 127 l 1
 338 125 336 123.5 333 127 c 1
 269 572 l 2
 264.22 605.239 306 616 341 618 c 1
 347 624 347 641 341 647 c 1
 308 646 259 645 220 645 c 3
 180 645 154 646 114 647 c 1
 108 641 108 624 114 618 c 1
 156 612.5 179.679 611.988 187.999 556.004 c 2
 269 11 l 2
 271.225 -3.96875 277 -12 287 -12 c 3
 297 -12 305.705 -3.83887 314 11 c 2
 617 553 l 2
EndSplineSet
Fore
SplineSet
615 549 m 2
 314 11 l 2
 305.7 -3.83496 297 -12 287 -12 c 3
 277 -12 271.24 -3.96484 269 11 c 2
 187.999 552.004 l 2
 180.328 603.616 173 607.333 114 614 c 1
 108 620 108 641 114 647 c 1
 146 646 180 645 220 645 c 3
 259 645 308 646 341 647 c 5
 347 641 347 620 341 614 c 1
 306 612 264.22 601.239 269 568 c 2
 333 127 l 1
 336 123.5 338 125 340 127 c 1
 571 557 l 2
 592.064 596.234 565.333 610 515 614 c 1
 509 620 509 641 515 647 c 1
 555 646 599 645 625 645 c 3
 651 645 690 646 719 647 c 1
 725 641 725 620 719 614 c 1
 666 608 633.461 582.021 615 549 c 2
EndSplineSet
Validated: 524321
Position2: "'cpsp' Versalabstaende 1" dx=2 dy=0 dh=5 dv=0
Substitution2: "'c2sc' Versale nach Kapitaelchen 1" v.sc
AlternateSubs2: "LinLibertine-'aalt' Alle Alternativen zeigen 1" V.alt
EndChar
StartChar: W
Encoding: 87 87 274
Width: 909
VWidth: 999
Flags: W
HStem: -10 21G<285.75 295 613.375 621.75> 618 29<135.489 187.444 312.163 370.511 821.489 881.499 987.204 1039.51>
DStem2: 296 572 216.999 546.004 0.111658 -0.993747<-30.0796 421.952> 337 152 312 12 0.479936 0.877303<0 349.906> 626 486 549.5 434.5 0.113504 -0.993538<39.4386 342.229> 665 146 639 11 0.485506 0.874233<0 501.679>
AnchorPoint: "unten_punkt" 439 -107 basechar 0
AnchorPoint: "unten_anhang" 290 0 basechar 0
AnchorPoint: "top_akzent" 610 850 basechar 0
LayerCount: 2
Back
SplineSet
216.999 546.004 m 6
 210.847 599.983 187.25 610 139 618 c 5
 133 624 133 641 139 647 c 5
 175 646 214 645 247 645 c 7
 284 645 334 646 367 647 c 5
 373 641 373 624 367 618 c 5
 332 616 292.603 605.409 296 572 c 6
 330 218 l 5
 337 152 l 5
 375 216 l 21
 572 583.5 l 5
 615 583.667 l 5
 615 583.667 622.104 519.971 626 486 c 6
 658 207 l 5
 665 146 l 5
 702 215 l 5
 889 561 l 6
 910.47 599.893 875.333 614 825 618 c 5
 819 624 819 641 825 647 c 5
 865 646 912 645 938 645 c 7
 964 645 1003 646 1036 647 c 5
 1042 641 1042 624 1036 618 c 5
 983 612 958.469 586.256 940 553 c 6
 639 11 l 6
 628.955 -7.08688 625.5 -10 618 -10 c 7
 608.75 -10 603.085 -5.62166 601 12 c 6
 559 367 l 6
 554.918 401.506 552 412.5 549.5 434.5 c 5
 549 436.818 545.527 437 544.5 437 c 5
 538.333 425.667 522.899 397.214 508 370 c 6
 312 12 l 6
 302.229 -5.84627 299 -10 291 -10 c 7
 280.5 -10 278.874 -4.67969 277 12 c 6
 216.999 546.004 l 6
EndSplineSet
Fore
SplineSet
216.999 546.004 m 2
 210.847 599.983 187.25 610 139 618 c 1
 133 624 133 641 139 647 c 1
 175 646 214 645 247 645 c 3
 284 645 334 646 367 647 c 1
 373 641 373 624 367 618 c 1
 332 616 292.603 605.409 296 572 c 2
 330 218 l 1
 337 152 l 1
 375 216 l 17
 572 583.5 l 1
 615 583.667 l 1
 615 583.667 622.104 519.971 626 486 c 2
 658 207 l 1
 665 146 l 1
 702 215 l 1
 889 561 l 2
 910.47 599.893 875.333 614 825 618 c 1
 819 624 819 641 825 647 c 1
 865 646 912 645 938 645 c 3
 964 645 1003 646 1036 647 c 1
 1042 641 1042 624 1036 618 c 1
 983 612 958.469 586.256 940 553 c 2
 639 11 l 2
 628.955 -7.08688 625.5 -10 618 -10 c 3
 608.75 -10 603.085 -5.62166 601 12 c 2
 559 367 l 2
 554.918 401.506 552 412.5 549.5 434.5 c 1
 549 436.818 545.527 437 544.5 437 c 1
 538.333 425.667 522.899 397.214 508 370 c 2
 312 12 l 2
 302.229 -5.84627 299 -10 291 -10 c 3
 280.5 -10 278.874 -4.67969 277 12 c 2
 216.999 546.004 l 2
EndSplineSet
Validated: 524321
Position2: "'cpsp' Versalabstaende 1" dx=2 dy=0 dh=5 dv=0
Substitution2: "'c2sc' Versale nach Kapitaelchen 1" w.sc
AlternateSubs2: "LinLibertine-'aalt' Alle Alternativen zeigen 1" W.alt
EndChar
StartChar: X
Encoding: 88 88 275
Width: 633
VWidth: 999
Flags: W
HStem: -2 33<8.71875 74.5072 156.969 200.281 408.875 457.91 572.242 620.969> 614 33<135.031 188.126 298.09 347.125 532.875 576.609 661.25 725.281>
VStem: 326 95<289.031 372.547>
DStem2: 131 93 171 73 0.669735 0.7426<-18.6652 279.498 393.108 675.305> 310 560 221 547 0.437848 -0.899049<-44.2079 194.048 276.524 530.803>
AnchorPoint: "mittelpunkt" 326 325 basechar 0
AnchorPoint: "top_rechts" 689 732 basechar 0
AnchorPoint: "unten_anhang" 105 0 basechar 0
AnchorPoint: "unten_punkt" 290 -110 basechar 0
AnchorPoint: "top_akzent" 464 850 basechar 0
LayerCount: 2
Fore
SplineSet
536 102 m 2
 565 44 579 34 619 31 c 1
 624 25 624 4 617 -2 c 1
 588 -1 556 0 519 0 c 3
 481 0 445 -1 410 -2 c 5
 405 4 406 25 413 31 c 1
 467 34 465 45 446 85 c 2
 362 261 l 2
 358 269 354 272 350 272 c 3
 347 272 340 266 333 258 c 2
 171 73 l 2
 141 39 158 34 200 31 c 1
 205 25 203 4 196 -2 c 1
 158 -1 118 0 96 0 c 3
 74 0 38 -1 9 -2 c 1
 4 4 6 25 13 31 c 1
 57 35 89 47 131 93 c 2
 312 291 l 2
 319 299 325 308 326 314 c 0
 328 324 324 332 318 344 c 2
 221 547 l 2
 193 606 177 611 137 614 c 1
 132 620 132 641 139 647 c 1
 168 646 200 645 237 645 c 3
 275 645 311 646 346 647 c 1
 351 641 350 620 343 614 c 1
 289 611 291 600 310 560 c 2
 384 396 l 2
 387 389 391 385 394 385 c 3
 398 385 404 389 411 397 c 2
 563 572 l 2
 592 605 576 611 534 614 c 1
 529 620 530 641 537 647 c 1
 575 646 616 645 638 645 c 3
 660 645 696 646 725 647 c 1
 730 641 728 620 721 614 c 1
 677 610 645 597 603 552 c 2
 437 375 l 2
 426 363 423 354 421 345 c 0
 419 335 423 325 430 312 c 2
 536 102 l 2
EndSplineSet
Validated: 33
Position2: "'cpsp' Versalabstaende 1" dx=2 dy=0 dh=5 dv=0
Substitution2: "'c2sc' Versale nach Kapitaelchen 1" x.sc
EndChar
StartChar: Y
Encoding: 89 89 276
Width: 551
VWidth: 999
Flags: W
HStem: -2 33<150.719 233.375 350.5 423.281> 614 33<123.875 173.428 280.632 335.281 497.875 539.619 608.408 670.125>
DStem2: 286 559 202 547 0.351588 -0.936155<-41.5941 221.972> 239.643 -2 320.643 -2 0.207912 0.978148<69.3087 326.693> 379 352 405 334 0.587949 0.808898<-8.79957 291.975>
AnchorPoint: "unten_anhang" 296 1 basechar 0
AnchorPoint: "unten_punkt" 275 -110 basechar 0
AnchorPoint: "top_akzent" 445 850 basechar 0
LayerCount: 2
Back
SplineSet
336 76 m 2
 330 46 341.126 33.4297 380 30 c 2
 414 27 l 17
 417 22 414 2 411 -2 c 1
 367 -1 322 0 284 0 c 3
 245 0 209 -1 164 -2 c 1
 160 7 162 23 166 27 c 1
 197 30 l 2
 238.003 33.9678 254 48 259 76 c 2
 294 259 l 2
 295.951 269.201 297.309 278.953 297.309 284.049 c 3
 297.309 288.06 296.427 295.536 294 302 c 2
 202 547 l 2
 182 600 174.93 611.476 141 616 c 2
 126 618 l 1
 123 623 121 642 124 647 c 1
 152 646 191 645 228 645 c 3
 266 645 296 646 335 647 c 1
 337 643 336 623 333 618 c 1
 300 615 l 2
 266.098 611.918 269.853 602.425 279 576 c 2
 364 335 l 1
 368 335 l 1
 526 576 l 2
 546 605 544.977 612.752 521 615 c 2
 489 618 l 17
 487 622 488 643 491 647 c 1
 529 646 560 645 582 645 c 3
 604 645 633 646 662 647 c 1
 665 643 661 623 658 618 c 1
 632 616 l 2
 597 613 584 595 563 565 c 2
 388 310 l 2
 381 299 377.389 285.121 374 268 c 2
 336 76 l 2
EndSplineSet
Fore
SplineSet
347 122 m 2
 331 39 347 34 423 31 c 1
 428 25 426 4 419 -2 c 1
 371 -1 323 0 286 0 c 3
 249 0 198 -1 151 -2 c 1
 146 4 148 25 155 31 c 1
 232 34 250 39 266 122 c 2
 290 249 l 2
 297 286 296 297 285 326 c 2
 202 547 l 2
 180 605 165 611 125 614 c 1
 120 620 121 641 128 647 c 1
 157 646 188 645 225 645 c 3
 263 645 300 646 335 647 c 1
 340 641 338 620 331 614 c 1
 277 611 271 602 286 559 c 2
 358 354 l 2
 364 338 368 337 379 352 c 2
 525 561 l 2
 553 601 541 611 499 614 c 1
 494 620 495 641 502 647 c 1
 533 646 567 645 589 645 c 3
 611 645 642 646 669 647 c 1
 674 641 673 620 666 614 c 1
 622 610 599 601 562 550 c 2
 405 334 l 2
 384 304 380 288 374 258 c 2
 347 122 l 2
EndSplineSet
Validated: 33
Position2: "'cpsp' Versalabstaende 1" dx=2 dy=0 dh=5 dv=0
Substitution2: "'c2sc' Versale nach Kapitaelchen 1" y.sc
EndChar
StartChar: Z
Encoding: 90 90 277
Width: 578
VWidth: 999
Flags: W
HStem: 0 38<166.913 448.124> 602 43<252.478 543.045> 633 20G<199 223.5>
DStem2: 54 38 178 72 0.673213 0.739448<0 108.62>
AnchorPoint: "mittelpunkt" 345 321 basechar 0
AnchorPoint: "top_rechts" 619 732 basechar 0
AnchorPoint: "unten_anhang" 287 4 basechar 0
AnchorPoint: "unten_punkt" 267 -110 basechar 0
AnchorPoint: "top_akzent" 450 850 basechar 0
LayerCount: 2
Fore
SplineSet
528 -2 m 1xc0
 528 -2 433 0 407 0 c 2
 57 0 l 2
 44 0 39 5 41 15 c 0
 42 22 47 30 54 38 c 0
 181 190 415 456 532 579 c 0
 538 586 542 592 543 597 c 0
 544 603 542 606 536 606 c 2
 332 602 l 2xc0
 260 601 217 565 183 496 c 1
 172 496 164 498 155 501 c 1
 171 542 192 599 206 653 c 1xa0
 241 650 333 645 378 645 c 2
 590 645 l 18
 619 645 649 647 661 647 c 3
 669 647 672 643 671 636 c 0
 669 625 665 618 639 591 c 0
 496 439 269 178 178 72 c 0
 171 63 168 57 167 52 c 0
 165 43 172 38 188 38 c 2
 374 42 l 2
 472.781 44.1243 513 99 557 170 c 1
 569 170 580 167 586 165 c 1
 564 113 544 54 528 -2 c 1xc0
EndSplineSet
Validated: 524321
Position2: "'cpsp' Versalabstaende 1" dx=2 dy=0 dh=5 dv=0
Substitution2: "'c2sc' Versale nach Kapitaelchen 1" z.sc
EndChar
StartChar: bracketleft
Encoding: 91 91 278
Width: 338
VWidth: 999
Flags: MW
HStem: -193 30<182.02 272.656> 673 30<336.893 440.831>
DStem2: 64 -193 156 -50 0.190635 0.981661<73.9534 870.768>
LayerCount: 2
Fore
SplineSet
64 -193 m 5
 238 703 l 5
 442 703 l 5
 447 697 443 679 436 673 c 5
 303 663 292 648 275 561 c 6
 156 -50 l 6
 139 -137 143 -152 273 -163 c 5
 278 -169 275 -187 268 -193 c 5
 64 -193 l 5
EndSplineSet
Validated: 33
Substitution2: "'case' Versalformen 1" bracketleft.sc
Substitution2: "'c2sc' Versale nach Kapitaelchen 1" bracketleft.sc
AlternateSubs2: "LinLibertine-'aalt' Alle Alternativen zeigen 1" bracketleft.sc
EndChar
StartChar: backslash
Encoding: 92 92 279
Width: 321
VWidth: 999
Flags: W
HStem: 678 20G<134 181.566>
VStem: 134 177
DStem2: 178 698 134 698 0.175517 -0.984476<0 750.04>
LayerCount: 2
Fore
SplineSet
178 698 m 5
 311 -48 l 1
 267 -48 l 1
 134 698 l 5
 178 698 l 5
EndSplineSet
Validated: 1
EndChar
StartChar: asciicircum
Encoding: 94 94 281
Width: 518
VWidth: 999
Flags: HMW
DStem2: 173 347 217 347 0.510827 0.859684<22.6979 309.259> 395 650 363 593 0.231832 -0.972756<47.7396 301.414>
LayerCount: 2
Fore
SplineSet
363 593 m 1
 217 347 l 1
 173 347 l 1
 353 650 l 1
 395 650 l 1
 467 347 l 1
 423 347 l 1
 363 593 l 1
EndSplineSet
Validated: 1
EndChar
StartChar: underscore
Encoding: 95 95 282
Width: 486
VWidth: 999
Flags: W
HStem: -154 44<-15 455>
LayerCount: 2
Fore
SplineSet
463 -110 m 1
 455 -154 l 1
 -22 -154 l 1
 -15 -110 l 1
 463 -110 l 1
EndSplineSet
Validated: 1
EndChar
StartChar: grave
Encoding: 96 96 32
Width: 392
VWidth: 999
Flags: HMW
LayerCount: 2
Fore
SplineSet
301 698 m 1
 349 573 l 2
 351 567 352 562 352 558 c 0
 352 555 352 552 351 549 c 0
 350 544 342 538 335 538 c 0
 328 538 322 543 309 558 c 2
 214 667 l 1
 218 677 l 1
 229 683 251 701 287 701 c 0
 292 701 298 700 301 698 c 1
EndSplineSet
Validated: 1
Substitution2: "'case' Versalformen 1" uni0358
EndChar
StartChar: a
Encoding: 97 97 283
Width: 473
VWidth: 999
Flags: W
HStem: -10 57<167.188 234.267> 6 28<403.23 466.331> 395 44<271.267 391.459>
VStem: 74 81<54.7974 227.465> 320.246 80.373<22.481 158.551>
LayerCount: 2
Fore
SplineSet
356 219 m 1xb8
 378 280.5 392 379 392 379 c 1
 373 391 354 395 333 395 c 3
 287.955 395 233.887 364.469 203.5 313.5 c 0
 168.325 254.5 155 196.253 155 141 c 3
 155 85 165 47 199 47 c 3
 231 47 307 129 356 219 c 1xb8
336 123 m 1
 334 125 l 1
 285 47.5 231 -10 172 -10 c 3xb8
 88 -10 74 69 74 125 c 3
 74 238.812 161.5 361.5 241.5 404 c 0
 278.436 423.622 326 439 378 439 c 3
 415 439 451 434 476 429 c 1
 456.97 370 l 1
 440.5 300.5 417.91 178.99 417.91 178.99 c 2
 402.617 104.203 400.619 82.4033 400.619 63.7734 c 3
 400.619 45.4346 407.02 34 423.006 34 c 2
 463.006 34 l 1
 469.006 25 469.659 14 464.006 6 c 1x78
 417.006 -3 374.006 -10 342.006 -10 c 3
 323.584 -10 320.246 14.1357 320.246 30.8262 c 3
 320.246 42.8262 323.785 65.4131 329 90 c 2
 336 123 l 1
EndSplineSet
Validated: 524833
Substitution2: "'ss04' Stilgruppe 4 lookup 31-1" a.str
Substitution2: "'sinf' Wissenschaftliche Indices 1" a.inferior
Substitution2: "'sups' Hochgestellte 1" a.superior
Substitution2: "'smcp' Gemeine nach Kapitaelchen 1" a.sc
AlternateSubs2: "LinLibertine-'aalt' Alle Alternativen zeigen 1" a.sc
EndChar
StartChar: b
Encoding: 98 98 284
Width: 470
VWidth: 999
Flags: W
HStem: -10 46<196.742 299.534> 390 49<309.758 396.14> 648 28<146.239 189> 669 20G<260.333 278.624>
VStem: 207 85.495<562.588 676.752> 410.5 80.275<201.333 377.222>
AnchorPoint: "unten_punkt" 214 -108 basechar 0
LayerCount: 2
Back
SplineSet
111 161 m 3
 111 234.667 145.5 324.5 205.101 380.5 c 0
 242.939 416.053 293.459 439 357 439 c 3
 480 439 498 349 498 277 c 3
 498 158.838 430.107 53.8955 343 10 c 0
 313.632 -4.79883 280.155 -10 251 -10 c 3
 141 -10 111 91.999 111 161 c 3
194 164 m 3
 194 60.6621 230.665 29 268 29 c 3
 309.003 29 344 44 372 87 c 0
 408.479 143.022 415 230.433 415 275 c 3
 415 307.335 413.324 336.57 400.5 362 c 0
 386.311 390.136 369 406 339 406 c 3
 289.479 406 254.581 374.134 231.451 331 c 0
 205.072 281.806 194 211.954 194 164 c 3
158.857 72 m 2
 150.438 35.124 151.013 -10 113 -10 c 3
 81.166 -10 72.1172 0.55957 72.1172 17.2344 c 3
 72.1172 27.04 80.2998 51.9395 84.8223 72 c 2
 198.006 574.009 l 2
 201.714 590.453 207 615.89 207 625 c 3
 207 635.05 201.476 644.064 189 645 c 2
 149 648 l 1
 144.637 654.271 144.091 667.546 148 676 c 1
 194 682 248.667 689 272 689 c 3
 285.248 689 292.495 681.507 292.495 667.854 c 3
 292.495 650.794 282.111 611.919 273.279 573.229 c 2
 158.857 72 l 2
EndSplineSet
Fore
SplineSet
410.5 303.5 m 3xcc
 410.5 371.5 385.5 390 355.5 390 c 3
 307.5 390 260.737 353.817 227 301.5 c 0
 192.5 248 180.426 193.284 175 146 c 0
 168 85 198.917 36 236.5 36 c 3
 277.549 36 324.558 57.7295 360.775 113 c 0
 394.357 164.248 410.5 234.383 410.5 303.5 c 3xcc
273.278 573.227 m 2
 225 358 l 1
 227 357 l 1
 262.5 391.5 323 439 392 439 c 3
 463.475 439 490.775 386.572 490.775 326.041 c 0
 490.775 210.652 441.553 128.591 379.5 68 c 0
 330.569 20.2217 271.912 -10 202 -10 c 3
 102.48 -10 82.6925 60.1812 112.049 191 c 2
 197.998 574.007 l 2
 201.647 590.266 207 615.89 207 625 c 3
 207 635.05 201.476 644.064 189 645 c 2
 149 648 l 1
 144.637 654.271 144.091 667.546 148 676 c 1xec
 194 682 248.667 689 272 689 c 3xdc
 285.248 689 292.495 681.507 292.495 667.854 c 3
 292.495 650.794 281.964 611.95 273.278 573.227 c 2
EndSplineSet
Validated: 524321
Substitution2: "'sinf' Wissenschaftliche Indices 1" b.inferior
Substitution2: "'sups' Hochgestellte 1" b.superior
Substitution2: "'smcp' Gemeine nach Kapitaelchen 1" b.sc
AlternateSubs2: "LinLibertine-'aalt' Alle Alternativen zeigen 1" b.sc
EndChar
StartChar: c
Encoding: 99 99 285
Width: 393
VWidth: 999
Flags: HW
HStem: -10 60<188.909 291.142> 402 37<250.195 326.608>
VStem: 83 83<72.9091 269.629> 338.868 80.604<336.642 395.641>
AnchorPoint: "unten_punkt" 163.01 -113 basechar 0
AnchorPoint: "unten_anhang" 211.593 -2 basechar 0
AnchorPoint: "ogonek" 339.545 42 basechar 0
AnchorPoint: "top_akzent" 343.227 645 basechar 0
LayerCount: 2
Back
SplineSet
246.338867188 436.27734375 m 0
 312.221679688 455.98828125 349.189453125 439.575195312 378.716796875 420.78515625 c 0
 405.713867188 403.604492188 426.421875 369.090820312 413 348 c 0
 401.189453125 329.439453125 374.134765625 324.134765625 355.5546875 335.958007812 c 0
 344.586914062 342.9375 334.462890625 362.418945312 327.407226562 381.1328125 c 0
 322.295898438 394.6875 316.536132812 402.997070312 308.8671875 407.876953125 c 0
 285.2421875 422.911132812 251.330078125 397.861328125 184.137695312 334.807617188 c 1024
506.698242188 407.125976562 m 0
 528.322265625 385.849609375 537.46484375 362.826171875 518.528320312 343.580078125 c 0
 504.5 329.321289062 479.802734375 324.1640625 466.250976562 337.498046875 c 0
 455.786132812 347.793945312 457.357421875 358.874023438 443.336914062 372.66796875 c 1024
886.749 91 m 1
 819.319 9 762.281 -10 702.281 -10 c 3
 576.281 -10 523.198 79 550.618 208 c 0
 580.802 350 705.719 439 804.719 439 c 3
 900.719 439 949.217 399 937.526 344 c 0
 930.938 313 900.174 300 879.174 300 c 3
 858.174 300 846.087 309 848.825 336 c 0
 852.265 371 851.705 406 792.705 406 c 3
 726.705 406 664.676 340 641.295 230 c 0
 616.426 113 661.696 39 734.696 39 c 3
 777.696 39 825.373 61 868.725 105 c 1
 877.513 104 884.662 100 886.749 91 c 1
-263 199 m 1
 -264 191 -264 170 -264 165 c 3
 -264 74 -233 50 -188 50 c 3
 -146.328 50 -112.333 64.333 -60 117 c 1
 -48 117 -42 112 -37 101 c 1
 -96 25 -157 -10 -224 -10 c 3
 -307 -10 -347 57 -347 142 c 3
 -347 269 -275 439 -101 439 c 3
 -67.5342 439 -43.9043 429.092 -29 415.25 c 0
 -11.8379 399.312 -6 378.38 -6 365 c 3
 -6 331.477 -12.5 300.5 -56 271.105 c 0
 -92.7168 246.295 -154.936 220.116 -263 199 c 1
-75 365 m 3
 -75 391 -83 408 -119 408 c 3
 -165.903 408 -221.97 377.577 -257.247 236.438 c 1
 -205.299 243.125 -139.667 264.333 -102.333 299.225 c 0
 -84.6826 315.72 -75 338.209 -75 365 c 3
EndSplineSet
Fore
SplineSet
395.146 412.996 m 0
 409.978 398.403 419.472 383.065 419.472 368.453 c 3
 419.472 359.627 416.008 351.065 408.164 343.093 c 0
 398.928 333.705 385.488 327.904 372.989 327.904 c 3
 364.604 327.904 356.645 330.515 350.659 336.402 c 0
 345.494 341.483 341.897 348.749 338.868 356.955 c 0
 329.633 381.975 322.038 402 298.75 402 c 3
 269.5 402 246.433 387.038 220.969 353 c 0
 187.979 308.9 166 241.85 166 171 c 3
 166 92.9422 183.951 50 240 50 c 3
 293 50 336 81.5 375 125.5 c 1
 384 125.5 395 118.5 398 108.5 c 1
 350 41.5 281 -10 209 -10 c 3
 168.38 -10 133.609 9.14453 113 38 c 0
 89.4688 70.9473 83 115.947 83 149 c 3
 83 238.774 116.363 318.216 166.088 369.5 c 0
 208.75 413.5 261.5 439 312 439 c 3
 350.647 439 377.725 430.275 395.146 412.996 c 0
EndSplineSet
Validated: 524289
Substitution2: "'sinf' Wissenschaftliche Indices 1" c.inferior
Substitution2: "'sups' Hochgestellte 1" c.superior
Substitution2: "'smcp' Gemeine nach Kapitaelchen 1" c.sc
AlternateSubs2: "LinLibertine-'aalt' Alle Alternativen zeigen 1" c.sc
EndChar
StartChar: d
Encoding: 100 100 286
Width: 481
VWidth: 999
Flags: W
HStem: -10 60<170.771 241.771 370.503 439.019> 402.211 36.7895<272.399 403.681> 648 28<392.239 435> 669 20G<506.333 524.624>
VStem: 80 80<54.8642 248.18> 328 78<25.5 146.52> 452 86.495<564.397 676.752>
DStem2: 316.744 -10 388.368 -10 0.207912 0.978148<91.3673 137.362 154.94 410.242 448.826 648.878>
LayerCount: 2
Back
SplineSet
519.278 573.229 m 2xde
 416 120 l 2
 411.684 101.058 406 73 406 64 c 3
 406 52 415 50 418 50 c 3
 428 50 447 66 474 103 c 1
 487 103 491.759 95.5137 497 87 c 1
 471 30 431 -10 369 -10 c 3
 335 -10 328 16 328 35 c 3
 328 47 331.67 66.085 338 90 c 2
 347 124 l 1
 344 126 l 1
 259.333 6.33301 218 -10 183 -10 c 3
 95 -10 80 79 80 134 c 3
 80 210.194 109.631 285.934 156.333 342 c 0
 205.863 401.46 274.266 439 335 439 c 3
 367.25 439 392.333 435.333 412.5 428.5 c 9
 444.005 574.016 l 2
 447.681 590.992 452 617.305 452 625 c 3
 452 635.05 447.476 644.064 435 645 c 2
 395 648 l 1
 390.637 654.272 390.091 667.546 394 676 c 1xee
 440 682 494.667 689 518 689 c 3
 531.248 689 538.495 681.507 538.495 667.854 c 3
 538.495 650.794 528.096 611.922 519.278 573.229 c 2xde
358 192.333 m 1
 370.333 237 386.75 303 404.5 386 c 1
 386.9 396.232 360.715 402.211 335.462 402.211 c 3
 283.033 402.211 237.327 367.865 205.667 316.333 c 0
 175.077 266.545 160 202.01 160 150 c 3
 160 94 168 47 200 47 c 3
 239 47 306.044 104.007 358 192.333 c 1
364 219 m 1
 386 280.5 400 380 400 380 c 1
 381 392 362 396 341 396 c 3
 295.955078125 396 241.88671875 364.46875 211.5 313.5 c 0
 176.325195312 254.5 163 196.252929688 163 141 c 3
 163 85 173 47 207 47 c 3
 239 47 315 129 364 219 c 1
484 429 m 1
 464.969726562 370 l 1
 448.5 300.5 427 191 416 120 c 0
 413.048828125 100.948242188 409 71.75390625 409 64 c 3
 409 53.25 416.223632812 50 421 50 c 3
 431 50 447 66 474 103 c 1
 487 103 491.758789062 95.513671875 497 87 c 1
 471 30 431 -10 369 -10 c 3
 337.5 -10 331 14 331 33 c 3
 331 45 333.797851562 65.83984375 338 90 c 2
 346 136 l 1
 344 138 l 1
 284 49 233 -10 180 -10 c 3
 96 -10 82 69 82 125 c 3
 82 238.811523438 169.5 361.5 249.5 404 c 0
 286.435546875 423.622070312 334 439 386 439 c 3
 423 439 459 434 484 429 c 1
EndSplineSet
Fore
SplineSet
327.246 30.8262 m 7xa7
 327.246 42.8262 331.67 66.085 338 90 c 6
 347 124 l 5
 344 126 l 5
 259.333 6.33301 218 -10 183 -10 c 7
 95 -10 80 79 80 134 c 7
 80 279.001 191.983 439 310 439 c 7
 357.408 439 384.333 419 404.001 393.173 c 13
 444.005 574.016 l 6
 447.757 590.976 452 617.305 452 625 c 7
 452 635.05 447.476 644.064 435 645 c 6
 395 648 l 5
 390.637 654.272 390.091 667.546 394 676 c 5xb7
 440 682 494.667 689 518 689 c 7
 531.248 689 538.495 681.507 538.495 667.854 c 7
 538.495 650.794 528.05 611.926 519.278 573.229 c 6
 429.91 178.99 l 6
 418.544 128.851 409.936 90.4993 409.936 65.8703 c 7
 409.936 45.0154 416.108 34 432.006 34 c 6
 472.006 34 l 5
 478.006 25 478.659 14 473.006 6 c 5x6f
 426.006 -3 381.006 -10 349.006 -10 c 7
 330.584 -10 327.246 14.1353 327.246 30.8262 c 7xa7
358 192.333 m 5
 370.333 237 377.25 263.001 395 346.001 c 5
 367.333 387.667 342 402 307 402 c 7
 220 402 160 253.501 160 150 c 7
 160 94 168 47 200 47 c 7
 239 47 306.044 104.007 358 192.333 c 5
EndSplineSet
Validated: 8913441
Substitution2: "'ss04' Stilgruppe 4 lookup 31-1" d.str
Substitution2: "'sinf' Wissenschaftliche Indices 1" d.inferior
Substitution2: "'sups' Hochgestellte 1" d.superior
Substitution2: "'smcp' Gemeine nach Kapitaelchen 1" d.sc
AlternateSubs2: "LinLibertine-'aalt' Alle Alternativen zeigen 1" d.sc
EndChar
StartChar: e
Encoding: 101 101 287
Width: 401
VWidth: 999
Flags: W
HStem: -10 60<189.668 291.711> 394 45<237.337 338.945>
VStem: 83 83<72.8566 200.7> 346 77<302.552 387.144>
AnchorPoint: "unten_punkt" 158.027 -108 basechar 0
AnchorPoint: "ogonek" 344.342 41 basechar 0
AnchorPoint: "top_akzent" 332.227 645 basechar 0
LayerCount: 2
Back
SplineSet
167 199 m 1
 166 191 166 170 166 165 c 3
 166 74 197 50 242 50 c 3
 290 50 313 59 370 117 c 1
 382 117 388 112 393 101 c 1
 334 25 273 -10 206 -10 c 3
 123 -10 83 57 83 142 c 3
 83 269 155 439 329 439 c 3
 401 439 424 390 424 365 c 3
 424 327 428 250 167 199 c 1
355 370 m 0
 355 399 342 408 306 408 c 0
 264.097 408 209.03 378.577 173.753 237.438 c 1
 249.731 247.218 355 280.291 355 370 c 0
EndSplineSet
Fore
SplineSet
167 199 m 1
 166 191 166 170 166 165 c 3
 166 74 197 50 242 50 c 3
 283.672 50 317.667 64.3333 370 117 c 1
 382 117 388 112 393 101 c 1
 334 25 273 -10 206 -10 c 3
 123 -10 83 57 83 142 c 3
 83 231.625 123 340 204 398 c 0
 239 423 280 439 331 439 c 3
 387 439 423 413 423 360 c 3
 423 320 393 288 364 269 c 0
 327 245 275.064 220.116 167 199 c 1
300 394 m 3
 247 394 194.938 359.156 172.753 236.438 c 1
 224.701 243.125 288 264 325 299 c 0
 339 312 346 328 346 344 c 3
 346 374 327 394 300 394 c 3
EndSplineSet
Validated: 524289
Substitution2: "'sinf' Wissenschaftliche Indices 1" e.inferior
Substitution2: "'sups' Hochgestellte 1" e.superior
Substitution2: "'smcp' Gemeine nach Kapitaelchen 1" e.sc
AlternateSubs2: "LinLibertine-'aalt' Alle Alternativen zeigen 1" e.sc
EndChar
StartChar: f
Encoding: 102 102 288
Width: 316
VWidth: 999
Flags: HW
HStem: -235 34<-1.14094 65.5532> 390 39<116.315 190 277 381.675> 664 34<347.378 419.894>
VStem: 436 77<592.57 654.219>
AnchorPoint: "top_rechts" 410 750 basechar 0
AnchorPoint: "unten_punkt" 222 -111 basechar 0
LayerCount: 2
Fore
SplineSet
117.599609375 -57 m 0
 131.8106542 17.7330109382 134.558887423 52.1742324264 147 137 c 0
 158 212 168 277 190 390 c 1
 110 390 l 17
 108 392 106 394 107 398 c 1
 114 410 133 427 139 429 c 9
 197 429 l 1
 214 526 235 573 262 614 c 0
 291 658 346 698 400 698 c 3
 444 698 473 685 490 668 c 0
 504 654 514 640 514 626 c 3
 514 618 511 609 504 602 c 0
 496 592 481 586 469 586 c 3
 448 586 440.507009178 598.167348614 435 614 c 4
 427 637 414 662 391 662 c 7
 352 662 329 633 316 598 c 0
 304 566 295 534 287 486 c 2
 277 429 l 1
 390 429 l 1
 394 420 386 396 374 390 c 9
 270 390 l 1
 249 283 235.252070956 207.947337039 218 126 c 0
 178 -64 151 -131 119.599609375 -176 c 0
 90.0583235072 -218.33571104 41.599609375 -234 6.599609375 -234 c 3
 -25.400390625 -234 -61.400390625 -216 -61.400390625 -191 c 3
 -61.400390625 -169 -41.4228515625 -150 -19.400390625 -150 c 3
 -6.400390625 -150 12.599609375 -161 28.599609375 -173 c 0
 40.1884765625 -181.69140625 49.509765625 -185.609375 58.599609375 -185.609375 c 3
 86.6025390625 -185.609375 106 -118 117.599609375 -57 c 0
EndSplineSet
Validated: 524321
Substitution2: "LinLibertineO-Substitution f short 1" f.short
Substitution2: "Substitution f short 1" f.short
Substitution2: "'sinf' Wissenschaftliche Indices 1" f.inferior
Substitution2: "'sups' Hochgestellte 1" f.superior
Substitution2: "'smcp' Gemeine nach Kapitaelchen 1" f.sc
AlternateSubs2: "LinLibertine-'aalt' Alle Alternativen zeigen 1" f.sc
EndChar
StartChar: g
Encoding: 103 103 289
Width: 457
VWidth: 999
Flags: W
HStem: -238 33<118.945 305.459> 132 30<219.499 302.682> 394 45<408.002 496.092> 409 30<223.144 303.017>
VStem: -9 67<-164.635 -78.3443> 105 56<50.8871 124.891> 113 74<195.814 360.803> 340 74<207.186 372.373> 356 65<-167.481 -82.6628>
AnchorPoint: "unten_punkt" 197 -319 basechar 0
AnchorPoint: "top_akzent" 360 645 basechar 0
LayerCount: 2
Fore
SplineSet
340 286 m 3xdb
 340 354 311.012 409 268 409 c 3
 202 409 187 349 187 282 c 3
 187 234 199 162 260 162 c 3
 320 162 340 224 340 286 c 3xdb
396.183 370.654 m 1
 408.626 350.169 414 316.554 414 291 c 3xeb
 414 192 342 132 255 132 c 3
 227 132 200 139 184 149 c 1
 169.333 131.333 161 108 161 88 c 3
 161 43 235.934 43.6934 314 14 c 0
 368.333 -6.66699 421 -37.333 421 -100 c 0
 421 -199 320 -238 183 -238 c 3
 102 -238 -9 -215 -9 -134 c 0
 -9 -74 67.667 -24.667 131 8 c 1
 105 23 105 46 105 56 c 3xec80
 105 91 125.667 134.333 159 165 c 1
 131.667 189.667 113 233 113 277 c 3
 113 357 165 439 277 439 c 3xda
 315.034 439 357 421.75 379.125 393.048 c 1
 405.818 423.683 450.32 439 475 439 c 3
 502 439 521 423 521 402 c 3
 521 382 503 364 484 364 c 3
 473 364 462.833 370.833 456 382 c 0
 450.354 391.226 446.012 394 436 394 c 3xea
 423 394 403.183 380.654 396.183 370.654 c 1
150 -3 m 1
 124 -21 58 -65 58 -113 c 3
 58 -168 112 -205 224 -205 c 3
 312 -205 356 -165 356 -127 c 0xc880
 356 -92 327 -70 271 -44 c 0
 238 -29 168 -7 150 -3 c 1
EndSplineSet
Validated: 524289
Substitution2: "'sinf' Wissenschaftliche Indices 1" g.inferior
Substitution2: "'sups' Hochgestellte 1" g.superior
Substitution2: "'smcp' Gemeine nach Kapitaelchen 1" g.sc
AlternateSubs2: "LinLibertine-'aalt' Alle Alternativen zeigen 1" g.sc
EndChar
StartChar: h
Encoding: 104 104 290
Width: 483
VWidth: 999
Flags: MW
HStem: -10 60<363 438.688> 379 60<346.646 463.667> 648 28<161.239 204> 669 20G<275.333 293.624>
VStem: 89.0486 77.5002<-4.29117 110.716> 222 85.495<563.558 676.752> 337 85<7.74219 134.469>
DStem2: 101.818 71.4551 166.549 17.2344 0.216014 0.97639<-60.0664 227.727 262.102 566.007> 354 115 433 124 0.231072 0.972937<-30.5675 233.041>
LayerCount: 2
Back
SplineSet
198 574 m 6xde
 201.644 590.47 207 615.89 207 625 c 7
 207 635.05 201.476 644.064 189 645 c 6
 149 648 l 5
 144.637 654.271 144.091 667.546 148 676 c 5xee
 194 682 248.667 689 272 689 c 7
 285.248 689 292.495 681.507 292.495 667.854 c 7
 292.495 650.794 281.763 611.998 273.283 573.239 c 6
 214.263 303.479 l 13
 216.996 301.995 l 5
 282.333 391.333 349 439 411 439 c 7
 463.996 439 479.112 411.752 479.112 374.21 c 7
 479.112 350.992 471.202 314.511 464 283 c 6
 426 124 l 6
 420 98 415 76 415 67 c 7
 415 55 417.929 50 425 50 c 7
 435.05 50 464 70 490 100 c 5
 504 100 510 92 513 83 c 5
 467 24 419 -10 371 -10 c 7
 341 -10 330 4 330 23 c 7
 330 42 339 83 347 115 c 6
 385 275 l 6
 391.684 303.144 398 330.686 398 343 c 7
 398 369.333 392 379 371 379 c 7
 326 379 209.9 282.246 188.197 185.25 c 6
 162.857 72 l 6
 158.077 50.6367 155.914 27.04 151.549 17.2344 c 4
 144.125 0.55957 128.375 -10 96.541 -10 c 7
 79.4521 -10 74.0488 -1.15918 74.0488 12 c 7
 74.0488 28.1123 82.2217 50.6797 86.8184 71.4551 c 6
 198 574 l 6xde
EndSplineSet
Fore
SplineSet
216.996 301.995 m 5x2e80
 282.333 391.333 345 439 407 439 c 7
 460.065 439 476.107 408.617 476.107 368.922 c 7x2e80
 476.107 324.034 455.593 267.238 444.901 229 c 4
 431.852 182.329 406.639 113.087 406.639 70.8982 c 7
 406.639 48.7067 413.615 34 433.006 34 c 6
 473.006 34 l 5
 479.006 25 479.659 14 474.006 6 c 5x6f
 427.006 -2 378.006 -10 346.006 -10 c 7
 328.069 -10 321.695 6.39032 321.695 30.0578 c 7xa7
 321.695 80.0184 350.096 162.406 358.082 191.5 c 4
 368.568 229.707 394 306.607 394 343 c 7
 394 369.333 384 379 363 379 c 7
 318 379 209.9 282.246 188.197 185.25 c 6
 162.857 72 l 6
 158.077 50.6367 155.914 27.04 151.549 17.2344 c 4
 144.125 0.55957 128.375 -10 96.541 -10 c 7
 79.4521 -10 74.0488 -1.15918 74.0488 12 c 7
 74.0488 28.1123 82.2217 50.6797 86.8184 71.4551 c 6
 198 574 l 6
 201.644 590.47 207 615.89 207 625 c 7
 207 635.05 201.476 644.064 189 645 c 6
 149 648 l 5
 144.637 654.271 144.091 667.546 148 676 c 5xb680
 194 682 248.667 689 272 689 c 7
 285.248 689 292.495 681.507 292.495 667.854 c 7
 292.495 650.794 281.763 611.998 273.283 573.239 c 6
 214.263 303.479 l 13
 216.996 301.995 l 5x2e80
EndSplineSet
Validated: 8913441
Substitution2: "'ss04' Stilgruppe 4 lookup 31-1" h.str
Substitution2: "'salt' Stilistische Alternativformen 1" h.alt
Substitution2: "'sinf' Wissenschaftliche Indices 1" h.inferior
Substitution2: "'sups' Hochgestellte 1" h.superior
Substitution2: "'smcp' Gemeine nach Kapitaelchen 1" h.sc
AlternateSubs2: "LinLibertine-'aalt' Alle Alternativen zeigen 1" h.sc h.alt
EndChar
StartChar: i
Encoding: 105 105 291
Width: 261
VWidth: 999
Flags: HW
HStem: -10 65<133 206.613> 395 28<118.549 162> 521 98<199.913 277.989>
VStem: 107 180 190 98<531.293 608.371>
DStem2: 96.2882 -10 170.293 -10 0.21644 0.976296<100.542 390.643>
AnchorPoint: "top_akzent" 295 834 basechar 0
AnchorPoint: "mittelpunkt" 182 215 basechar 0
AnchorPoint: "unten_punkt" 136 -107 basechar 0
AnchorPoint: "unten_anhang" 137 12 basechar 0
AnchorPoint: "ogonek" 209 10 basechar 0
LayerCount: 2
Back
SplineSet
-98.3887 618.652 m 1
 520.264 618.652 l 1
 520.508 522.949 l 1
 -98.6328 522.949 l 1
 -98.3887 618.652 l 1
-98.3887 616.211 m 1
 520.264 616.211 l 1
 520.508 525.391 l 1
 -98.6328 525.391 l 1
 -98.3887 616.211 l 1
EndSplineSet
Fore
Refer: 675 775 N 1 0 0 1 294 -34 2
Refer: 421 305 N 1 0 0 1 0 0 3
Validated: 513
Substitution2: "'ss04' Stilgruppe 4 lookup 31-1" i.str
Substitution2: "LinLibertineO-Substitution dotless forms 1" dotlessi
Substitution2: "Substitution dotless forms 1" dotlessi
Substitution2: "'sinf' Wissenschaftliche Indices 1" i.inferior
Substitution2: "'sups' Hochgestellte 1" i.superior
Substitution2: "'smcp' Gemeine nach Kapitaelchen i > idotaccent.sc" idotaccent.sc
Substitution2: "'smcp' Gemeine nach Kapitaelchen i > i.sc 1" i.sc
AlternateSubs2: "LinLibertine-'aalt' Alle Alternativen zeigen 1" i.sc
EndChar
StartChar: j
Encoding: 106 106 292
Width: 259
VWidth: 999
Flags: W
HStem: -233 48.3906<-24 71.2225> 395 28<122.549 166> 416 20G<236 258.624> 521 98<206.913 284.989>
VStem: 197 98<531.293 608.371>
LayerCount: 2
Back
SplineSet
144.981445312 -148 m 4
 91.5029296875 -207.631835938 18.9987048019 -236.625 -28.224609375 -236.625 c 7
 -66 -236.625 -97.224609375 -228.000976562 -97.224609375 -196.625 c 7
 -97.224609375 -166.990234375 -71 -130 -43 -130 c 7
 -28 -130 -15 -132.274414062 0 -143 c 4
 19.0000924095 -156.585808264 27 -157 37 -157 c 7
 61.2998046875 -157 74.0002390613 -142.000061155 96 -56 c 4
 114.279 15.4551 120.715 77.9555 141 176 c 6xb0
 171 321 l 2
 176.88 349.421 177 352.89 177 362 c 3
 177 372.05 171.008 381.1 159 382 c 2
 119 385 l 1
 113 394 114.347 415 121 423 c 1xd0
 168 429 261 436 293 436 c 3
 306.248 436 313.495 428.507 313.495 414.854 c 3
 313.495 397.794 301.183 360.365 293.285 320.25 c 2
 276.5 235 l 6
 244.258909828 71.2494526556 212.012441622 -71.5415958311 144.981445312 -148 c 4
EndSplineSet
Fore
Refer: 1269 63166 N 1 0 0 1 0 0 3
Refer: 675 775 N 1 0 0 1 301 -34 2
Validated: 1
Substitution2: "LinLibertineO-Substitution dotless forms 1" dotlessj
Substitution2: "Substitution dotless forms 1" dotlessj
Substitution2: "'sinf' Wissenschaftliche Indices 1" j.inferior
Substitution2: "'sups' Hochgestellte 1" j.superior
Substitution2: "'smcp' Gemeine nach Kapitaelchen 1" j.sc
AlternateSubs2: "LinLibertine-'aalt' Alle Alternativen zeigen 1" j.sc idotaccent.sc
EndChar
StartChar: k
Encoding: 107 107 293
Width: 449
VWidth: 999
Flags: W
HStem: -12 62<336.964 402.864> 365 74<373.459 456.964> 648 28<146.239 189> 669 20G<260.334 278.624>
VStem: 207 85.495<564.683 676.752>
AnchorPoint: "top_akzent" 462 646 basechar 0
AnchorPoint: "unten_anhang" 182 9 basechar 0
AnchorPoint: "unten_punkt" 280 -107 basechar 0
LayerCount: 2
Back
SplineSet
182 232 m 1
 190 241 l 1
 219 274 242 298 269 325 c 0
 324.502252207 380.502252207 381 439 434 439 c 3
 463 439 490 416 490 394 c 3
 490 366 467.1171875 340 442 340 c 3
 431.366210938 340 423.000377447 344.000399929 417 349.663085938 c 0
 410.544921875 355.754882812 406.078125 365 391 365 c 3
 358 365 323 334 281 286 c 1
 289.972861507 255.492270878 317.473344022 175.882908109 342 118 c 0
 367 59 370.998046875 50 383 50 c 3
 394 50 403 57 438 94 c 1
 450 93 457 86 460 74 c 1
 429 24 384.136083052 -12 351 -12 c 3
 322.928710938 -12 306.867155186 10.9610469988 285 60 c 0
 264.19140625 106.665039062 244 165 225 226 c 1
 212 213 176 176 168 163 c 1
 167 161 165 163 165 163 c 1
 165 163 165 212 182 232 c 1
273.279 573.229 m 2
 158.857 72 l 2
 150.644 35.0752 151.013 -10 113 -10 c 3
 81.166 -10 72.1172 0.55957 72.1172 17.2344 c 3
 72.1172 27.04 80.2998 51.9395 84.8223 72 c 2
 198.006 574.009 l 2
 201.714 590.453 207 615.89 207 625 c 3
 207 635.05 201.476 644.064 189 645 c 2
 149 648 l 1
 144.637 654.271 144.091 667.546 148 676 c 1
 194 682 248.667 689 272 689 c 3xec
 285.248 689 292.495 681.507 292.495 667.854 c 3
 292.495 650.794 282.323628982 611.924355157 273.279 573.229 c 2
EndSplineSet
Fore
SplineSet
184.217214305 183.091178757 m 1xd8
 158.857 72 l 2
 150.644 35.0752 151.013 -10 113 -10 c 0
 81.166 -10 72.1172 0.55957 72.1172 17.2344 c 0
 72.1172 27.04 80.2998 51.9395 84.8223 72 c 2
 198.006 574.009 l 2
 201.714 590.453 207 615.89 207 625 c 0
 207 635.05 201.476 644.064 189 645 c 2
 149 648 l 1
 144.637 654.271 144.091 667.546 148 676 c 1xe8
 194 682 248.667 689 272 689 c 0
 285.248 689 292.495 681.507 292.495 667.854 c 0
 292.495 650.794 282.323628982 611.924355157 273.279 573.229 c 2
 200.01901925 252.311458871 l 1
 224.476483318 279.698288262 245.181851547 301.181851547 269 325 c 0
 324.502252207 380.502252207 381 439 434 439 c 0
 463 439 490 416 490 394 c 0
 490 366 467.1171875 340 442 340 c 0
 431.366210938 340 423.000377447 344.000399929 417 349.663085938 c 0
 410.544921875 355.754882812 406.078125 365 391 365 c 0
 358 365 323 334 281 286 c 1
 289.972861507 255.492270878 317.473344022 175.882908109 342 118 c 0
 367 59 370.998046875 50 383 50 c 0
 394 50 403 57 438 94 c 1
 450 93 457 86 460 74 c 1
 429 24 384.136083052 -12 351 -12 c 0
 322.928710938 -12 306.867155186 10.9610469988 285 60 c 0
 264.19140625 106.665039062 244 165 225 226 c 1
 216.491801004 217.491801004 198.131783346 198.703443404 184.217214305 183.091178757 c 1xd8
EndSplineSet
Validated: 524833
Substitution2: "'ss04' Stilgruppe 4 lookup 31-1" k.str
Substitution2: "'sinf' Wissenschaftliche Indices 1" k.inferior
Substitution2: "'sups' Hochgestellte 1" k.superior
Substitution2: "'smcp' Gemeine nach Kapitaelchen 1" k.sc
AlternateSubs2: "LinLibertine-'aalt' Alle Alternativen zeigen 1" k.sc
EndChar
StartChar: l
Encoding: 108 108 294
Width: 237
VWidth: 999
Flags: W
HStem: -10 60<106.25 185.526> 648 28<146.239 189> 669 20G<260.333 278.624>
VStem: 83 79<24.5 154.718> 207 85.4951<566.579 676.751>
DStem2: 69.5802 -10 144.88 -10 0.207912 0.978148<91.9705 649.265>
LayerCount: 2
Back
SplineSet
273.283 573.239 m 6xb8
 174 127 l 6
 165.127 87.1191 162 72 162 64 c 7
 162 56 166 50 174 50 c 7
 186 50 218 72 248 108 c 5
 261 108 266 101 270 91 c 5
 224.5 15.5 170.224 -10 125 -10 c 7
 87.5 -10 83 15 83 34 c 7
 83 53 89.9023 87.0264 97 119 c 6
 198 574 l 6
 201.667 590.464 207 615.89 207 625 c 7
 207 635.05 201.476 644.064 189 645 c 6
 149 648 l 5
 144.637 654.271 144.091 667.546 148 676 c 5xd8
 194 682 248.667 689 272 689 c 7
 285.248 689 292.495 681.507 292.495 667.854 c 7
 292.495 650.794 282.124 612.974 273.283 573.239 c 6xb8
EndSplineSet
Fore
SplineSet
187.919 178.995 m 2x1c
 171.66 105.625 167.619 82.4033 167.619 63.7734 c 3
 167.619 45.4346 174.02 34 190.006 34 c 2
 230.006 34 l 1
 236.006 25 236.659 14 231.006 6 c 1x5c
 184.006 -3 139.006 -10 107.006 -10 c 3
 88.584 -10 85.2461 14.3164 85.2461 30.8242 c 3
 85.2461 49.6709 90.916 90.5801 98.0049 121.995 c 2
 200 574 l 2
 203.713 590.453 209 615.89 209 625 c 3
 209 635.05 203.476 644.064 191 645 c 2
 151 648 l 1
 146.637 654.271 146.091 667.546 150 676 c 1xac
 196 682 250.667 689 274 689 c 3
 287.248 689 294.495 681.507 294.495 667.854 c 3
 294.495 650.794 284.09 612.983 275.283 573.239 c 2
 187.919 178.995 l 2x1c
EndSplineSet
Validated: 524833
Substitution2: "'ss04' Stilgruppe 4 lookup 31-1" l.str
Substitution2: "'sinf' Wissenschaftliche Indices 1" l.inferior
Substitution2: "'sups' Hochgestellte 1" l.superior
Substitution2: "'smcp' Gemeine nach Kapitaelchen 1" l.sc
AlternateSubs2: "LinLibertine-'aalt' Alle Alternativen zeigen 1" l.sc
EndChar
StartChar: m
Encoding: 109 109 295
Width: 746
VWidth: 999
Flags: W
HStem: -10 60<637.001 687.688> 379 60<354.646 445.663 599.251 689.589> 395 28<103.549 147>
VStem: 97.0488 77.5<-4.29127 110.93> 169.387 80.6191<304.816 391.952> 339.049 77.5<-4.29127 108.564> 413 81.5279<272.269 378.021> 589 85<7.74219 134.469> 657 81.1123<255.336 378.219>
DStem2: 92.5045 -10 168.428 -10 0.207912 0.978148<23.2086 305.583 336.618 379.218> 334.512 -10 410.432 -10 0.207912 0.978148<44.1972 299.651> 579.43 -10 656.517 -10 0.207912 0.978148<95.4022 360.837>
LayerCount: 2
Back
SplineSet
427.861 72 m 6xc080
 422.704 50.7207 420.914 27.04 416.549 17.2344 c 4
 409.125 0.55957 393.375 -10 361.541 -10 c 4
 344.452 -10 339.049 -1.15918 339.049 12 c 4xc480
 339.049 28.1123 346.925 50.7471 351.826 71.4551 c 6
 400 275 l 6
 406.661 303.145 413 330.686 413 343 c 3
 413 369.333 407 379 386 379 c 3
 341 379 232.9 282.246 211.197 185.25 c 2
 185.857 72 l 2
 181.077 50.6367 178.914 27.04 174.549 17.2344 c 0
 167.125 0.55957 151.375 -10 119.541 -10 c 0
 102.452 -10 97.0488 -1.15918 97.0488 12 c 0xd2
 97.0488 28.1123 105.149 50.6982 109.818 71.4551 c 2
 149.079 246 l 2
 165.565 319.297 169.387 343.597 169.387 362.227 c 0
 169.387 380.565 158.74 391.12 147 392 c 2
 107 395 l 1
 101 404 99.3467 415 106 423 c 1xa8
 153 430 198 436 230 436 c 0
 244.368 436 248.018 425.903 250.006 409.979 c 0
 252.667 388.667 248.802 341.602 238.999 303 c 1
 239.996 301.995 l 1
 305.333 391.333 364 439 426 439 c 3
 479.144 439 494.528 411.52 494.528 373.797 c 3
 494.528 352.253 489.51 328.367 482.644 303.351 c 1
 483.996 301.995 l 1
 549.333 391.333 608 439 670 439 c 3
 722.996 439 738.112 411.751 738.112 374.21 c 3xca80
 738.112 350.053 730.203 314.51 723 283 c 2
 685 124 l 2
 679 98 674 76 674 67 c 0
 674 55 676.929 50 684 50 c 0
 694.05 50 723 70 749 100 c 1
 763 100 769 92 772 83 c 1
 726 24 678 -10 630 -10 c 0
 600 -10 589 4 589 23 c 0xc1
 589 42 598 83 606 115 c 2
 644 275 l 2
 650.684 303.144 657 330.686 657 343 c 3
 657 369.333 651 379 630 379 c 3
 586.534 379 484.196 288.729 457.711 195.163 c 5
 427.861 72 l 6xc080
EndSplineSet
Fore
SplineSet
605.005 121.995 m 6x8080
 641 275 l 6
 647.624 303.157 654 330.686 654 343 c 7
 654 369.333 648 379 627 379 c 7
 583.534 379 481.196 288.729 454.711 195.163 c 5
 424.861 72 l 6
 419.704 50.7207 417.914 27.04 413.549 17.2344 c 4
 406.125 0.55957 390.375 -10 358.541 -10 c 4
 341.452 -10 336.049 -1.15918 336.049 12 c 4xa240
 336.049 28.1123 343.925 50.7471 348.826 71.4551 c 6
 397 275 l 6
 403.661 303.145 410 330.686 410 343 c 7
 410 369.333 404 379 383 379 c 7
 338 379 229.9 282.246 208.197 185.25 c 6
 182.857 72 l 6
 178.077 50.6367 175.914 27.04 171.549 17.2344 c 4
 164.125 0.55957 148.375 -10 116.541 -10 c 4
 99.4521 -10 94.0488 -1.15918 94.0488 12 c 4xa9
 94.0488 28.1123 102.149 50.6982 106.818 71.4551 c 6
 146.079 246 l 6
 162.565 319.297 166.387 343.597 166.387 362.227 c 4
 166.387 380.565 155.74 391.12 144 392 c 6
 104 395 l 5
 98 404 96.3467 415 103 423 c 5x94
 150 430 195 436 227 436 c 4
 241.368 436 245.018 425.903 247.006 409.979 c 4
 249.667 388.667 245.802 341.602 235.999 303 c 5
 236.996 301.995 l 5
 302.333 391.333 361 439 423 439 c 7
 476.144 439 491.528 411.52 491.528 373.797 c 7
 491.528 352.253 486.51 328.367 479.644 303.351 c 5
 480.996 301.995 l 5
 546.333 391.333 605 439 667 439 c 7
 719.996 439 735.112 411.751 735.112 374.21 c 7x2540
 735.112 350.053 727.578 314.425 720 283 c 6
 694.919 178.995 l 6
 677.302 105.939 674.619 82.4033 674.619 63.7734 c 7
 674.619 45.4346 681.02 34 697.006 34 c 6
 737.006 34 l 5
 743.006 25 743.659 14 738.006 6 c 5x6080
 690.006 -3 646.006 -10 614.006 -10 c 7
 595.584 -10 592.246 14.3164 592.246 30.8242 c 7
 592.246 49.6709 597.63 90.6465 605.005 121.995 c 6x8080
EndSplineSet
Validated: 8913441
Substitution2: "'ss04' Stilgruppe 4 lookup 31-1" m.str
Substitution2: "'sinf' Wissenschaftliche Indices 1" m.inferior
Substitution2: "'sups' Hochgestellte 1" m.superior
Substitution2: "'smcp' Gemeine nach Kapitaelchen 1" m.sc
AlternateSubs2: "LinLibertine-'aalt' Alle Alternativen zeigen 1" m.sc
EndChar
StartChar: n
Encoding: 110 110 296
Width: 497
VWidth: 999
Flags: W
HStem: -10 21G<102.996 127.458 352.037 377.006> 6 28<425.772 491.331> 379 60<349.441 441.409> 395 28<95.5485 139>
VStem: 89.0486 77.5004<-4.29117 110.93> 161.387 80.619<304.816 391.952> 336.695 84.9437<18.224 141.877> 409 82.1071<261.63 378.155>
DStem2: 84.5042 -10 160.427 -10 0.207912 0.978148<23.2088 305.583 336.618 379.219>
LayerCount: 2
Back
SplineSet
253.666 314 m 0
 229.667 283 212.667 223 178.5 70 c 1025
61 -111 m 2
 152.001 292.999 l 2
 163.359 343.427 169.313 389.727 139 392 c 2
 99 395 l 1
 93 404 91.3467 415 98 423 c 1
 140 429 190 436 222 436 c 3
 250.074 436 243 377.909 237.668 349.666 c 9
 239 349 l 1025
67 229 m 1
 28.8574 72 l 2
 20 34 21.0127 -10 -17 -10 c 3
 -48.834 -10 -57.8828 0.55957 -57.8828 17.2344 c 3
 -57.8828 27.04 -49.9404 51.9346 -45.1777 72 c 2
 3 275 l 2
 10 306 11 330 11 342 c 3
 11 372 5 380 -15 380 c 3
 -47 380 -103 346 -181 233 c 1
 -221.143 72 l 2
 -231 34 -228.987 -10 -267 -10 c 3
 -298.834 -10 -307.883 0.55957 -307.883 17.2344 c 3
 -307.883 27.04 -300 52 -295.178 72 c 2
 -238 321 l 2
 -232 349 -229 362.89 -229 372 c 3
 -229 382.05 -235 391 -247 392 c 2
 -287 395 l 1
 -293 404 -294.653 415 -288 423 c 1
 -241 429 -196 436 -164 436 c 3
 -150.752 436 -143.505 428.507 -143.505 414.854 c 3
 -143.505 397.794 -156 359 -165.715 320.25 c 10
 -168.001 311 l 25
 -166 310 l 1
 -107 386 -42 439 30 439 c 3
 58 439 88 422 88 352 c 3
 88 339 87 321 84 305 c 1025
EndSplineSet
Fore
SplineSet
448.006 34 m 2x62
 488.006 34 l 1
 494.006 25 494.659 14 489.006 6 c 1x62
 442.006 -2 393.006 -10 361.006 -10 c 3
 343.069 -10 336.695 6.39029 336.695 30.0578 c 3x82
 336.695 80.0184 365.097 162.407 373.082 191.5 c 0
 383.568 229.707 409 306.608 409 343 c 3
 409 369.333 399 379 378 379 c 3
 333 379 224.9 282.246 203.197 185.25 c 2
 177.857 72 l 2
 173.077 50.6369 170.914 27.04 166.549 17.2344 c 0
 159.125 0.55957 143.375 -10 111.541 -10 c 3
 94.4519 -10 89.0486 -1.15893 89.0486 12.0001 c 3xa9
 89.0486 28.1125 97.1496 50.6986 101.818 71.4551 c 2
 141.079 246 l 2
 157.566 319.297 161.387 343.597 161.387 362.227 c 3
 161.387 380.565 150.74 391.12 139 392 c 2
 99 395 l 1
 93 404 91.3467 415 98 423 c 1x94
 145 430 190 436 222 436 c 3
 236.368 436 240.018 425.903 242.006 409.979 c 0
 244.667 388.667 240.802 341.602 230.999 303 c 9
 231.996 301.995 l 1
 297.333 391.333 360 439 422 439 c 3
 475.065 439 491.107 408.618 491.107 368.923 c 3x25
 491.107 324.035 470.593 267.238 459.901 229 c 0
 446.851 182.329 421.639 113.088 421.639 70.8986 c 3
 421.639 48.7069 428.614 34 448.006 34 c 2x62
EndSplineSet
Validated: 524833
Substitution2: "'ss04' Stilgruppe 4 lookup 31-1" n.str
Substitution2: "'sinf' Wissenschaftliche Indices 1" n.inferior
Substitution2: "'sups' Hochgestellte 1" n.superior
Substitution2: "'smcp' Gemeine nach Kapitaelchen 1" n.sc
AlternateSubs2: "LinLibertine-'aalt' Alle Alternativen zeigen 1" n.sc
EndChar
StartChar: o
Encoding: 111 111 297
Width: 447
VWidth: 999
Flags: W
HStem: -10 39<192.951 301.558> 406 33<250.713 346.937>
VStem: 78 83<62.2999 269.643> 382 83<164.619 373.534>
AnchorPoint: "unten_punkt" 186.23 -107 basechar 0
AnchorPoint: "unten_anhang" 230.39 -3 basechar 0
AnchorPoint: "ogonek" 370.952 44 basechar 0
AnchorPoint: "top_akzent" 359.227 645 basechar 0
AnchorPoint: "komb_OR" 490.567 396 basechar 0
LayerCount: 2
Back
SplineSet
403 124 m 6xd4
 397 98 392 76 392 67 c 7
 392 55 394.929 50 402 50 c 7
 412.05 50 441 70 467 100 c 5
 481 100 487 92 490 83 c 5
 444 24 396 -10 348 -10 c 7
 318 -10 307 4 307 23 c 7xd8
 307 42 316 83 324 115 c 6
 362 275 l 6
 368.684 303.144 375 330.686 375 343 c 7
 375 374 361 379 340 379 c 7xd4
 304 379 236 313 185 238 c 5
 147.857 72 l 6
 139.337 33.9229 140.013 -10 102 -10 c 7
 70.166 -10 59.1172 0.55957 59.1172 17.2344 c 7
 59.1172 27.04 67 52 71.8223 72 c 6
 111.079 246 l 6
 123.579 301.403 131.387 345 131.387 362.227 c 4
 131.387 380.565 126.74 391.12 115 392 c 6
 75 395 l 5
 69 404 67.3467 415 74 423 c 5xb4
 121 430 168 436 200 436 c 7
 215.548 436 221.006 426.027 221.006 409.979 c 4
 221.006 395.346 210.802 349.602 200.999 311 c 13
 201.996 309.995 l 5
 293.996 417.995 336 439 388 439 c 7
 427 439 454 419 454 359 c 7
 454 341 449 318 441 283 c 6
 403 124 l 6xd4
-22 287 m 0
 -22 239 -34 190 -60 143 c 128
 -86 96 -121 58 -167 30 c 128
 -213 2 -258 -12 -301 -12 c 0
 -345 -12 -381 3 -409 31 c 128
 -437 59 -451 95 -451 140 c 0
 -451 187 -437 235 -410 283 c 128
 -383 331 -347 368 -301 396 c 128
 -255 424 -211 438 -168 438 c 256
 -125 438 -91 424 -63 396 c 128
 -35 368 -22 332 -22 287 c 0
-102 320 m 0
 -102 350 -109 373 -124 389 c 128
 -139 405 -158 413 -181 413 c 0
 -228 413 -272 379 -312 311 c 128
 -352 243 -372 175 -372 108 c 0
 -372 77 -363 55 -348 38 c 128
 -333 21 -314 13 -290 13 c 0
 -245 13 -202 46 -162 114 c 128
 -122 182 -102 250 -102 320 c 0
78 162 m 3
 78 236 112 324 172 380 c 0
 210 416 260 439 324 439 c 3
 447 439 465 349 465 277 c 3
 465 159 397 53 310 9 c 0
 281 -6 247 -10 218 -10 c 3
 103 -10 78 98 78 162 c 3
161 170 m 3
 161 62 201 27 235 27 c 3
 276 27 311 45 339 88 c 0
 375 144 382 230 382 270 c 3
 382 300 379 337 366 362 c 0
 352 390 336 406 306 406 c 3
 256 406 221 374 198 331 c 0
 172 282 161 218 161 170 c 3
925 420 m 0
 980 420 1020 399 1044 357 c 0
 1064 321 1069 280 1058 233 c 0
 1050 200 1035 167 1012 133 c 128
 989 99 961 75 929 58 c 128
 898 41 865 32 831 32 c 0
 776 32 737 54 715 98 c 0
 696 135 692 177 703 223 c 0
 711 257 727 290 751 323 c 128
 775 356 802 380 833 396 c 128
 864 412 895 420 925 420 c 0
907 394 m 0
 893 394 877 389 861 381 c 128
 845 373 830 358 816 337 c 128
 802 316 793 289 785 256 c 0
 773 203 773 157 785 118 c 128
 797 79 820 60 855 60 c 0
 881 60 904 71 926 92 c 128
 948 113 965 150 977 202 c 0
 992 267 989 319 970 356 c 0
 957 382 936 394 907 394 c 0
656 228 m 25
 1123 228 l 1049
923 458 m 25
 811 -27 l 1049
EndSplineSet
Fore
SplineSet
78 161 m 7
 78 234.667 112.5 324.5 172.101 380.5 c 4
 209.939 416.053 260.459 439 324 439 c 7
 447 439 465 349 465 277 c 7
 465 158.838 397.107 53.8955 310 10 c 4
 280.632 -4.79883 247.155 -10 218 -10 c 7
 108 -10 78 91.999 78 161 c 7
161 164 m 7
 161 60.6618 197.665 29 235 29 c 7
 276.003 29 311 44 339 87 c 4
 375.479 143.022 382 230.433 382 275 c 7
 382 307.335 380.324 336.57 367.5 362 c 4
 353.311 390.136 336 406 306 406 c 7
 256.479 406 221.581 374.134 198.451 331 c 4
 172.072 281.806 161 211.954 161 164 c 7
EndSplineSet
Validated: 524289
Substitution2: "'sinf' Wissenschaftliche Indices 1" o.inferior
Substitution2: "'sups' Hochgestellte 1" o.superior
Substitution2: "'smcp' Gemeine nach Kapitaelchen 1" o.sc
AlternateSubs2: "LinLibertine-'aalt' Alle Alternativen zeigen 1" o.sc
EndChar
StartChar: p
Encoding: 112 112 298
Width: 489
VWidth: 999
Flags: W
HStem: -235 33<-18.9755 45.7252 148.627 205.975> -10 45.5<199.181 333.813> 390 49<337.436 421.698> 395 28<107.549 151>
VStem: 438.222 82.4961<198.083 375.291>
DStem2: 47.643 -235 124.643 -235 0.207912 0.978148<90.6962 267.831 312.213 554.747>
AnchorPoint: "unten_punkt" 248 -110 basechar 0
AnchorPoint: "top_akzent" 411 646 basechar 0
LayerCount: 2
Back
SplineSet
440.5 303.5 m 7xcc
 440.5 371.5 414.5 391 384.5 391 c 7
 336.5 391 290.737 352.816 257 300.5 c 4
 222.5 247 208.777 179.241 203 132 c 4
 195.742 72.6602 221.5 35 255.5 35 c 7
 303.011 35 353.558 58.7295 389.775 114 c 4
 423.357 165.248 440.5 234.383 440.5 303.5 c 7xcc
302.278 573.227 m 6
 254 358 l 5
 256 357 l 5
 291.5 391.5 352 439 421 439 c 7
 492.475 439 519.775 386.572 519.775 326.041 c 4
 519.775 210.652 470.553 128.591 408.5 68 c 4
 359.569 20.2217 300.912 -10 231 -10 c 7
 128.48 -10 119.209 93.6777 141.049 191 c 6
 226.998 574.007 l 6
 230.647 590.266 236 615.89 236 625 c 7
 236 635.05 230.476 644.064 218 645 c 6
 178 648 l 5
 173.637 654.271 173.091 667.546 177 676 c 5xec
 223 682 277.667 689 301 689 c 7xdc
 314.248 689 321.495 681.507 321.495 667.854 c 7
 321.495 650.794 310.964 611.95 302.278 573.227 c 6
213 504 m 1
 288 504 l 1
 126.606 -224 l 1
 51.6064 -224 l 1
 213 504 l 1
EndSplineSet
Fore
SplineSet
438.222 303.138 m 3xe8
 438.222 338.501 429.667 390 380 390 c 3
 337.333 390 294.623 350.112 266.666 314 c 0
 242.667 283 207.5 169.5 189.5 70 c 1
 200.5 45 237.995 35.5 266 35.5 c 3
 318.019 35.5 359.233 69.1807 388.129 114 c 0
 423.485 168.839 438.222 237.211 438.222 303.138 c 3xe8
252 349 m 1
 276.333 378 344.304 439 413 439 c 3xe8
 500.823 439 520.718 380.505 520.718 313.117 c 3
 520.718 230.996 489.06 153.841 430.919 86 c 0
 383.09 30.1914 319.998 -10 253 -10 c 3
 226.613 -10 194.5 -2 178.5 11 c 1
 151 -111 l 6
 145.887 -133.685 143.164 -150.564 143.164 -163.176 c 4
 143.164 -195.658 161.222 -199.839 203 -202 c 5
 205.083 -204.5 206.125 -209.604 206.125 -215.142 c 4
 206.125 -222.896 204.083 -231.5 200 -235 c 5
 169 -234 118.75 -233 92 -233 c 7
 64.232 -233 18 -234 -16 -235 c 5
 -18.0833 -232.5 -19.125 -227.396 -19.125 -221.858 c 4
 -19.125 -214.104 -17.0833 -205.5 -13 -202 c 5
 46 -199 55.6006 -192.687 74 -111 c 6
 115.784 74.5 l 2
 136.06 164.513 163.5 287 168.678 355.14 c 0
 170.368 377.384 160.016 391.324 151 392 c 2
 111 395 l 1
 105 404 103.347 415 110 423 c 1xd8
 152 429 202 436 234 436 c 3
 262.074 436 256 377.909 250.668 349.666 c 9
 252 349 l 1
EndSplineSet
Validated: 524321
Substitution2: "'sinf' Wissenschaftliche Indices 1" p.inferior
Substitution2: "'sups' Hochgestellte 1" p.superior
Substitution2: "'smcp' Gemeine nach Kapitaelchen 1" p.sc
AlternateSubs2: "LinLibertine-'aalt' Alle Alternativen zeigen 1" p.sc
EndChar
StartChar: q
Encoding: 113 113 299
Width: 466
VWidth: 999
Flags: W
HStem: -235 33<197.025 262.387 363.134 419.975> -10.1387 42.8096<189.404 293.131> 396.157 42.843<267.546 395.6>
VStem: 79 80.885<64.0177 247.214>
DStem2: 264.318 -235 338.643 -235 0.207912 0.978148<90.3889 268.934 291.386 634.603>
AnchorPoint: "unten_punkt" 169 -110 basechar 0
AnchorPoint: "top_akzent" 369.227 645 basechar 0
LayerCount: 2
Fore
SplineSet
330.5 77 m 1
 352.5 138.5 396.5 378.5 396.5 378.5 c 1
 378 393 357.091 396.157 334.205 396.157 c 3
 228.494 396.157 159.885 261.617 159.885 164.834 c 3
 159.885 93.999 179.093 32.6709 237.037 32.6709 c 3
 261.419 32.6709 298 42.5 330.5 77 c 1
412.5 122 m 2
 365 -111 l 2
 360.386 -133.632 357.867 -150.478 357.867 -163.07 c 0
 357.867 -195.963 375.057 -199.831 417 -202 c 1
 419.083 -204.5 420.125 -209.604 420.125 -215.142 c 0
 420.125 -222.896 418.083 -231.5 414 -235 c 1
 383 -234 333 -233 306 -233 c 3
 278 -233 234 -234 200 -235 c 1
 197.917 -232.5 196.875 -227.396 196.875 -221.858 c 0
 196.875 -214.104 198.917 -205.5 203 -202 c 1
 262 -199 273.163 -192.612 290.604 -111.333 c 2
 320.5 28 l 1
 318.5 30 l 1
 288.5 0 240.627 -10.1387 209.397 -10.1387 c 3
 124.074 -10.1387 79 59.1689 79 145 c 3
 79 295.008 214.5 439 363 439 c 3
 400 439 456 434 481 429 c 1
 461.97 370 l 1
 445.5 300.5 427.117 192.345 412.5 122 c 2
EndSplineSet
Validated: 524289
Substitution2: "'sinf' Wissenschaftliche Indices 1" q.inferior
Substitution2: "'sups' Hochgestellte 1" q.superior
Substitution2: "'smcp' Gemeine nach Kapitaelchen 1" q.sc
AlternateSubs2: "LinLibertine-'aalt' Alle Alternativen zeigen 1" q.sc
EndChar
StartChar: r
Encoding: 114 114 300
Width: 363
VWidth: 999
Flags: HW
HStem: 374 62<323.125 396.022> 395 28<94.5485 138>
VStem: 89.25 77<-4.05662 113.437>
DStem2: 84.3926 -10 160.428 -10 0.207912 0.978148<24.1045 286.758 327.361 403.616>
AnchorPoint: "unten_punkt" 113 -110 basechar 0
AnchorPoint: "unten_anhang" 134 7 basechar 0
AnchorPoint: "top_akzent" 312.431 646 basechar 0
LayerCount: 2
Back
SplineSet
-415 20 m 1025,106,-1
EndSplineSet
Fore
SplineSet
219 436 m 7xa0
 234.637 436 240.873 419.876 240.873 398.042 c 4
 240.873 366.437 230.644 317.041 223.999 295 c 9
 227 294 l 1
 276.5 374 329.333 439 383 439 c 3
 411.667 439 436 413 436 392 c 3
 436 366.25 412.003 341 391 341 c 3
 377 341 365.25 348.5 359 358 c 0
 353.933 365.702 346 374 336 374 c 3
 315.871 374 265.5 307.5 224.333 223.667 c 0
 203.814 181.881 186.962 122.101 177.857 72 c 0
 173.275 46.7845 171.992 31.1055 166.25 16.75 c 0
 158.75 -2 136.475 -10 115 -10 c 3
 89.75 -10 89.25 2.32804 89.25 13 c 3
 89.25 25.8691 96.3291 47.3164 101.822 72 c 2
 152.001 292.999 l 6
 163.446 343.407 168.312 389.727 138 392 c 6
 98 395 l 5x60
 92 404 90.3467 415 97 423 c 5
 138 429 187 436 219 436 c 7xa0
EndSplineSet
Validated: 524321
Substitution2: "'sinf' Wissenschaftliche Indices 1" r.inferior
Substitution2: "'sups' Hochgestellte 1" r.superior
Substitution2: "'smcp' Gemeine nach Kapitaelchen 1" r.sc
AlternateSubs2: "LinLibertine-'aalt' Alle Alternativen zeigen 1" r.sc
EndChar
StartChar: s
Encoding: 115 115 301
Width: 339
VWidth: 999
Flags: W
HStem: -10 33<150.605 249.025> 406 33<203.775 278.726>
VStem: 48 78<41.4688 102.763> 116 65<288.485 378.539> 273 66<49.4523 142.874> 296 78<335.236 394.562>
AnchorPoint: "unten_punkt" 162 -111 basechar 0
AnchorPoint: "unten_anhang" 178 -1 basechar 0
AnchorPoint: "ogonek" 269 13 basechar 0
AnchorPoint: "top_akzent" 320 645 basechar 0
LayerCount: 2
Fore
SplineSet
176 -10 m 3xd8
 120 -10 88 12 71 29 c 0
 57 43 48 57 48 71 c 3xe8
 48 79 51 88 58 95 c 0
 66 105 80 110 92 110 c 3
 100 110 111 108 116 103 c 0xd0
 121 98 124 90 126 83 c 0
 133 58 149 23 193 23 c 3
 233 23 273 39 273 94 c 3xe8
 273 115 256 149 203 185 c 0
 138 230 116 263 116 314 c 3
 116 370 169 439 256 439 c 3
 307 439 334 426 351 409 c 0
 365 395 374 381 374 367 c 3
 374 359 371 350 364 343 c 0
 356 333 342 328 330 328 c 3
 322 328 311 330 306 335 c 0
 301 340 298 347 296 355 c 0xd4
 289 380 276 406 243 406 c 3
 225 406 209 397 199 385 c 0
 188 371 181 354 181 335 c 3
 181 301 205 283 241 259 c 0
 320 207 339 162 339 118 c 3
 339 44 279 -10 176 -10 c 3xd8
EndSplineSet
Validated: 1
Substitution2: "'sinf' Wissenschaftliche Indices 1" s.inferior
Substitution2: "'sups' Hochgestellte 1" s.superior
Substitution2: "'smcp' Gemeine nach Kapitaelchen 1" s.sc
AlternateSubs2: "LinLibertine-'aalt' Alle Alternativen zeigen 1" s.sc
EndChar
StartChar: t
Encoding: 116 116 302
Width: 307
VWidth: 999
Flags: MW
HStem: -10 65<191.496 231.233> 390 39<113.706 176.545 259.479 360.463> 556.669 20G<242.662 282.866>
VStem: 106.545 262.934
DStem2: 136.444 206.996 212 213.996 0.215867 0.976423<-129.772 187.346 243.329 377.973>
AnchorPoint: "unten_punkt" 133 -107 basechar 0
AnchorPoint: "unten_anhang" 159 -3 basechar 0
AnchorPoint: "ogonek" 221 15 basechar 0
LayerCount: 2
Fore
SplineSet
185.479 429 m 5
 201 499 l 6
 211.37 545.77 218.329 576.669 266.995 576.669 c 7
 298.737 576.669 282.114 546.502 272 494 c 6
 259.479 429 l 5
 369.479 429 l 1
 373.648 420 364.766 396 352.545 390 c 9
 250.545 390 l 1
 212 213.996 l 2
 191.574 123.088 177.88 55 209 55 c 3
 225 55 243 60 289 112 c 1
 301 112 308 106 311 93 c 1
 276.5 31 210.5 -10 161 -10 c 3
 91.9348 -10 112.671 101.142 136.444 206.996 c 2
 176.545 390 l 1
 106.545 390 l 17
 104.42 391.796 103.358 394 104.173 398 c 1
 111.614 410 130.24 427 136.479 429 c 9
 185.479 429 l 5
EndSplineSet
Validated: 524321
Substitution2: "'sinf' Wissenschaftliche Indices 1" t.inferior
Substitution2: "'sups' Hochgestellte 1" t.superior
Substitution2: "'smcp' Gemeine nach Kapitaelchen 1" t.sc
AlternateSubs2: "LinLibertine-'aalt' Alle Alternativen zeigen 1" t.sc
EndChar
StartChar: u
Encoding: 117 117 303
Width: 506
VWidth: 999
Flags: W
HStem: -10 60<155.449 249.182 394.753 460.664> 395 28<99.5485 143> 416 20G<211 233.624 468 492.5>
VStem: 105.799 81.7871<51.2987 190.058> 352 78<13.0709 125.549> 428 78<319.717 433.119>
DStem2: 84.8412 -10 161.141 -10 0.207912 0.978148<120.689 405.386> 335.092 -10 412.975 -10 0.207912 0.978148<92.4828 139.038 161.104 452.464>
LayerCount: 2
Back
SplineSet
156 320.999 m 2xb8
 163.609 356.042 170.291 389.726 143 392 c 2
 103 395 l 1
 97 404 95.3467 415 102 423 c 1xd8
 144 429 195 436 227 436 c 3
 240.248 436 247.495 428.507 247.495 414.854 c 3
 247.495 397.794 239.608 359.463 231.285 320.248 c 2
 196 154 l 2
 191.641 133.462 187.586 110.042 187.586 90.6328 c 3
 187.586 67.457 193.794 50 218 50 c 3
 263 50 370 147 392 244 c 2
 417 357 l 2
 422 378 424 402 428 412 c 0
 435 429 452 439 484 439 c 3
 501 439 506 430 506 417 c 3xb4
 506 401 497.696 379.07 493 358 c 2
 453.996 182.991 l 2
 434.389 95.0137 430 71.7539 430 64 c 3
 430 53.25 437.224 50 442 50 c 3
 452 50 468 66 495 103 c 1
 508 103 512.759 95.5137 518 87 c 1
 492 30 453 -10 391 -10 c 3
 359.5 -10 352 14 352 33 c 3
 352 45 353.829 64.9727 358 90 c 2
 364 126 l 9
 363 127 l 1
 298 38 240 -10 178 -10 c 3
 121.362 -10 105.799 21.8311 105.799 62.877 c 3
 105.799 88.8076 112.011 118.416 118 146 c 2
 156 320.999 l 2xb8
EndSplineSet
Fore
SplineSet
449.91 178.992 m 2x9a
 433.487 105.663 429.619 82.4033 429.619 63.7734 c 3
 429.619 45.4346 436.064 35.1953 452.006 34 c 2
 492.006 31 l 1
 498.006 22 498.659 11 493.006 3 c 1x4c
 446.006 -5 401.006 -10 369.006 -10 c 3
 350.584 -10 347.246 14.1357 347.246 30.8262 c 3
 347.246 42.8262 350.335 65.9189 356 90 c 2
 363.999 124 l 9
 360 127 l 1
 295 38 237 -10 175 -10 c 3
 118.362 -10 102.799 21.8311 102.799 62.877 c 3
 102.799 88.8076 109.011 118.416 115 146 c 2
 153 320.999 l 2
 160.609 356.042 167.291 389.726 140 392 c 2
 100 395 l 1
 94 404 92.3467 415 99 423 c 1xac
 141 429 192 436 224 436 c 3
 237.248 436 244.495 428.507 244.495 414.854 c 3
 244.495 397.794 236.608 359.463 228.285 320.248 c 2
 193 154 l 2
 188.641 133.462 184.586 110.042 184.586 90.6328 c 3
 184.586 67.457 190.794 50 215 50 c 3
 260 50 367 147 389 244 c 2
 414 357 l 2
 419 378 421 402 425 412 c 0
 432 429 449 439 481 439 c 3
 498 439 503 430 503 417 c 3
 503 401 494.718 379.065 490 358 c 2
 449.91 178.992 l 2x9a
EndSplineSet
Validated: 8913441
Substitution2: "'ss04' Stilgruppe 4 lookup 31-1" u.str
Substitution2: "'sinf' Wissenschaftliche Indices 1" u.inferior
Substitution2: "'sups' Hochgestellte 1" u.superior
Substitution2: "'smcp' Gemeine nach Kapitaelchen 1" u.sc
AlternateSubs2: "LinLibertine-'aalt' Alle Alternativen zeigen 1" u.sc
EndChar
StartChar: v
Encoding: 118 118 304
Width: 454
VWidth: 999
Flags: W
HStem: -10 50<128 258.122> 395 28<87.8473 132> 416 20G<202 222 419.5 434.5>
VStem: 113 82<19 157.42> 166 80<215.063 388.598> 403 77<212.409 384.28>
LayerCount: 2
Back
SplineSet
304.555 76 m 1
 309 73.5 l 1
 322.907 84.7998 358.945 131.646 371.562 148.5 c 4
 410.155 200.057 447.045 277.667 447.045 321.462 c 7
 447.045 337.891 441.248 358.628 426 381.5 c 4
 422.715 386.427 420.5 395.833 420.5 402 c 7
 420.5 426.333 437.667 439 467 439 c 7
 505.5 439 519.449 420.079 519.449 391.639 c 4
 519.449 356.41 507.141 319.793 492.27 285 c 4
 464.023 218.915 418.312 158.409 396.5 127.5 c 4
 382.084 107.072 344.121 58.8818 313.249 24.5 c 0
 294.377 3.4834 280.512 -12 270 -12 c 3
 256.417 -12 245.598 7.86133 238 52 c 2
 196 296 l 2
 188.375 340.296 182.5 357 173 357 c 3
 153.993 357 131 335.667 102.999 308.668 c 1
 91.833 310.168 84.333 316.5 81.666 326.832 c 1
 116.667 380.167 174.5 439 208 439 c 3
 245 439 257 402 271 309 c 2
 304.555 76 l 1
EndSplineSet
Fore
SplineSet
132 392 m 2xac
 92 395 l 1
 85 403 85 414 89 423 c 1xcc
 135 430 189 436 215 436 c 3
 229 436 235 426 240 410 c 0
 244 397 246 372 246 355 c 3xac
 246 306 232 244 211 160 c 0
 203 130 195 85 195 67 c 3
 195 47 197 40 208 40 c 3
 257 40 301 73 328 102 c 0
 370 146 403 212 403 294 c 3
 403 325 396 358 384 379 c 0
 378.453 388.707 374 398 374 404 c 3
 374 425 410 439 429 439 c 3
 440 439 450 428 458 412 c 0
 472 384 480 351 480 309 c 3
 480 218 419 127 363 76 c 0
 307 25 233 -10 137 -10 c 3
 119 -10 113 7 113 31 c 3xb4
 113 69 136.529 166.115 146 204 c 0
 155 240 166 294 166 333 c 3
 166 365 158 390 132 392 c 2xac
EndSplineSet
Validated: 524833
Substitution2: "'ss05' Stilgruppe 5 lookup 32-1" v.stv
Substitution2: "'sinf' Wissenschaftliche Indices 1" v.inferior
Substitution2: "'sups' Hochgestellte 1" v.superior
Substitution2: "'smcp' Gemeine nach Kapitaelchen 1" v.sc
AlternateSubs2: "LinLibertine-'aalt' Alle Alternativen zeigen 1" v.sc
EndChar
StartChar: w
Encoding: 119 119 305
Width: 692
VWidth: 999
Flags: W
HStem: -10 54<157.029 239.775 399.962 496.956> 395 28<87.8473 132> 411.618 24.3818G<202 222 440.655 457.117 655.5 670.5>
VStem: 113 82<11.8364 157.425> 166 80<215.063 388.598> 356.32 81.0898<18.6484 144.399> 400.95 77.6885<186.477 415.202> 639 77<212.409 384.28>
AnchorPoint: "top_akzent" 347 646 basechar 0
AnchorPoint: "unten_punkt" 195 -113 basechar 0
AnchorPoint: "unten_anhang" 230.39 -3 basechar 0
AnchorPoint: "ogonek" 364.952 44 basechar 0
AnchorPoint: "komb_OR" 486.567 396 basechar 0
LayerCount: 2
Back
SplineSet
265 -12 m 3
 256 -12 246.682 1.56543 238 52 c 2
 196 296 l 2
 188.375 340.296 182.5 357 173 357 c 3
 153.993 357 131 335.667 102.999 308.668 c 1
 91.833 310.168 84.333 316.5 81.666 326.832 c 1
 116.667 380.167 174.5 439 208 439 c 3
 245 439 256.175 401.873 271 309 c 2
 305 96 l 1
 307.5 94.5 l 1
 331.005 130.506 396.355 249.496 438 346 c 1
 454 354 470.5 357.5 487 358 c 1
 494 340.5 502.719 307.093 511.907 269 c 0
 524.954 214.907 538.329 148.424 546.85 96 c 1
 554.406 94 l 1
 567.554 108.396 583.604 127.622 599.062 148.5 c 0
 637.095 199.872 663.045 276.5 663.045 321.462 c 3
 663.045 337.891 657.248 358.628 642 381.5 c 0
 638.715 386.427 636.5 395.833 636.5 402 c 3
 636.5 426.333 653.667 439 683 439 c 3
 721.5 439 735.449 420.079 735.449 391.639 c 0
 735.449 356.41 723.141 319.793 708.27 285 c 0
 680.023 218.915 644.812 157.409 623 126.5 c 0
 608.584 106.072 576.866 61.083 548 25 c 0
 528 0 513.511 -12 502 -12 c 3
 493.333 -12 486 -2 479.003 46.332 c 0
 469.333 113.126 454 194 439.5 258 c 1
 433.5 257 l 1
 398.916 181.904 343.771 85.5176 306.6 27 c 0
 290.929 2.33008 272.667 -12 265 -12 c 3
EndSplineSet
Fore
SplineSet
208 44 m 3xb1
 211.909 44 226.668 47.4297 233 50.667 c 0
 303.395 86.6572 360.75 151 386.947 192.112 c 1
 387.966 196.741 388.811 200.903 389.427 204.5 c 0
 397.083 249.224 400.95 289.308 400.95 314.562 c 3
 400.95 334.804 398.967 355.069 396.172 375.5 c 0
 394.91 384.718 392 395.246 392 403.266 c 3
 392 409.006 400.023 416.245 407 420.689 c 0
 415.991 426.419 431.45 431.618 449.859 431.618 c 3
 464.374 431.618 469.03 421.64 471.5 409.5 c 0
 475.924 387.748 478.639 363.336 478.639 338.139 c 3xb3
 478.639 285.136 471.161 237.323 460.649 188.5 c 0
 451.5 146 437.41 111.844 437.41 73 c 3
 437.41 53.0596 439.559 44 450 44 c 3
 491.679 44 537 73 564 102 c 0
 606 146 639 212 639 294 c 3
 639 325 632 358 620 379 c 0
 614.453 388.707 610 398 610 404 c 3
 610 425 646 439 665 439 c 3
 676 439 686 428 694 412 c 0
 708 384 716 351 716 309 c 3
 716 218 655 127 599 76 c 0
 543 25 474 -10 378 -10 c 3
 362.369 -10 356.32 6.54688 356.32 30.75 c 3
 356.32 53.5703 361.405 82.5215 367.781 111.469 c 1
 367.625 111.766 367.359 111.75 367.091 111.728 c 1
 328.5 72.5 295.489 36.8166 239.999 11.334 c 0
 210.481 -2.22168 172.011 -10 137 -10 c 3
 119 -10 113 7 113 31 c 3xb5
 113 69 136.529 166.115 146 204 c 0
 155 240 166 294 166 333 c 3
 166 365 158 390 132 392 c 2
 92 395 l 1
 85 403 85 414 89 423 c 1xc9
 135 430 189 436 215 436 c 3
 229 436 234.999 426 239.999 410 c 0
 243.999 397 246 372 246 355 c 3xa9
 246 306 232 244 211 160 c 0
 203 130 195 89 195 71 c 3
 195 51 197 44 208 44 c 3xb1
EndSplineSet
Validated: 524833
Substitution2: "'ss05' Stilgruppe 5 lookup 32-1" w.stv
Substitution2: "'sinf' Wissenschaftliche Indices 1" w.inferior
Substitution2: "'sups' Hochgestellte 1" w.superior
Substitution2: "'smcp' Gemeine nach Kapitaelchen 1" w.sc
AlternateSubs2: "LinLibertine-'aalt' Alle Alternativen zeigen 1" w.sc
EndChar
StartChar: x
Encoding: 120 120 306
Width: 475
VWidth: 999
Flags: W
HStem: -10 52<65.776 146.137 343.485 425.505> 366 73<165.592 235.5 443.524 525.996> 386 53<413.738 504.091>
DStem2: 157 73 195 68 0.57818 0.815909<-49.1903 139.377 253.07 418.724> 276 367 215 309 0.306009 -0.952029<-8.20106 92.3468 136.616 141.512 185.782 345.381>
AnchorPoint: "unten_punkt" 224 -110 basechar 0
AnchorPoint: "unten_anhang" 84 8 basechar 0
AnchorPoint: "top_akzent" 366 646 basechar 0
LayerCount: 2
Fore
SplineSet
215 309 m 2xa0
 209 326 203 343 198 351 c 0
 193 359 183 366 170 366 c 3
 151 366 116 351 104 345 c 1
 96 353 92 361 91 372 c 1
 126 398 199 439 223 439 c 3
 248 439 259 419 276 367 c 2
 304 279 l 1
 354 351 l 2
 396.443 412.118 429.157 439 482 439 c 3xc0
 508.675 439 534 417.667 534 396 c 3
 534 382.629 516.499 360.001 499.499 360.001 c 3
 487.201 360.001 477.743 365.345 470.333 372.787 c 0
 462.216 380.939 454.221 386 443 386 c 3
 422 386 407 368 377 324 c 2
 318 237 l 1
 366 87 l 2
 376.91 54.4717 385 42 394 42 c 3
 405 42 419 48 445 81 c 1
 456 79 465 71 469 62 c 1
 441.468 15.8166 406 -10 365 -10 c 3
 321.971 -10 311.04 11.6624 298 55 c 2
 264 168 l 1
 195 68 l 2
 151 5 122 -10 88 -10 c 3
 63 -10 37 10 37 31 c 3
 37 51 56 68 71 68 c 3
 83 68 90.7979 63.4941 98 53 c 0
 103.833 44.5 111.666 38.832 119.666 38.832 c 3
 129.666 38.832 137.522 44.3064 157 73 c 2
 250 210 l 1
 215 309 l 2xa0
EndSplineSet
Validated: 524289
Substitution2: "'sinf' Wissenschaftliche Indices 1" x.inferior
Substitution2: "'sups' Hochgestellte 1" x.superior
Substitution2: "'smcp' Gemeine nach Kapitaelchen 1" x.sc
AlternateSubs2: "LinLibertine-'aalt' Alle Alternativen zeigen 1" x.sc
EndChar
StartChar: y
Encoding: 121 121 307
Width: 479
VWidth: 999
Flags: W
HStem: -234 62<83.1972 168.586> 364 75<162.522 231.5>
DStem2: 250 -66 293 -70 0.536365 0.843986<-136.125 48.966 138.666 366.548>
AnchorPoint: "unten_punkt" 368 -107 basechar 0
AnchorPoint: "top_akzent" 367 644 basechar 0
LayerCount: 2
Back
SplineSet
440 294 m 3
 440 325 433 358 421 379 c 0
 415.453 388.707 411 398 411 404 c 3
 411 425 447 439 466 439 c 3
 477 439 487 428 495 412 c 0
 509 384 517 351 517 309 c 1027
741 338 m 0
 775.312 289.962 826 -32 812 -62 c 1
 771 -129 742.101 -152 726 -152 c 0
 714.5 -152 689.675 -135.125 682.775 -127.875 c 0
 674.725 -119.175 652.2 -108 643 -108 c 0
 619 -108 590.775 -135 590.775 -178.625 c 0
 590.775 -225.025 640.225 -236.625 659.775 -236.625 c 0
 719.575 -236.625 807.215 -170.928 869 -70 c 2
 1060 242 l 2
 1098.09 304.228 1110.5 343.992 1110.5 392.5 c 3
 1110.5 427.5 1071 439 1046 439 c 3
 1025 439 989 431.5 989 409.5 c 3
 989 374.485 1016 353.252 1016 331.5 c 3
 1016 310 1011.54 268.782 983.5 222 c 2
 902 86 l 1
 898 87 l 1
 892 180 885 262 860 365 c 0
 846 418 833 439 808 439 c 3
 773 439 677 392.5 641 371.5 c 1
 642.447 360.646 650 340.5 658 332.814 c 1
 670 338.5 696.035 350.5 716.5 350.5 c 3
 729.5 350.5 733.5 348.5 741 338 c 0
EndSplineSet
Fore
SplineSet
415 122 m 2
 293 -70 l 2
 229 -170 165 -234 106 -234 c 3
 75 -234 54 -216 54 -188 c 3
 54 -165 75 -143 96 -143 c 3
 113 -143 116 -150 126 -160 c 0
 137 -171 144 -172 153 -172 c 3
 166 -172 176 -164 188 -152 c 0
 207 -133 225 -107 250 -66 c 2
 260 -50 l 1
 262 -39 261 -21 258 13 c 0
 251 100 230 239 209 309 c 0
 204 327 198 343 192 351 c 0
 186 359 177 364 166 364 c 3
 146 364 120 355 107 348 c 1
 99 356 95 363 94 374 c 1
 129 400 195 439 219 439 c 3
 244 439 258 418 271 365 c 0
 300 246 316 160 323 51 c 1
 326 50 l 1
 352 89 386 148 386 148 c 2
 437 230 436.855 284.541 438 315.001 c 0
 438.676 332.988 433.135 361.649 423.825 382.103 c 0
 420.676 388.59 414.515 402.555 415.736 411.472 c 0
 417.365 423.365 454.832 441.443 474.978 438.684 c 0
 491.82 436.376 501.972 417.153 508.229 386.689 c 0
 528.741 286.809 462 196 415 122 c 2
EndSplineSet
Validated: 524321
Substitution2: "'sinf' Wissenschaftliche Indices 1" y.inferior
Substitution2: "'sups' Hochgestellte 1" y.superior
Substitution2: "'smcp' Gemeine nach Kapitaelchen 1" y.sc
AlternateSubs2: "LinLibertine-'aalt' Alle Alternativen zeigen 1" y.sc
EndChar
StartChar: z
Encoding: 122 122 308
Width: 436
VWidth: 488
Flags: MW
HStem: -10 77<251.946 365.067> 41 60.999<175.905 215.473> 354 58<256.44 403.515> 363 76<159.224 334.769>
DStem2: 109 86 150.25 77.125 0.676587 0.736362<21.374 361.173>
AnchorPoint: "unten_punkt" 187 -111 basechar 0
AnchorPoint: "unten_anhang" 208 4 basechar 0
AnchorPoint: "top_akzent" 360 646 basechar 0
LayerCount: 2
Back
SplineSet
438 444 m 1x20
 450.5 444 459.75 436.875 464.75 427.375 c 1
 464.75 427.375 437 392 412 362 c 0
 355.468 292.054 245.688 179.877 175.905 101.999 c 1x60
 267.882 101.999 262.392 67 313 67 c 0
 341 67 369 74 407 135 c 1
 419 135 427.081 129.719 433 123 c 1
 386 15 353 -10 310 -10 c 0x80
 282 -10 249 0 224 15 c 0
 192 35 165 41 148 41 c 0
 138 41 100 25 78 -12 c 1
 65.875 -12 53.5 -4.375 52 6 c 1
 59.875 20.875 91.6606 64.2071 116 91 c 2
 356.522 355.768 l 1
 346.604 354.386 338.576 354 325 354 c 0x60
 296 354 258 363 213 363 c 0
 167 363 150 353 129 307 c 1
 118 307 109 310 102 317 c 1
 119 376 164 439 199 439 c 0x10
 227 439 257 435 305 426 c 0
 352.229 417.145 366 412 384 412 c 3
 400 412 415 418 438 444 c 1x20
EndSplineSet
Fore
SplineSet
438 444 m 1x20
 450.5 444 462.75 440.875 467.75 431.375 c 1
 467.75 431.375 438.423 390.757 412 362 c 2
 412 362 220.033 155.003 150.25 77.125 c 1x60
 150.667 75.9141 l 1
 205.972 80.2314 268.802 72 318 72 c 0
 346 72 374 74 407 135 c 1
 419 135 428.081 131.719 434 125 c 1
 390 5 343 -10 315 -10 c 0x80
 262.798 -10 148.667 26 101.667 15.0879 c 1
 93.8477 11.623 84.0107 3.07812 71 -17 c 1
 58.875 -17 41.5 -14.375 40 -4 c 1
 57 24.667 84.6602 59.207 109 86 c 2
 353.179 352.125 l 1
 352.375 353.125 l 1
 352.375 353.125 338.576 349 325 349 c 0x60
 296 349 258 358 213 358 c 0
 167 358 150 353 129 307 c 1
 118 307 109 310 102 317 c 1
 119 376 164 439 199 439 c 0x10
 227 439 257 435 305 426 c 0
 352.229 417.145 366 412 384 412 c 3
 400 412 415 418 438 444 c 1x20
EndSplineSet
Validated: 524321
Substitution2: "'sinf' Wissenschaftliche Indices 1" z.inferior
Substitution2: "'sups' Hochgestellte 1" z.superior
Substitution2: "'smcp' Gemeine nach Kapitaelchen 1" z.sc
AlternateSubs2: "LinLibertine-'aalt' Alle Alternativen zeigen 1" z.sc
EndChar
StartChar: braceleft
Encoding: 123 123 309
Width: 265
VWidth: 999
Flags: MW
HStem: -212 24<180.059 211.072> 235 24<57.8988 97.7499> 683 24<349.661 385.072>
DStem2: 92 -49 160 -54 0.203301 0.979116<-84.1511 252.423>
LayerCount: 2
Fore
SplineSet
278 552 m 2
 253 386 l 2
 240 297 194 268 126 249 c 1
 125 245 l 1
 185 217 217 177 197 95 c 2
 160 -54 l 2
 139 -138 169 -188 211 -188 c 1
 216 -194 213 -206 206 -212 c 1
 109 -212 62 -179 92 -49 c 2
 131 121 l 2
 145 182 128 226 59 235 c 1
 53 243 54 250 64 259 c 1
 136 266 169 320 179 370 c 2
 209 554 l 2
 227 667 299 707 385 707 c 1
 390 701 387 689 380 683 c 1
 341 672 293 655 278 552 c 2
EndSplineSet
Validated: 33
Substitution2: "'case' Versalformen 1" braceleft.sc
Substitution2: "'c2sc' Versale nach Kapitaelchen 1" braceleft.sc
AlternateSubs2: "LinLibertine-'aalt' Alle Alternativen zeigen 1" braceleft.sc
EndChar
StartChar: bar
Encoding: 124 124 310
Width: 205
VWidth: 999
Flags: HMW
HStem: -233 10G<40 86> 642 10G<194 240>
DStem2: 40 -233 84 -233 0.173382 0.984855<7.70401 898.374>
LayerCount: 2
Fore
SplineSet
84 -233 m 1
 40 -233 l 1
 196 652 l 1
 240 652 l 1
 84 -233 l 1
EndSplineSet
Validated: 1
EndChar
StartChar: braceright
Encoding: 125 125 311
Width: 265
VWidth: 999
Flags: MW
HStem: -213 24<-16.0721 19.3394> 235 24<271.25 311.101> 682 24<157.928 188.941>
DStem2: 277 543 209 548 0.203301 0.979116<-252.423 84.1511>
LayerCount: 2
Fore
SplineSet
91.0234 -58 m 2
 116.023 108 l 2
 129.023 197 175.023 226 243.023 245 c 1
 244.023 249 l 1
 184.023 277 152.023 317 172.023 399 c 2
 209.023 548 l 2
 230.023 632 200.023 682 158.023 682 c 1
 153.023 688 156.023 700 163.023 706 c 1
 260.023 706 307.023 673 277.023 543 c 2
 238.023 373 l 2
 224.023 312 241.023 268 310.023 259 c 1
 316.023 251 315.023 244 305.023 235 c 1
 233.023 228 200.023 174 190.023 124 c 2
 160.023 -60 l 2
 142.023 -173 70.0234 -213 -15.9766 -213 c 1
 -20.9766 -207 -17.9766 -195 -10.9766 -189 c 1
 28.0234 -178 76.0234 -161 91.0234 -58 c 2
EndSplineSet
Validated: 524321
Substitution2: "'case' Versalformen 1" braceright.sc
Substitution2: "'c2sc' Versale nach Kapitaelchen 1" braceright.sc
AlternateSubs2: "LinLibertine-'aalt' Alle Alternativen zeigen 1" braceright.sc
EndChar
StartChar: asciitilde
Encoding: 126 126 312
Width: 449
VWidth: 999
Flags: HMW
HStem: 213 59<296 398> 278 59<149 251>
LayerCount: 2
Fore
SplineSet
63 209 m 1
 87 274 153 337 213 337 c 0
 259 337 304 272 349 272 c 0
 377 272 429 289 460 339 c 1
 476 333 l 1
 426 226 359 213 335 213 c 0
 282 213 249 278 197 278 c 0
 162 278 106 250 75 206 c 1
 63 209 l 1
EndSplineSet
Validated: 1
EndChar
StartChar: cent
Encoding: 162 162 315
Width: 438
VWidth: 999
Flags: HW
HStem: -12 21G<216 253.893> 61 60<209.909 312.142> 473 37<271.195 347.608>
VStem: 104 83<143.909 340.629> 359.868 80.604<407.642 466.641>
LayerCount: 2
Fore
SplineSet
332 584 m 1
 366 584 l 1
 250 -12 l 1
 216 -12 l 1
 332 584 l 1
EndSplineSet
Refer: 285 99 N 1 0 0 1 21 71 2
Validated: 524293
EndChar
StartChar: sterling
Encoding: 163 163 316
Width: 445
VWidth: 438
Flags: W
HStem: -11 55<264.794 377.003> 49 42<159 201.582> 300 39<130.5 192 282 402.899> 563 48<376.515 473>
VStem: 18 75<-5.12564 44.272>
DStem2: 125.933 -11 207.895 -11 0.207912 0.978148<194.962 317.94 374.8 502.072>
LayerCount: 2
Fore
SplineSet
132 300 m 2
 127 300 126 302 127 307 c 2
 130 318 l 2
 132 326 140 339 157 339 c 2
 200 339 l 1
 204 359 l 2
 221 444 258 498 322 552 c 0
 363 588 411 611 462 611 c 3
 484 611 536 598 529 562 c 0
 524 537 504 521 481 521 c 3
 467 521 459 529 450 540 c 0
 440 552 428 563 407 563 c 3
 363 563 314 497 296 410 c 2
 282 339 l 1
 401 339 l 2
 406 339 408 337 407 333 c 2
 403 313 l 2
 401 305 389 300 378 300 c 2
 274 300 l 1
 249 181 198 123 159 91 c 1
 278 91 258 44 324 44 c 3
 353 44 400 52 432 88 c 1
 439 87 445 84 447 77 c 1
 413 25 358 -11 296 -11 c 3
 210 -11 220 49 136 49 c 3
 102 49 95 35 93 24 c 0
 88 1 68 -11 47 -11 c 3
 29 -11 15 1 18 17 c 0
 22 36 49 52 78 67 c 1
 143 110 169 190 188 281 c 2
 192 300 l 1
 132 300 l 2
EndSplineSet
Validated: 33
EndChar
StartChar: currency
Encoding: 164 164 317
Width: 438
VWidth: 487
Flags: W
HStem: 124 42<186.22 313.725> 432 42<228.928 352.943>
VStem: 90 61<201.137 350.874> 389 61<244.505 396.418>
LayerCount: 2
Fore
SplineSet
154 300 m 0
 152 290 151 281 151 271 c 0
 151 212 186 166 248 166 c 0
 317 166 374 228 387 299 c 0
 388 308 389 317 389 326 c 0
 389 387 351 432 296 432 c 0
 227 432 167 371 154 300 c 0
240 124 m 0
 200 124 166 136 138 160 c 1
 86 106 l 1
 52 146 l 1
 113 189 l 1
 98 213 90 239 90 268 c 0
 90 277 91 288 93 299 c 0
 101 341 121 378 152 409 c 1
 108 450 l 1
 152 489 l 1
 188 439 l 1
 225 462 263 474 302 474 c 0
 342 474 376 461 404 437 c 1
 460 492 l 1
 492 451 l 1
 429 407 l 1
 443 385 450 360 450 332 c 0
 450 321 449 310 447 299 c 0
 440 259 422 223 392 191 c 1
 436 147 l 1
 393 109 l 1
 356 161 l 1
 319 136 281 124 240 124 c 0
EndSplineSet
Validated: 1
EndChar
StartChar: yen
Encoding: 165 165 318
Width: 438
VWidth: 999
Flags: W
HStem: -1 29<95.0491 179.542 278.077 348> 127 39<81 429> 229 40<101 449> 548 27<104 145.125 233.202 282.938 411 449.088 503.313 561.938>
DStem2: 298 290 160 501 0.271138 -0.96254<-252.133 0> 298 290 308 241 0.535335 0.84464<0 287.465>
LayerCount: 2
Fore
SplineSet
457 269 m 1
 449 229 l 1
 93 229 l 1
 101 269 l 1
 457 269 l 1
437 166 m 1
 429 127 l 1
 73 127 l 1
 81 166 l 1
 437 166 l 1
194 72 m 2
 230 257 l 1
 160 501 l 2
 152 530 143 547 116 547 c 2
 109 547 l 2
 106 548 100 549 101 555 c 2
 104 573 l 1
 106 575 l 1
 117 573 184 572 197 572 c 0
 203 572 269 573 284 575 c 1
 285 573 l 1
 282 556 l 2
 281 552 278 547 273 547 c 2
 260 547 l 2
 242 547 235 542 233 534 c 0
 232 526 235 516 238 503 c 2
 298 290 l 1
 433 503 l 2
 441 517 448 528 449 535 c 0
 451 544 445 548 427 548 c 2
 412 548 l 2
 407 548 406 552 407 555 c 2
 411 573 l 1
 412 575 l 1
 420 574 477 572 490 572 c 0
 499 572 543 573 562 575 c 1
 564 573 l 1
 561 556 l 2
 560 552 559 548 550 548 c 2
 543 548 l 2
 514 548 492 530 474 501 c 2
 308 241 l 1
 275 72 l 2
 269 41 282 28 321 28 c 2
 348 28 l 2
 352 28 355 25 354 20 c 2
 351 1 l 1
 348 -1 l 1
 348 -1 262 1 223 1 c 0
 187 1 93 -1 93 -1 c 1
 92 1 l 1
 95 20 l 2
 96 25 100 28 105 28 c 2
 131 28 l 2
 172 28 189 44 194 72 c 2
EndSplineSet
Validated: 37
Substitution2: "LinLibertine-'pnum' Proportionalziffern 1" Yen.fitted
EndChar
StartChar: brokenbar
Encoding: 166 166 319
Width: 205
VWidth: 999
Flags: W
VStem: 45 204
DStem2: 45 -201 94 -201 0.174427 0.98467<8.54694 367.614 529.556 888.623>
LayerCount: 2
Fore
SplineSet
249 674 m 1
 185 312 l 1
 136 312 l 1
 200 674 l 1
 249 674 l 1
158 161 m 1
 94 -201 l 1
 45 -201 l 1
 109 161 l 1
 158 161 l 1
EndSplineSet
Validated: 1
EndChar
StartChar: section
Encoding: 167 167 320
Width: 452
VWidth: 999
Flags: HMW
LayerCount: 2
Back
SplineSet
237 396 m 1
 200.59 369.229 167.399 343.572 167.399 283.352 c 0
 167.399 213.143 225.739 177.841 281 141 c 0
 362.5 87.466 388.456 47.3389 388.456 -1.31611 c 3
 388.456 -102.274 306.582 -172 203 -172 c 3
 116.278 -172 81.7088 -122.443 81.7088 -84.0715 c 3
 81.7088 -63.6429 90.767 -33 127 -33 c 3
 153 -33 158 -55 159 -74 c 0
 161 -112 168 -141 211 -141 c 3
 265.195 -141 313.695 -95.6254 313.695 -35.931 c 3
 313.695 0.0395622 293.731 30.197 246 59 c 0
 185.73 95.3393 102.678 134.035 102.678 228.005 c 0
 102.678 268.313 117.356 349.317 217 417 c 1
 237 396 l 1
339 89 m 1
 377.041 115.153 408.601 144.543 408.601 202.648 c 3
 408.601 272.857 350.262 308.159 295 345 c 0
 213.5 398.534 187.544 448.661 187.544 497.316 c 3
 187.544 581.833 249.001 658 367 658 c 3
 453.722 658 494.291 608.443 494.291 570.072 c 0
 494.291 549.643 488.233 519 452 519 c 3
 426 519 418 541 417 560 c 0
 415 598 406 627 363 627 c 3
 309.035 627 262.386 591.945 262.386 532.566 c 3
 262.386 496.315 282.989 455.972 331 427 c 0
 391.27 390.661 474.322 351.965 474.322 257.995 c 3
 474.322 217.255 460.544 136.936 362 70 c 1
 339 89 l 1
EndSplineSet
Fore
SplineSet
223 401 m 1xe2
 190 376 167 352 160 315 c 0xe2
 142 223 206 183 267 141 c 0
 365 74 382 28 369 -40 c 0
 356 -106 292 -172 193 -172 c 3
 100 -172 71 -110 79 -71 c 0
 83 -50 95 -33 121 -33 c 3
 146 -33 152 -55 153 -74 c 0xca
 155 -112 164 -141 205 -141 c 3
 250 -141 289 -106 298 -60 c 0
 307 -13 290 24 234 59 c 0
 168 100 75 144 99 267 c 0
 112 332 151 380 201 416 c 1
 223 401 l 1xe2
324 85 m 1
 354 107 379 137 386 171 c 0xd1
 404 263 340 303 279 345 c 0
 181 412 165 458 178 526 c 0
 191 592 254 658 353 658 c 3
 446 658 475 596 467 557 c 0
 463 536 451 519 425 519 c 3
 400 519 395 541 394 560 c 0xd4
 392 598 383 627 342 627 c 3
 297 627 257 592 248 546 c 0
 239 499 256 462 312 427 c 0
 378 386 472 342 448 219 c 0xd1
 435 152 396 106 346 70 c 1
 324 85 l 1
EndSplineSet
Validated: 37
EndChar
StartChar: dieresis
Encoding: 168 168 321
Width: 375
VWidth: 999
Flags: W
HStem: 525 95<158.016 235.984 327.016 404.984>
VStem: 150 94<532.394 612.312> 319 94<532.394 612.312>
LayerCount: 2
Fore
SplineSet
319 572 m 3
 319 598 340 620 366 620 c 3
 392 620 413 598 413 572 c 3
 413 546 392 525 366 525 c 3
 340 525 319 546 319 572 c 3
150 572 m 3
 150 598 171 620 197 620 c 3
 223 620 244 598 244 572 c 3
 244 546 223 525 197 525 c 3
 171 525 150 546 150 572 c 3
EndSplineSet
Validated: 1
EndChar
StartChar: copyright
Encoding: 169 169 322
Width: 633
VWidth: 999
Flags: W
HStem: 23 32<231.304 402.003> 153 27<275.928 375.093> 435 21<280.464 373.86> 557 31<231.489 402.203>
VStem: 34 31<221.137 391.203> 168 56<226.282 383.831> 568 31<220.751 391.203>
LayerCount: 2
Fore
SplineSet
437 217 m 1
 417 186 377 153 322 153 c 0
 226 153 168 227 168 307 c 0
 168 380 225 456 319 456 c 0
 389 456 388 442 422 442 c 1
 434 364 l 1
 407 360 l 1
 399 404 393 435 320 435 c 0
 283 435 224 410 224 305 c 0
 224 238 257 180 325 180 c 0
 376 180 405 215 416 231 c 1
 437 217 l 1
EndSplineSet
Refer: 2100 57600 N 1 0 0 1 0 0 3
Validated: 1
EndChar
StartChar: ordfeminine
Encoding: 170 170 323
Width: 276
VWidth: 999
Flags: W
HStem: 358 32<174.789 234.679 287 338.767> 612 25<223.976 294.792>
VStem: 122 50<391.248 462.074> 159 49<539.883 597.094> 267 55<375.124 446.508> 303 48<527.489 610.048>
DStem2: 258.59 358 309.047 358 0.21644 0.976296<59.0499 147.818 175.477 215.106>
LayerCount: 2
Fore
SplineSet
298 358 m 4xc8
 276 358 267 376 267 393 c 0xc8
 267 395 267 396 268 397 c 5
 229 367 210 358 180 358 c 4
 146 358 122 378 122 411 c 0
 122 416 123 422 124 428 c 4
 134 470 178 498 240 514 c 6
 298 529 l 5
 302 545 303 558 303 569 c 0xe4
 303 607 283 612 267 612 c 4xc8
 235 612 213 601 210 585 c 4
 209 581 208 577 208 575 c 0
 208 574 208 573 208 572 c 4
 209 571 209 570 209 568 c 0
 209 565 209 563 208 560 c 4
 206 552 196 539 179 539 c 4
 167 539 159 546 159 557 c 0
 159 559 160 562 160 564 c 4
 169 604 234 637 273 637 c 4
 311 637 351 623 351 564 c 0xd4
 351 552 350 539 346 523 c 6
 329 448 l 6
 324 427 322 413 322 404 c 0
 322 395 324 391 329 391 c 4
 332 391 337 393 341 396 c 5
 346 380 l 5
 336 370 315 358 298 358 c 4xc8
292 502 m 5
 207 480 181 462 173 431 c 4
 172 426 172 422 172 418 c 0xe0
 172 402 181 390 206 390 c 4
 225 390 243 400 273 423 c 5
 292 502 l 5
EndSplineSet
Validated: 1
EndChar
StartChar: guillemotleft
Encoding: 171 171 324
Width: 464
VWidth: 999
Flags: W
LayerCount: 2
Fore
SplineSet
336 215 m 1
 369 174 396 126 431 47 c 1
 398 23 l 1
 351 99 322 142 271 191 c 2
 271 191 260 202 254 207 c 1
 257 223 l 1
 265 228 281 239 281 239 c 2
 352 288 401 331 480 407 c 1
 502 383 l 1
 433 304 387 256 336 215 c 1
173 215 m 1
 206 174 233 126 268 47 c 1
 234 23 l 1
 187 99 158 142 107 191 c 2
 107 191 96 202 90 207 c 1
 93 223 l 1
 101 228 117 239 117 239 c 2
 188 288 237 331 316 407 c 1
 339 383 l 1
 270 304 224 256 173 215 c 1
EndSplineSet
Validated: 1
Substitution2: "'case' Versalformen 1" guillemotleft.sc
Substitution2: "'c2sc' Versale nach Kapitaelchen 1" guillemotleft.sc
AlternateSubs2: "LinLibertine-'aalt' Alle Alternativen zeigen 1" guillemotleft.sc
EndChar
StartChar: logicalnot
Encoding: 172 172 325
Width: 560
VWidth: 487
Flags: W
HStem: 357 44<95 546>
DStem2: 507 133 560 133 0.207912 0.978148<11.0193 227.214>
LayerCount: 2
Fore
SplineSet
507 133 m 1
 546 357 l 1
 87 357 l 1
 95 401 l 1
 607 401 l 1
 560 133 l 1
 507 133 l 1
EndSplineSet
Validated: 1
EndChar
StartChar: uni00AD
Encoding: 173 173 326
Width: 350
VWidth: 999
Flags: W
HStem: 236 54<84.3037 342.119>
VStem: 77 272
LayerCount: 2
Fore
SplineSet
316 236 m 2
 89 236 l 2
 82 236 77 242 77 250 c 0
 77 250 78 252 78 253 c 0
 81 269 98 290 109 290 c 2
 338 290 l 2
 346 290 349 285 349 278 c 0
 349 276 349 274 349 272 c 0
 347 261 329 236 316 236 c 2
EndSplineSet
Validated: 1
EndChar
StartChar: registered
Encoding: 174 174 327
Width: 633
VWidth: 999
Flags: W
HStem: 23 32<231.304 402.003> 167 17<207 237 288 318 424.823 448> 287 21<288 314.802> 430 17<207 236.438 288.239 344.989> 557 31<231.489 402.203>
VStem: 34 31<221.137 391.203> 237 51<184.002 287 308 425.016> 367 50<321.025 421.405> 568 31<220.751 391.203>
DStem2: 360 296 315 283 0.505179 -0.863014<0 134.495>
LayerCount: 2
Fore
SplineSet
367 372 m 0
 367 406 350 430 316 430 c 0
 305 430 293 428 288 427 c 1
 288 308 l 1
 319 308 367 310 367 372 c 0
417 372 m 0
 417 320 360 296 360 296 c 1
 408 214 l 2
 421 192 433 183 448 183 c 1
 448 170 l 1
 438 167 430 166 425 166 c 0
 396 166 375 178 363 204 c 2
 315 283 l 1
 311 286 293 287 288 287 c 1
 288 192 l 2
 288 187 288 184 295 184 c 2
 307 184 l 2
 315 184 318 183 318 178 c 2
 318 167 l 1
 318 167 276 169 262 169 c 0
 207 167 l 1
 207 179 l 2
 207 183 210 184 217 184 c 2
 229 184 l 2
 235 184 237 185 237 192 c 2
 237 415 l 2
 237 421 236 426 233 426 c 2
 217 425 l 2
 210 426 207 428 207 431 c 2
 207 442 l 1
 228 445 249 447 322 447 c 0
 398 447 417 402 417 372 c 0
EndSplineSet
Refer: 2100 57600 S 1 0 0 1 0 0 3
Validated: 1
EndChar
StartChar: macron
Encoding: 175 175 328
Width: 397
VWidth: 999
Flags: W
HStem: 529 44<157.206 434.989>
VStem: 154 284<531.027 571.597>
LayerCount: 2
Fore
SplineSet
409 529 m 2
 164 529 l 2
 157 529 154 534 154 540 c 0
 154 541 154 542 155 544 c 0
 157 556 170 573 182 573 c 2
 426 573 l 2
 435 573 438 567 438 562 c 2
 438 559 l 1
 436 547 421 529 409 529 c 2
EndSplineSet
Validated: 1
EndChar
StartChar: degree
Encoding: 176 176 329
Width: 267
VWidth: 999
Flags: W
HStem: 493 28<188.285 267.669> 665 27<210.595 287.675>
VStem: 137 33<536.621 627.331> 306 33<558.708 649.845>
LayerCount: 2
Fore
SplineSet
305 592 m 0
 305 596 306 601 306 605 c 0
 306 634 290 665 251 665 c 0
 208 665 178 627 172 592 c 0
 171 587 170 583 170 578 c 0
 170 548 189 521 226 521 c 0
 267 521 298 557 305 592 c 0
139 593 m 0
 148 648 201 692 256 692 c 0
 305 692 339 657 339 610 c 0
 339 604 339 599 338 593 c 0
 328 538 276 493 221 493 c 0
 171 493 137 528 137 575 c 0
 137 581 138 587 139 593 c 0
EndSplineSet
Validated: 1
EndChar
StartChar: plusminus
Encoding: 177 177 330
Width: 527
VWidth: 999
Flags: W
HStem: 18 49<78 464> 292 49<126 291 349 513>
DStem2: 260 119 310 119 0.174069 0.984733<8.70345 175.755 234.103 402.139>
LayerCount: 2
Fore
SplineSet
349 341 m 1
 521 341 l 1
 513 292 l 1
 340 292 l 1
 310 119 l 1
 260 119 l 1
 291 292 l 1
 117 292 l 1
 126 341 l 1
 299 341 l 1
 330 515 l 1
 379 515 l 1
 349 341 l 1
473 67 m 1
 464 18 l 1
 69 18 l 1
 78 67 l 1
 473 67 l 1
EndSplineSet
Validated: 1
EndChar
StartChar: two.superior
Encoding: 178 178 331
Width: 307
VWidth: 487
Flags: W
HStem: 364 32<184 299.181> 443 20G<327.5 358> 664 24<230.917 309.012>
VStem: 322 59<561.359 658.36>
LayerCount: 2
Fore
SplineSet
188 587 m 0
 176 587 165 596 165 607 c 0
 165 608 165 610 166 611 c 0
 171 637 209 688 288 688 c 0
 333 688 381 672 381 623 c 0
 381 617 381 612 379 605 c 0
 371 559 331 526 267 486 c 0
 219 456 190 427 184 396 c 1
 265 396 l 2
 296 396 320 435 335 463 c 1
 358 458 l 1
 344 428 331 393 322 364 c 1
 116 364 l 1
 125 412 177 454 231 491 c 0
 284 527 310 550 320 604 c 0
 321 609 322 614 322 619 c 0
 322 654 295 664 279 664 c 0
 236 664 222 648 220 635 c 0
 218 626 221 619 219 611 c 0
 216 595 197 587 188 587 c 0
EndSplineSet
Validated: 33
EndChar
StartChar: three.superior
Encoding: 179 179 332
Width: 307
VWidth: 487
Flags: W
HStem: 358 25<171.404 255.869> 527 24<222 239.673> 664 24<234.257 305.378>
VStem: 164 51<601.192 649.097> 307 61<428.571 517.672 592.277 663.339>
LayerCount: 2
Fore
SplineSet
310 624 m 4
 310 628 311 631 311 635 c 0
 311 657 294 664 277 664 c 4
 257 664 221 654 215 629 c 4
 212 617 206 600 184 600 c 4
 165 600 164 615 164 618 c 4
 167 635 207 688 294 688 c 4
 341 688 368 670 368 640 c 0
 368 636 368 633 367 629 c 4
 361 600 335 577 303 561 c 5
 332 558 368 537 368 491 c 0
 368 486 367 479 366 473 c 4
 353 404 277 358 198 358 c 4
 162 358 115 373 115 393 c 0
 115 406 134 415 144 415 c 4
 157 415 162 408 167 401 c 4
 173 391 182 383 213 383 c 4
 232 383 292 396 306 465 c 4
 307 471 307 476 307 480 c 0
 307 523 262 529 240 529 c 4
 233 529 227 528 219 527 c 5
 222 551 l 5
 267 557 302 583 310 624 c 4
EndSplineSet
Validated: 1
EndChar
StartChar: acute
Encoding: 180 180 333
Width: 341
VWidth: 999
Flags: W
HStem: 542 163
VStem: 187 178
LayerCount: 2
Fore
SplineSet
299 703 m 5
 302 704 309 705 314 705 c 4
 342 705 353 694 359 687 c 4
 361 685 363 683 365 682 c 5
 365 671 l 5
 231 562 l 2
 213 547 206 542 199 542 c 0
 192 542 187 547 187 553 c 0
 187 558 189 567 197 577 c 2
 299 703 l 5
EndSplineSet
Validated: 1
EndChar
StartChar: uni00B5
Encoding: 181 181 334
Width: 485
VWidth: 999
Flags: W
HStem: -234 21G<39.5 57.8> -10 50<162.723 240.01> 419 20G<162 197 438 473>
VStem: 7 97<-217.396 -106.223> 341 78<7.45778 131.898>
DStem2: 3.41636 -234 78.5343 -234 0.21644 0.976296<319.314 677.651> 280.629 -234 350.633 -234 0.21644 0.976296<324.236 397.93 441.719 677.388>
LayerCount: 2
Fore
SplineSet
135 357 m 2
 144 395 143 439 181 439 c 3
 213 439 223 429 223 412 c 3
 223 400 214 370 210 352 c 2
 163 147 l 2
 151 95 147.472 40 206 40 c 3
 253 40 308 121 382 247 c 9
 411 357 l 2
 421 395 419 439 457 439 c 3
 489 439 499 429 499 412 c 3
 499 400 489.584 369.922 486 352 c 2
 430 124 l 2
 424 98 419 76 419 67 c 3
 419 55 422 50 429 50 c 3
 439 50 468 70 494 100 c 1
 508 100 514 92 517 83 c 1
 471 24 426 -10 378 -10 c 3
 348 -10 341 4 341 23 c 3
 341 42 349 83 358 115 c 2
 369 154 l 1
 366 156 l 1
 295 52 245.026 -10 167 -10 c 3
 149 -10 133 0 125 13 c 1
 119 13 112 9 111 4 c 0
 105 -21 104 -46 104 -71 c 0
 104 -92 105 -112 105 -131 c 0
 105 -216.88 69.6 -234 46 -234 c 0
 33 -234 7 -216 7 -183 c 0
 7 -145.713 46.3139 -73.8817 62 -8 c 0
 69 25 72 76 85 134 c 2
 135 357 l 2
EndSplineSet
Validated: 524321
EndChar
StartChar: paragraph
Encoding: 182 182 335
Width: 602
VWidth: 999
Flags: W
HStem: -238 21G<199 274> 260 387<269.038 382.034> 595 50<515.791 577.003> 614 33<654.5 726.219>
LayerCount: 2
Fore
SplineSet
440 275 m 2xa0
 372 -75 346 -162 202 -238 c 1
 196 -237 194 -233 194 -226 c 1
 297 -139 323 -60 388 275 c 1
 384 277 l 1
 342 260 304 260 272 260 c 3
 231.088867188 260 143.364257812 313.176757812 143.364257812 422 c 3
 143.364257812 571.096679688 241.96626664 647 380 647 c 3xc0
 455 647 493 645 575 645 c 3xa0
 634 645 682 646 722 647 c 1
 731 641 731 620 720 614 c 1x90
 664 611 635 606 619 523 c 2
 563 236 l 2
 505 -63 481 -132 366 -208 c 1
 358 -207 355 -204 354 -197 c 1
 421 -115 453 -61 507 217 c 2
 575 563 l 18
 581 592 578 595 568 595 c 3
 547 595 524 587 513 569 c 0
 494 538 476 463 443 294 c 2
 440 275 l 2xa0
EndSplineSet
Validated: 524321
EndChar
StartChar: periodcentered
Encoding: 183 183 336
Width: 250
VWidth: 999
Flags: W
HStem: 199 108<136.08 219.92>
VStem: 124 108<211.08 294.92>
LayerCount: 2
Fore
SplineSet
178 199 m 3
 150 199 124 225 124 253 c 3
 124 281 150 307 178 307 c 3
 206 307 232 281 232 253 c 3
 232 225 206 199 178 199 c 3
EndSplineSet
Validated: 1
EndChar
StartChar: cedilla
Encoding: 184 184 337
Width: 541
VWidth: 999
Flags: W
HStem: -181 25<181.812 285.484> -80 32<255.019 307.577>
VStem: 310 55<-141.671 -82.0497>
DStem2: 283 7 280 -51 0.561269 0.827634<-49.6866 0>
AnchorPoint: "unten_anhang" 306 -2 mark 0
LayerCount: 2
Fore
SplineSet
275 -80 m 0
 255 -80 246 -82 229 -86 c 1
 224 -80 l 1
 283 7 l 1
 317 7 l 1
 280 -51 l 1
 288 -49 297 -48 306 -48 c 0
 338 -48 365 -63 365 -95 c 0
 365 -146 307 -181 240 -181 c 0
 209 -181 192 -175 169 -164 c 1
 183 -146 l 1
 209 -155 216 -156 239 -156 c 0
 273 -156 310 -138 310 -106 c 0
 310 -90 295 -80 275 -80 c 0
EndSplineSet
Validated: 1
EndChar
StartChar: one.superior
Encoding: 185 185 338
Width: 307
VWidth: 944
Flags: W
HStem: 364 26<143.048 212.635 276.723 323> 668 20G<286.5 327>
VStem: 139 188
DStem2: 211.033 364 262.033 364 0.21644 0.976296<43.1973 259.022>
LayerCount: 2
Fore
SplineSet
248 621 m 0
 235 621 204 612 188 605 c 1
 184 632 l 1
 234 649 262 661 311 688 c 1
 327 688 l 1
 276 427 l 2
 271 405 280 390 294 390 c 2
 322 390 l 2
 325 390 328 389 327 385 c 2
 323 364 l 1
 323 364 271 365 237 365 c 24
 199 365 139 364 139 364 c 1
 143 385 l 2
 144 387 147 390 151 390 c 2
 187 390 l 2
 203 390 220 405 225 427 c 2
 254 579 l 2
 260 611 260 621 248 621 c 0
EndSplineSet
Validated: 33
EndChar
StartChar: ordmasculine
Encoding: 186 186 339
Width: 349
VWidth: 914
Flags: W
HStem: 303 28<206.302 291.424> 541 25<236.829 313.867>
VStem: 123 273
LayerCount: 2
Fore
SplineSet
276 541 m 0
 226 541 192 493 182 439 c 0
 172 390 187 331 247 331 c 0
 275 331 322 347 336 419 c 0
 351 499 326 541 276 541 c 0
123 429 m 0
 139 514 201 566 287 566 c 0
 385 566 409 502 396 435 c 0
 382 367 325 303 231 303 c 0
 157 303 108 357 123 429 c 0
EndSplineSet
Validated: 33
EndChar
StartChar: onequarter
Encoding: 188 188 341
Width: 660
VWidth: 999
Flags: W
HStem: -81 29<452.763 506.658 572.75 610.109> 18 34<435 525 585 627> 315 26<140.048 209.635 273.723 320> 619 20<283.5 324>
VStem: 136 188 388.847 252.153
DStem2: 98 -34 140 -42 0.677057 0.735931<22.5489 781.323> 208.033 315 259.033 315 0.21644 0.976296<43.1973 259.022> 504.058 -81 556.058 -81 0.207912 0.978148<50.114 101.191 146.922 279.497>
LayerCount: 2
Fore
SplineSet
627 541 m 5
 668 533 l 5
 140 -42 l 5
 98 -34 l 5
 627 541 l 5
EndSplineSet
Refer: 338 185 N 1 0 0 1 -3 -49 2
Refer: 1090 8324 N 1 0 0 1 348 30 2
Validated: 524289
LCarets2: 2 0 0
Ligature2: "'frac' Brueche 1" one slash four
EndChar
StartChar: onehalf
Encoding: 189 189 342
Width: 660
VWidth: 999
Flags: W
HStem: -79 32<462 577.181> 0 20<605.5 636> 221 24<508.917 587.012> 315 26<142.048 211.635 275.723 322> 619 20<285.5 326>
VStem: 138 188 600 59<118.359 215.36>
DStem2: 78 -34 120 -42 0.677057 0.735931<22.5489 781.323> 210.033 315 261.033 315 0.21644 0.976296<43.1973 259.022>
LayerCount: 2
Back
SplineSet
633.276 599.98 m 5
 671.006 599.98 l 5
 122.845 11.8232 l 5
 85.2158 12.2676 l 5
 633.276 599.98 l 5
EndSplineSet
Fore
SplineSet
607 541 m 1
 648 533 l 1
 120 -42 l 5
 78 -34 l 5
 607 541 l 1
EndSplineSet
Refer: 338 185 N 1 0 0 1 -1 -49 2
Refer: 331 178 N 1 0 0 1 278 -443 2
Validated: 1
LCarets2: 2 0 0
Ligature2: "'frac' Brueche 1" one slash two
EndChar
StartChar: threequarters
Encoding: 190 190 343
Width: 660
VWidth: 999
Flags: W
HStem: -79 29<426.763 480.658 546.75 584.109> 20 34<409 499 559 601> 307 25<169.404 253.869> 476 24<220 237.673> 613 24<232.257 303.378>
VStem: 162 51<550.192 598.097> 305 61<377.571 466.672 541.277 612.339> 362.847 252.153
DStem2: 98 -34 140 -42 0.677057 0.735931<22.5489 781.323> 478.058 -79 530.058 -79 0.207912 0.978148<50.114 101.191 146.922 279.497>
LayerCount: 2
Fore
SplineSet
627 541 m 1xfc
 668 533 l 1
 140 -42 l 1
 98 -34 l 1
 627 541 l 1xfc
EndSplineSet
Refer: 1090 8324 N 1 0 0 1 322 32 2
Refer: 332 179 N 1 0 0 1 -2 -51 2
Validated: 524289
LCarets2: 2 0 0
Ligature2: "'frac' Brueche 1" three slash four
EndChar
StartChar: questiondown
Encoding: 191 191 344
Width: 405
VWidth: 999
Flags: W
HStem: -226 32<145.665 245.953> 339 100<263.802 341.988>
VStem: 33 84<-171.796 -22.197> 253 100<350.718 427.844> 262 83<-161.727 -79.1152> 269 35<167.696 240.963>
LayerCount: 2
Fore
SplineSet
353 387 m 3xf0
 353 363 325 339 301 339 c 3
 274 339 253 367 253 391 c 3
 253 412 277 439 305 439 c 3
 329 439 353 413 353 387 c 3xf0
197 -194 m 3
 242 -194 262 -169 262 -145 c 0
 262 -140 261 -136 259 -132 c 0
 258 -130 258 -124 258 -120 c 0
 258 -90 282 -74 308 -74 c 3
 329 -74 345 -87 345 -106 c 3xe8
 345 -169 261 -226 185 -226 c 3
 86 -226 33 -171 33 -104 c 3
 33 -8 108 44 172 88 c 0
 238 133 257 150 269 235 c 1
 273 239 281 241 288 241 c 0
 295 241 301 239 304 234 c 1xe4
 300 156 279 117 204 57 c 0
 152 15 117 -25 117 -105 c 3
 117 -160 144 -194 197 -194 c 3
EndSplineSet
Validated: 1
Substitution2: "'case' Versalformen 1" questiondown.sc
Substitution2: "'c2sc' Versale nach Kapitaelchen 1" questiondown.sc
AlternateSubs2: "LinLibertine-'aalt' Alle Alternativen zeigen 1" questiondown.sc
EndChar
StartChar: Adieresis
Encoding: 196 196 349
Width: 667
VWidth: 999
Flags: W
HStem: -2 33<8.5625 69.0686 170.524 221.281 424.562 495.012 613.887 663.438> 241 42<293.688 480> 638 20<499 509.873> 658 96<321.332 400.668 558.332 637.668>
VStem: 313 96<666.332 745.668> 550 96<666.332 745.668>
DStem2: 135 122 189 122 0.521048 0.853527<-44.9237 180.859 228.755 527.976> 507 658 445 555 0.142197 -0.989838<93.1371 367.35 409.919 602.6>
LayerCount: 2
Fore
SplineSet
550 706 m 3xdc
 550 732 572 754 598 754 c 3
 624 754 646 732 646 706 c 3
 646 680 624 658 598 658 c 3
 572 658 550 680 550 706 c 3xdc
313 706 m 3
 313 732 335 754 361 754 c 3
 387 754 409 732 409 706 c 3
 409 680 387 658 361 658 c 3
 335 658 313 680 313 706 c 3
EndSplineSet
Refer: 25 65 N 1 0 0 1 0 0 3
Validated: 524289
Position2: "'cpsp' Versalabstaende 1" dx=2 dy=0 dh=5 dv=0
Substitution2: "'ss01' Stilgruppe 1 1" Adieresis.alt
Substitution2: "'c2sc' Versale nach Kapitaelchen 1" adieresis.sc
AlternateSubs2: "LinLibertine-'aalt' Alle Alternativen zeigen 1" adieresis.sc
EndChar
StartChar: AE
Encoding: 198 198 351
Width: 829
VWidth: 999
Flags: W
HStem: -2 29<6.04907 39 166 193 328.812 365> 0 39<505.183 721.371> 266 39<319 464> 329 34<562 688.859> 605 40<610.299 797.498> 618 28<410 439>
VStem: 693 31<250 322.517> 827 29<491 560.634>
DStem2: 115 85 155 68 0.570338 0.82141<-22.6983 250.195 297.059 626.355> 409.846 -2 489.846 -2 0.207912 0.978148<65.1864 273.403 313.006 353.946 388.659 609.815>
AnchorPoint: "unten_punkt" 549 -107 basechar 0
AnchorPoint: "unten_anhang" 549 4 basechar 0
AnchorPoint: "top_akzent" 553 805 basechar 0
LayerCount: 2
Fore
SplineSet
452 0 m 2x7b
 418 0 328 -2 328 -2 c 1xb3
 326 0 l 1x73
 330 18 l 2
 331 23 334 27 339 27 c 2
 365 29 l 2
 405 32 421 46 426 74 c 2
 464 266 l 1
 293 266 l 1
 155 68 l 2
 130 32 132 31 166 29 c 2
 193 27 l 2xb3
 197 27 198 23 198 21 c 2
 194 0 l 1x73
 193 -2 l 1xb3
 193 -2 128 0 90 0 c 0x73
 57 0 3 -2 3 -2 c 1xb3
 2 0 l 1x73
 6 19 l 2
 7 24 11 26 17 27 c 2
 39 29 l 2
 76 32 84 40 115 85 c 2
 459 577 l 2
 475 601 458 615 439 616 c 2
 410 618 l 2xb7
 404 618 403 621 404 625 c 2
 408 645 l 1x3b
 410 646 l 1x37
 578 645 l 0
 652 645 l 1
 865 645 l 1
 860 591 857 532 856 491 c 1
 827 486 l 1
 819 555 813 605 740 605 c 2
 644 605 l 2
 621 605 605 584 601 561 c 2
 562 363 l 1
 660 363 l 2
 694 363 705 379 717 407 c 2
 729 437 l 2
 731 441 734 445 738 445 c 2
 759 445 l 17
 761 445 762 443 762 441 c 1
 754 416 742 379 735 346 c 0
 729 312 726 267 724 250 c 1
 722 247 l 1
 700 247 l 2
 694 247 693 250 693 254 c 2
 694 285 l 2
 693 313 686 329 653 329 c 2
 555 329 l 1
 506 74 l 2
 501 47 513 39 534 39 c 2
 659 39 l 2
 732 39 773 100 806 172 c 1
 834 167 l 1
 813 115 791 56 777 0 c 1
 452 0 l 2x7b
319 305 m 1
 471 305 l 1
 524 575 l 2
 526 587 527 596 523 598 c 1
 319 305 l 1
EndSplineSet
Validated: 33
Position2: "'cpsp' Versalabstaende 1" dx=2 dy=0 dh=5 dv=0
Substitution2: "'c2sc' Versale nach Kapitaelchen 1" ae.sc
AlternateSubs2: "LinLibertine-'aalt' Alle Alternativen zeigen 1" ae.sc
EndChar
StartChar: Eth
Encoding: 208 208 361
Width: 671
VWidth: 999
Flags: W
HStem: -2 34<20.145 96.691 205.736 396.922> 303 39<71.9822 340.936> 613 32<137.562 202.044 315.992 476.342>
VStem: 603.448 94.0524<244.425 484.516>
DStem2: 98.643 -2 180.72 -2 0.207912 0.978148<69.4018 605.235>
LayerCount: 2
Fore
SplineSet
321 303 m 6
 82 303 l 6
 74 303 71 311 71 317 c 7
 71 327 81 342 90 342 c 6
 330 342 l 6
 339 342 342 334 342 329 c 7
 342 318 333 303 321 303 c 6
EndSplineSet
Refer: 28 68 N 1 0 0 1 0 0 3
Validated: 524293
Position2: "'cpsp' Versalabstaende 1" dx=2 dy=0 dh=5 dv=0
Substitution2: "'c2sc' Versale nach Kapitaelchen 1" eth.sc
AlternateSubs2: "LinLibertine-'aalt' Alle Alternativen zeigen 1" eth.sc
EndChar
StartChar: Odieresis
Encoding: 214 214 367
Width: 672
VWidth: 999
Flags: W
HStem: -10 36<287.995 433.368> 622 36<363.341 517.661> 658 96<217.332 296.668 626.332 705.668>
VStem: 87.6127 94.8982<131.96 373.125> 209 96<666.332 745.668> 616.85 94.1661<277.201 519.131> 618 96<666.332 745.668>
LayerCount: 2
Fore
SplineSet
618 706 m 7xba
 618 732 640 754 666 754 c 7
 692 754 714 732 714 706 c 7
 714 680 692 658 666 658 c 7
 640 658 618 680 618 706 c 7xba
209 706 m 7
 209 732 231 754 257 754 c 7
 283 754 305 732 305 706 c 7
 305 680 283 658 257 658 c 7
 231 658 209 680 209 706 c 7
EndSplineSet
Refer: 266 79 N 1 0 0 1 0 0 3
Validated: 524289
Position2: "'cpsp' Versalabstaende 1" dx=2 dy=0 dh=5 dv=0
Substitution2: "'ss01' Stilgruppe 1 1" Odieresis.alt
Substitution2: "'c2sc' Versale nach Kapitaelchen 1" odieresis.sc
AlternateSubs2: "LinLibertine-'aalt' Alle Alternativen zeigen 1" odieresis.sc
EndChar
StartChar: multiply
Encoding: 215 215 368
Width: 527
VWidth: 999
Flags: W
HStem: 73 315
DStem2: 125 108 154 73 0.762509 0.646977<0 188.201 242.64 431.488> 209 388 168 353 0.634739 -0.772726<1.0211 159.154 205.628 362.353>
LayerCount: 2
Fore
SplineSet
339 230 m 1
 439 108 l 1
 398 73 l 1
 298 195 l 1
 154 73 l 1
 125 108 l 1
 269 230 l 1
 168 353 l 1
 209 388 l 1
 310 265 l 1
 455 388 l 1
 483 353 l 1
 339 230 l 1
EndSplineSet
Validated: 1
EndChar
StartChar: Oslash
Encoding: 216 216 369
Width: 672
VWidth: 999
Flags: W
HStem: -10 36<287.995 433.368> 622 36<363.341 517.661>
VStem: 87.6127 94.8982<131.96 373.125> 616.85 94.1661<277.201 519.131>
LayerCount: 2
Fore
SplineSet
727 670 m 1
 752 645 l 1
 96 -43 l 1
 70 -18 l 1
 727 670 l 1
EndSplineSet
Refer: 266 79 N 1 0 0 1 0 0 3
Validated: 524293
Position2: "'cpsp' Versalabstaende 1" dx=2 dy=0 dh=5 dv=0
Substitution2: "'c2sc' Versale nach Kapitaelchen 1" oslash.sc
AlternateSubs2: "LinLibertine-'aalt' Alle Alternativen zeigen 1" oslash.sc
EndChar
StartChar: Udieresis
Encoding: 220 220 373
Width: 634
VWidth: 999
Flags: W
HStem: -10 41<262.349 423.89> 618 29<137 181.125 293.966 336.904 573.309 605.507> 660 94<353.394 432.606 497.394 576.606>
VStem: 346 94<667.394 746.606> 490 94<667.394 746.606>
DStem2: 76.4631 -10 152.147 -10 0.21644 0.976296<169.533 615.806> 495.374 -10 538.383 -10 0.21644 0.976296<135.134 617.002>
LayerCount: 2
Fore
SplineSet
490 707 m 3
 490 733 511 754 537 754 c 3
 563 754 584 733 584 707 c 3
 584 681 563 660 537 660 c 3
 511 660 490 681 490 707 c 3
346 707 m 3
 346 733 367 754 393 754 c 3
 419 754 440 733 440 707 c 3
 440 681 419 660 393 660 c 3
 367 660 346 681 346 707 c 3
305 -10 m 3
 220 -10 91 32 131 236 c 2
 195 563 l 2
 202 602 170 615 138 618 c 0
 133 618 130 622 131 627 c 2
 135 645 l 1
 137 647 l 1
 172 646 212 645 249 645 c 3
 288 645 305 646 329 647 c 1
 337 647 338 638 337 632 c 0
 335 622 330 620 322 618 c 0
 286 609 275 583 270 555 c 2
 214 269 l 2
 202 204 189 134 230 81 c 0
 252 52 288 31 334 31 c 3
 495 31 537 165 559 277 c 2
 610 540 l 2
 616 571 617 611 585 618 c 0
 575 620 571 624 573 631 c 0
 574 638 579 647 591 647 c 9
 615 646 630 645 652 645 c 3
 674 645 713 646 749 647 c 1
 750 645 l 1
 747 627 l 2
 745 620 737 619 721 618 c 0
 680 615 662 581 656 553 c 2
 606 295 l 2
 572 117 503 -10 305 -10 c 3
EndSplineSet
Validated: 33
Position2: "'cpsp' Versalabstaende 1" dx=2 dy=0 dh=5 dv=0
Substitution2: "'ss01' Stilgruppe 1 1" Udieresis.alt
Substitution2: "'c2sc' Versale nach Kapitaelchen 1" udieresis.sc
AlternateSubs2: "LinLibertine-'aalt' Alle Alternativen zeigen 1" udieresis.sc
EndChar
StartChar: Thorn
Encoding: 222 222 375
Width: 505
VWidth: 999
Flags: W
HStem: -2 33<11.7188 86.5 200.875 265.281> 150 33<212.287 350.017> 490 33<277.213 418.911> 614 33<128.031 194.125 308 382.125>
VStem: 455.978 88.238<291.114 460.294>
AnchorPoint: "top_akzent" 281 850 basechar 0
LayerCount: 2
Fore
SplineSet
199 122 m 2
 183 39 198 34 265 31 c 1
 270 25 268 4 261 -2 c 1
 225 -1 185.366 0 137 0 c 27
 88.2441 0 49 -1 12 -2 c 1
 7 4 9 25 16 31 c 1
 84 34 102 39 118 122 c 2
 196 523 l 2
 212 606 197 611 130 614 c 1
 125 620 125 641 132 647 c 1
 161 646 207.634 645 256 645 c 27
 304.756 645 345 646 381 647 c 1
 386 641 385 620 378 614 c 1
 310 611 293 606 277 523 c 2
 276 519 l 1
 311 521 346 523 364 523 c 3
 509.779 523 544.216 449.89 544.216 384.419 c 0
 544.216 276.54 461.912 150 278 150 c 3
 244 150 219 154 206 159 c 1
 199 122 l 2
269 479 m 1
 212 188 l 1
 220 185 243 183 279 183 c 3
 355.965 183 455.978 240.81 455.978 390.509 c 0
 455.978 470.421 404.538 490 356 490 c 3
 338 490 290 485 269 479 c 1
EndSplineSet
Validated: 524321
Position2: "'cpsp' Versalabstaende 1" dx=2 dy=0 dh=5 dv=0
Substitution2: "'c2sc' Versale nach Kapitaelchen 1" thorn.sc
AlternateSubs2: "LinLibertine-'aalt' Alle Alternativen zeigen 1" thorn.sc
EndChar
StartChar: germandbls
Encoding: 223 223 376
Width: 543
VWidth: 999
Flags: W
HStem: -238 33<-1.09655 53.3115> -10 33<305.094 382.784> 390 39<125.882 183.983> 666 32<373.283 474.57>
VStem: 255 49<24.5962 103.227> 451 92<125.417 293.271> 491 80<534.764 654.831>
DStem2: 59.4411 -238 126.915 -238 0.207912 0.978148<401.709 637.413>
LayerCount: 2
Back
SplineSet
186 390 m 5
 106 390 l 6
 103 390 100 390 100 392 c 7
 100 394 103 406 104 409 c 4
 106 417 112.997 425.065 132 426 c 6
 193 429 l 5
 211.037 515.63 242.314 593 277 634 c 4
 318.483 683.035 380.44 698 408 698 c 7
 479 698 523.4 663.79 523.4 623.51 c 7
 523.4 613.97 515.98 589.59 485.24 589.59 c 7
 451.32 589.59 442.84 617.15 438.6 639.41 c 4
 434.36 659.55 423 665 400 665 c 7
 383 665 342 647 317 585 c 4
 305 558 296 523 287 486 c 6
 276 429 l 5
 386 429 l 6
 391 429 393 427 393 424 c 7
 393 423 388 402 388 402 c 6
 386 394 371 390 362 390 c 6
 269 390 l 5
 266 373 l 6
 251.191 289.084 234.967 208.158 218.946 130 c 4
 180 -60 157.327 -135.792 130 -175 c 4
 107 -208 55.0488 -238 14 -238 c 7
 -54 -238 -78.3701 -214.305 -78.3701 -192.02 c 7
 -78.3701 -175.06 -68.8506 -155.98 -41.2695 -155.98 c 7
 -22.1904 -155.98 -3.11035 -171.88 5.37012 -183.54 c 4
 12.79 -195.2 17 -205 33 -205 c 7
 48.0333 -205 67.5186 -192.37 78.627 -175 c 4
 115.358 -117.562 132 46 148 141 c 4
 160.642 216.062 162 276 186 390 c 5
EndSplineSet
Fore
SplineSet
257 374 m 2xfa
 204.805 137.381 176 -79 104 -182 c 0
 75 -222 40 -238 2 -238 c 3
 -67 -238 -82.1904 -208.98 -82.1904 -189.9 c 3
 -82.1904 -175.06 -71.6123 -158.1 -47.21 -158.1 c 3
 -27.0703 -158.1 -12.9121 -168.516 -4.80957 -182.48 c 0
 2.71838 -195.454 9 -205 22 -205 c 3
 40.0645 -205 60.3076 -186.252 72.1562 -161 c 0
 100.467 -100.664 124.725 55.7153 140 141 c 0
 152 208 165.161 287 184 379 c 1
 184 390 182 390 172 390 c 2
 131 390 l 2
 126 390 123 391.901 123 397 c 3
 123 405 129 429 153 429 c 3
 184 429 198 450 206 477 c 0
 250 639 341 698 446 698 c 3
 537 698 571 650 571 606 c 3xfa
 571 524 489 459 415 411 c 9
 415 409 l 17
 472 364 543 307 543 216 c 3
 543 121 461 -10 340 -10 c 3
 274 -10 255 23 255 56 c 3
 255 105 278 123 297 123 c 3
 313 123 327 110.713 327 100 c 3
 327 90.1475 323.667 82 312.667 68 c 0
 306.833 60.5752 304 52.8252 304 45 c 3
 304 24.3306 328 23 348 23 c 3
 396 23 451 121 451 202 c 3xfc
 451 276 409 343 351 396 c 9
 354 409 l 1
 380 426 491 506 491 606 c 3
 491 643 472 666 430 666 c 3
 326 666 296 550 272 442 c 2
 257 374 l 2xfa
EndSplineSet
Validated: 524289
Substitution2: "'ss03' Stilgruppe 3 1" germandbls.ss03
Substitution2: "'smcp' Gemeine nach Kapitaelchen 1" germandbls.sc
AlternateSubs2: "LinLibertine-'aalt' Alle Alternativen zeigen 1" germandbls.sc germandbls.alt germandbls.scalt germandbls.ss03
EndChar
StartChar: ae
Encoding: 230 230 383
Width: 642
VWidth: 999
Flags: W
HStem: -10 49<421.857 533.664> -10 42<135.158 237.763> 218 35<243.23 323 403 549.846> 406 33<220.788 322.546 501.81 594.13>
VStem: 54.3076 69.5431<43.1301 145.08> 608.584 72.8066<292.377 396.198>
AnchorPoint: "unten_punkt" 327 -109 basechar 0
AnchorPoint: "ogonek" 607 30 basechar 0
AnchorPoint: "top_akzent" 332 644 basechar 0
LayerCount: 2
Fore
SplineSet
403 253 m 1x3c
 510.891 254.509 564.135 266.264 588.5 293.85 c 0
 600.15 307.039 608.584 326.098 608.584 349.204 c 3
 608.584 381.032 590.476 406 554 406 c 3
 491 406 429 338 403 253 c 1x3c
323 215 m 1
 257 209 207 193 174 170 c 0
 142.03 148.687 123.851 125.2 123.851 87.4694 c 3
 123.851 54.6614 144.241 32 188 32 c 3x7c
 218 32 275 73 297 113 c 1
 305 132 312 165 323 215 c 1
282 406 m 3
 246 406 207 392 201 363 c 0
 199 353 199 346 200 343 c 0
 201 339 200 332 199 325 c 0
 196 309 178 292 155 292 c 3
 126 292 124 317 128 337 c 0
 140 395 222 439 298 439 c 3
 336 439 386 431 400 359 c 1
 442 414 518 439 571 439 c 3
 655.68 439 681.391 388.701 681.391 353.303 c 3
 681.391 318.475 663.177 289.268 643 270.534 c 0
 606.385 236.539 535.92 219.966 395 218 c 1
 376 128 402 39 472 39 c 3
 522 39 570 64 605 99 c 1
 613 98 618 88 620 83 c 1
 582 29 509 -10 448 -10 c 3xbc
 363 -10 344 35 329 59 c 0
 323 68 317.577 65.4843 305 52 c 0
 256.5 0 202 -10 168 -10 c 3
 138.762 -10 108.518 -6.39551 90 7.5 c 0
 70.8828 21.8447 54.3076 47.4992 54.3076 70.2206 c 3
 54.3076 131.564 93.0173 179.588 139 205 c 0
 184 230 249 244 331 250 c 1
 352 353 339 406 282 406 c 3
EndSplineSet
Validated: 524321
Substitution2: "'smcp' Gemeine nach Kapitaelchen 1" ae.sc
AlternateSubs2: "LinLibertine-'aalt' Alle Alternativen zeigen 1" ae.sc ae.alt
EndChar
StartChar: eth
Encoding: 240 240 393
Width: 478
VWidth: 999
Flags: W
HStem: -12 39<196.11 306.895> 407 35<268.647 394.491>
VStem: 75 80<67.1924 254.193> 424 83<208.185 383.757>
DStem2: 220 537 234 505 0.865083 0.501628<0 139.789 198.978 328.975>
LayerCount: 2
Fore
SplineSet
246 27 m 0
 293 27 373 61 410 223 c 0
 419 263 424 304 424 343 c 0
 424 349 423 354 423 359 c 1
 407 388 375 407 333 407 c 0
 231 407 181 301 164 225 c 0
 158 201 155 178 155 157 c 0
 155 79 191 27 246 27 c 0
82 208 m 0
 122 381 260 442 342 442 c 0
 368 442 394 438 416 428 c 1
 406 481 387 532 360 578 c 1
 234 505 l 1
 220 537 l 1
 341 607 l 1
 329 624 l 2
 312 646 294 665 275 682 c 1
 295 703 l 1
 326 684 357 661 385 633 c 1
 508 704 l 1
 522 672 l 1
 410 606 l 1
 424 589 l 2
 473 524 507 442 507 343 c 0
 507 310 503 274 494 237 c 0
 455 68 333 -12 220 -12 c 0
 119 -12 75 64 75 149 c 0
 75 168 78 188 82 208 c 0
EndSplineSet
Validated: 1
Substitution2: "'smcp' Gemeine nach Kapitaelchen 1" eth.sc
AlternateSubs2: "LinLibertine-'aalt' Alle Alternativen zeigen 1" eth.sc
EndChar
StartChar: divide
Encoding: 247 247 38
Width: 527
VWidth: 999
Flags: W
HStem: 34 98<246.541 315.149> 219 49<128 512> 359 99<318.541 387.149>
VStem: 230 101<50.3086 115.691> 302 101<375.618 441.777>
LayerCount: 2
Fore
SplineSet
523 268 m 1xe0
 512 219 l 1
 116 219 l 1
 128 268 l 1
 523 268 l 1xe0
302 397 m 4xe8
 302 428 331 458 364 458 c 4
 387 458 403 441 403 419 c 4
 403 386 370 359 341 359 c 4
 317 359 302 375 302 397 c 4xe8
230 72 m 4xf0
 230 102 259 132 292 132 c 4
 315 132 331 116 331 94 c 4
 331 60 298 34 269 34 c 4
 246 34 230 50 230 72 c 4xf0
EndSplineSet
Validated: 1
EndChar
StartChar: oslash
Encoding: 248 248 395
Width: 447
VWidth: 999
Flags: W
HStem: -10 39<192.951 301.558> 406 33<250.713 346.937>
VStem: 78 83<62.2999 269.643> 382 83<164.619 373.534>
LayerCount: 2
Fore
SplineSet
470 477 m 5
 503 453 l 5
 96 -48 l 5
 63 -21 l 5
 470 477 l 5
EndSplineSet
Refer: 297 111 N 1 0 0 1 0 0 3
Validated: 524293
Substitution2: "'smcp' Gemeine nach Kapitaelchen 1" oslash.sc
AlternateSubs2: "LinLibertine-'aalt' Alle Alternativen zeigen 1" oslash.sc
EndChar
StartChar: thorn
Encoding: 254 254 398
Width: 484
Flags: W
HStem: -235 33<-27.125 35.3767 137.294 193.125> -10 35<208.94 310.623> 393 46<285.889 394.716> 648 28<171.239 214> 669 20G<285.333 303.624>
VStem: 232 85.4951<563.08 676.751> 422 82<180.219 364.13>
DStem2: 63.9951 -110.996 141.002 -110.998 0.226114 0.974101<-61.0073 155.175 186.794 420.317 446.433 520.347 546.204 754.494>
AnchorPoint: "top_akzent" 278 766 basechar 0
LayerCount: 2
Fore
SplineSet
422 273 m 3xe6
 422 322 412 393 344 393 c 3
 306 393 276 375 251 359 c 1
 184 67 l 1
 205 38 234 25 260 25 c 3
 298.03 25 337.599 55.21 364.186 96.5 c 0
 401.979 155.193 422 224.497 422 273 c 3xe6
298.285 573.248 m 2
 261 404 l 1
 288 420 325 439 376 439 c 3
 476 439 504 373 504 289 c 3
 504 216.993 477 149 423.02 83 c 0
 379.46 29.7422 321.216 -10 250 -10 c 3
 220.5 -10 188 7 173.006 23.001 c 1
 141.002 -110.998 l 2
 121.117 -191.733 134 -199 192 -202 c 1
 197 -208 196 -229 189 -235 c 1
 158 -234 107.75 -233 81 -233 c 3
 53.2324 -233 8 -234 -26 -235 c 1
 -31 -229 -30 -208 -23 -202 c 1
 36 -199 44.6729 -192.46 63.9951 -110.996 c 2
 160.999 297.979 l 1
 133 275.667 111 257 89 228 c 1
 71 228 61.9043 234.79 58 249 c 1
 86 284 123 314 173.001 349.995 c 1
 222.998 573.99 l 2
 226.675 590.462 232 615.89 232 625 c 3
 232 635.05 226.476 644.064 214 645 c 2
 174 648 l 1
 169.637 654.272 169.091 667.546 173 676 c 1xf6
 219 682 273.667 689 297 689 c 3xee
 310.248 689 317.495 681.507 317.495 667.854 c 3
 317.495 650.794 306.818 611.984 298.285 573.248 c 2
EndSplineSet
Validated: 524321
Substitution2: "'smcp' Gemeine nach Kapitaelchen 1" thorn.sc
AlternateSubs2: "LinLibertine-'aalt' Alle Alternativen zeigen 1" thorn.sc
EndChar
StartChar: Aogonek
Encoding: 260 260 404
Width: 695
VWidth: 999
Flags: W
HStem: -215 39<542.927 620.056> -1 29<4.6875 75.875 146.314 217 439.016 522.389 630.383 687> 244 39<285.005 487>
VStem: 472 63<-169.526 -83.2637>
DStem2: 109 81 153 72 0.516566 0.856247<-8.51983 228.103 271.704 570.497> 501 628 436 550 0.19716 -0.980371<63.6536 335.468 375.28 561.208>
LayerCount: 2
Fore
SplineSet
686 -1 m 1
 602 -1 535 -76 535 -129 c 0
 535 -156 552 -176 584 -176 c 0
 614 -176 637 -161 660 -141 c 1
 673 -148 l 1
 642 -195 587 -215 552 -215 c 0
 504 -215 472 -191 472 -147 c 0
 472 -93 523 -32 593 1 c 1
 585 1 578 1 572 1 c 0
 536 1 438 -1 438 -1 c 1
 437 1 l 1
 440 20 l 2
 441 25 444 28 449 28 c 2
 477 28 l 2
 507 28 529 38 529 61 c 0
 529 65 529 68 528 72 c 2
 495 244 l 1
 285 244 l 2
 260 244 252 238 245 227 c 2
 153 72 l 2
 149 65 145 56 145 49 c 0
 145 35 160 28 187 28 c 2
 216 28 l 2
 220 28 223 25 223 20 c 1
 219 1 l 1
 217 -1 l 1
 217 -1 119 1 94 1 c 0
 69 1 4 -1 4 -1 c 1
 2 1 l 1
 6 20 l 2
 7 25 10 28 15 28 c 2
 27 28 l 2
 68 28 89 47 109 81 c 2
 439 628 l 2
 454 653 464 662 473 662 c 0
 489 662 496 654 501 628 c 2
 610 86 l 2
 618 47 634 28 674 28 c 2
 685 28 l 2
 689 28 693 24 693 20 c 1
 690 1 l 1
 687 -1 l 1
 686 -1 l 1
309 283 m 2
 487 283 l 1
 436 550 l 1
 288 301 l 2
 286 297 285 295 285 292 c 0
 285 287 292 283 309 283 c 2
EndSplineSet
Validated: 1
Position2: "'cpsp' Versalabstaende 1" dx=2 dy=0 dh=5 dv=0
Substitution2: "'c2sc' Versale nach Kapitaelchen 1" aogonek.sc
EndChar
StartChar: aogonek
Encoding: 261 261 405
Width: 486
VWidth: 999
Flags: W
HStem: -206 39<338.966 416.178> -12 55<170.549 231.278> 411 31<287.594 391.255>
VStem: 78 80<51.4222 233.686> 269 61<-158.887 -73.7875>
LayerCount: 2
Fore
SplineSet
360 219 m 1
 385 283 398 392 398 392 c 1
 379 404 354 411 333 411 c 0
 241 411 158 247 158 141 c 0
 158 85 168 43 202 43 c 0
 234 43 311 129 360 219 c 1
333 88 m 2
 349 142 l 1
 347 144 l 1
 287 55 228 -12 175 -12 c 0
 91 -12 78 69 78 125 c 0
 78 282 223 442 330 442 c 0
 370 442 386 439 413 436 c 1
 433 431 458 431 483 431 c 1
 415 118 l 2
 410 99 403 66 403 57 c 0
 403 45 414 43 416 43 c 0
 418 43 421 44 423 45 c 2
 431 50 l 2
 443 58 458 75 477 98 c 1
 496 87 l 1
 472 55 458 37 435 17 c 4
 418 2 330 -73 330 -123 c 4
 330 -145 349 -167 382 -167 c 4
 412 -167 430 -153 456 -131 c 5
 470 -138 l 5
 433 -183 393 -206 352 -206 c 4
 304 -206 269 -182 269 -138 c 4
 269 -91 308 -45 349 -9 c 5
 330 -2 325 18 325 33 c 0
 325 52 327 68 333 88 c 2
EndSplineSet
Validated: 1
Substitution2: "'smcp' Gemeine nach Kapitaelchen 1" aogonek.sc
AlternateSubs2: "LinLibertine-'aalt' Alle Alternativen zeigen 1" aogonek.sc
EndChar
StartChar: dcroat
Encoding: 273 273 417
Width: 481
VWidth: 999
Flags: W
HStem: -10 60<170.771 241.771 370.503 439.019> 402.211 36.7895<272.399 403.681> 523 39<352.982 583.936> 648 28<392.239 435> 669 20<506.333 524.624>
VStem: 80 80<54.8642 248.18> 328 78<25.5 146.52> 452 86.495<564.397 676.752>
DStem2: 316.744 -10 388.368 -10 0.207912 0.978148<91.3673 137.362 154.94 410.242 448.826 648.878>
LayerCount: 2
Fore
SplineSet
564 523 m 6xe7
 363 523 l 6
 355 523 352 531 352 537 c 7
 352 547 362 562 371 562 c 6
 573 562 l 6
 582 562 585 554 585 549 c 7
 585 538 576 523 564 523 c 6xe7
EndSplineSet
Refer: 286 100 N 1 0 0 1 0 0 3
Validated: 524293
Substitution2: "'smcp' Gemeine nach Kapitaelchen 1" dcroat.sc
AlternateSubs2: "LinLibertine-'aalt' Alle Alternativen zeigen 1" dcroat.sc
EndChar
StartChar: Eogonek
Encoding: 280 280 45
Width: 533
VWidth: 999
Flags: W
HStem: -199 38<349.519 432.833> -1 17<421.684 448> 0 31<18.7188 93> 0 39<201.58 421.005> 323 38<252 402.269> 605 40<304.854 494.992> 614 33<137.511 200.125>
VStem: 280 62<-154.299 -62.1465> 406 32<251.77 314.081> 440 32<384.682 432.23> 522 33<498.16 570.91>
DStem2: 97.643 -2 179.894 -2 0.207912 0.978148<71.6333 348.535 387.16 604.895>
LayerCount: 2
Fore
SplineSet
478 -134 m 5xc9e0
 449 -179 409 -199 368 -199 c 7
 318 -199 280 -179 280 -125 c 7
 280 -69 345 16 448 16 c 5
 462 -1 l 5
 391 -1 342 -68 342 -114 c 7
 342 -140 355 -161 392 -161 c 7
 421 -161 437 -145 459 -123 c 5
 468 -123 474 -127 478 -134 c 5xc9e0
EndSplineSet
Refer: 29 69 N 1 0 0 1 0 0 3
Validated: 8912901
Position2: "'cpsp' Versalabstaende 1" dx=2 dy=0 dh=5 dv=0
Substitution2: "'c2sc' Versale nach Kapitaelchen 1" eogonek.sc
EndChar
StartChar: Hbar
Encoding: 294 294 59
Width: 700
VWidth: 999
Flags: W
HStem: -2 33<19.7188 94 208.875 272.438 429.562 504 618.875 682.438> 321 42<254 574> 503 39<142.982 753.936> 614 33<137.562 201.125 316 390.281 547.562 611.125 726 800.281>
DStem2: 98.643 -2 180.643 -2 0.207912 0.978148<69.4018 346.371 389.324 605.102> 508.643 -2 590.643 -2 0.207912 0.978148<69.4018 329.53 372.276 605.102>
LayerCount: 2
Fore
SplineSet
734 503 m 6
 153 503 l 2
 145 503 142 511 142 517 c 3
 142 527 152 542 161 542 c 2
 743 542 l 6
 752 542 755 534 755 529 c 7
 755 518 746 503 734 503 c 6
EndSplineSet
Refer: 259 72 N 1 0 0 1 0 0 3
Validated: 5
Position2: "'cpsp' Versalabstaende 1" dx=2 dy=0 dh=5 dv=0
EndChar
StartChar: hbar
Encoding: 295 295 60
Width: 483
VWidth: 999
Flags: W
HStem: -10 60<363 438.688> 379 60<346.646 463.667> 523 39<114.982 345.936> 648 28<161.239 204> 669 20<275.333 293.624>
VStem: 89.0486 77.5002<-4.29117 110.716> 222 85.495<563.558 676.752> 337 85<7.74219 134.469>
DStem2: 101.818 71.4551 166.549 17.2344 0.216014 0.97639<-60.0664 227.727 262.102 566.007> 354 115 433 124 0.231072 0.972937<-30.5675 233.041>
LayerCount: 2
Fore
SplineSet
326 523 m 6xe7
 125 523 l 6
 117 523 114 531 114 537 c 7
 114 547 124 562 133 562 c 6
 335 562 l 6
 344 562 347 554 347 549 c 7
 347 538 338 523 326 523 c 6xe7
EndSplineSet
Refer: 290 104 N 1 0 0 1 0 0 3
Validated: 524293
EndChar
StartChar: Iogonek
Encoding: 302 302 67
Width: 284
VWidth: 999
Flags: W
HStem: -225 39<153.181 237.134> -2 33<19.7188 94 208.875 272.438> -1 25<222.256 258.88> 614 33<137.562 201.125 316 390.281>
VStem: 79 60<-174.091 -75.5789>
DStem2: 98.643 -2 180.643 -2 0.207912 0.978148<69.4018 605.102>
LayerCount: 2
Fore
SplineSet
172 -225 m 0xb8
 119 -225 79 -194 79 -140 c 0
 79 -75 154 10 253 24 c 1
 274 -1 l 1
 194 -1 139 -76 139 -127 c 0
 139 -159 161 -186 197 -186 c 0
 227 -186 248 -171 267 -150 c 1
 282 -158 l 1
 258 -205 208 -225 172 -225 c 0xb8
EndSplineSet
Refer: 260 73 N 1 0 0 1 0 0 3
Validated: 5
Position2: "'cpsp' Versalabstaende 1" dx=2 dy=0 dh=5 dv=0
EndChar
StartChar: iogonek
Encoding: 303 303 68
Width: 261
VWidth: 999
Flags: HW
HStem: -206 39<134.644 211.127> -10 65<133 206.613> 395 28<118.549 162> 521 98<199.913 277.989>
VStem: 64 61<-158.887 -76.1822> 107 180 190 98<531.293 608.371>
DStem2: 96.2882 -10 170.293 -10 0.21644 0.976296<100.542 390.643>
LayerCount: 2
Fore
SplineSet
144 -9 m 4xf8
 167 14 217 32 217 32 c 29
 222 26 253 37 230 17 c 4
 213 2 125 -73 125 -123 c 4
 125 -145 144 -167 177 -167 c 4
 207 -167 225 -153 251 -131 c 5
 265 -138 l 5
 228 -183 188 -206 146 -206 c 4
 99 -206 64 -182 64 -138 c 4
 64 -91 103 -51 144 -9 c 4xf8
EndSplineSet
Refer: 291 105 N 1 0 0 1 0 0 3
Validated: 8912933
EndChar
StartChar: dotlessi
Encoding: 305 305 421
Width: 261
VWidth: 999
Flags: HMW
HStem: -10 65<133 206.613> 395 28<118.549 162>
VStem: 107 180
DStem2: 96.2882 -10 170.293 -10 0.21644 0.976296<100.542 390.643>
AnchorPoint: "unten_punkt" 139 -108 basechar 0
AnchorPoint: "top_akzent" 267 645 basechar 0
LayerCount: 2
Fore
SplineSet
116.005 121.99 m 6x8c
 161 321 l 6
 167.354 349.106 170 362.89 170 372 c 7
 170 382.05 164.156619018 391.088253574 152 392 c 6
 112 395 l 5
 106 404 104.347 415 111 423 c 5xaa
 153 429 205 436 237 436 c 7
 250.248 436 257.495 428.507 257.495 414.854 c 7x1a
 257.495 397.794 246.14 358.89 237.285 320.25 c 6
 204.916 178.992 l 6
 188.025 105.279 185.619 82.4033 185.619 63.7734 c 7
 185.619 45.4346 191.064 35.1953 207.006 34 c 6
 247.006 31 l 5
 253.006 22 253.659 11 248.006 3 c 5x5c
 201.006 -5 157.006 -10 125.006 -10 c 7
 106.584 -10 103.246 14.3164 103.246 30.8242 c 7
 103.246 49.6709 108.97 90.876 116.005 121.99 c 6x8c
EndSplineSet
Validated: 524321
AlternateSubs2: "LinLibertine-'aalt' Alle Alternativen zeigen 1" i.sc idotaccent.sc
EndChar
StartChar: ij
Encoding: 307 307 423
Width: 501
VWidth: 999
Flags: HMW
HStem: -196 36<247.802 303.872> -10 52<165.223 262.405> 395 28<117.549 161 373.549 417> 416 20G<228 250.624 484 506.624> 522 96<217.632 286.138 467.632 536.138>
VStem: 203.885 96<536.25 603.75> 453.885 96<536.25 603.75>
DStem2: 54.053 -196 128.367 -196 0.21644 0.976296<275.943 581.159> 312.53 -196 387.671 -196 0.21644 0.976296<224.408 580.623>
LayerCount: 2
Fore
SplineSet
123 115 m 2xde
 170 321 l 2
 176 349 179 362.89 179 372 c 3
 179 382.05 173 391 161 392 c 2
 121 395 l 1
 115 404 113.347 415 120 423 c 1xee
 167 429 212 436 244 436 c 3
 257.248 436 264.495 428.507 264.495 414.854 c 3
 264.495 397.794 253 359 244.285 320.25 c 2
 199.31 124 l 2
 184.61 59.8601 202 42 233 42 c 3
 283 42 346 146 414 260 c 9
 423 260 l 25
 400 167 l 25
 398 167 397 171 394 166 c 0
 323 62 271 -10 191 -10 c 3
 139.446 -10 102.009 22.9979 123 115 c 2xde
EndSplineSet
Refer: 675 775 N 1 0 0 1 308 -34 2
Refer: 292 106 N 1 0 0 1 242 0 2
Validated: 524325
Substitution2: "'smcp' Gemeine nach Kapitaelchen 1" ij.sc
AlternateSubs2: "LinLibertine-'aalt' Alle Alternativen zeigen 1" ij.sc
LCarets2: 1 255
EndChar
StartChar: kgreenlandic
Encoding: 312 312 428
Width: 467
VWidth: 999
Flags: MW
HStem: -10 21G<115.083 150.007 329.795 355.006> 3 28<410.006 453.331> 377 62<376.464 474.482> 395 28<106.549 150>
VStem: 317.246 70.373<30.8242 189.952>
DStem2: 102.822 72 176.857 72 0.218947 0.975737<-55.758 306.572>
AnchorPoint: "unten_punkt" 226 -108 basechar 0
AnchorPoint: "unten_anhang" 134 9 basechar 0
AnchorPoint: "top_akzent" 373 644 basechar 0
LayerCount: 2
Fore
SplineSet
219 264 m 1x88
 242.334 264.667 274.768 316.844 307.5 354 c 0
 363 417 399.962 439 452 439 c 3
 479 439 502 425 502 397 c 3
 502 371.995 472 349 458 349 c 3
 424 349 424.5 377 398.5 377 c 3
 373.995 377 365 366.5 329.5 326.5 c 0
 304.936 298.821 286.5 271 271 259 c 1
 289.664 258.327 l 1
 366.5 258.327 387.647 183.5 387.647 128.333 c 3
 387.647 96 387.619 82.4033 387.619 63.7734 c 3
 387.619 45.4346 394.064 35.1953 410.006 34 c 2
 450.006 31 l 1
 456.006 22 456.659 11 451.006 3 c 1x68
 404.006 -5 371.006 -10 339.006 -10 c 3
 320.584 -10 317.246 14.3164 317.246 30.8242 c 3
 317.246 49.6709 319.271 80.4629 319.271 112.667 c 3
 319.271 165.789 296.702 202.481 261.003 216 c 0
 250 220.167 223 220.997 209.998 220.997 c 9
 219 264 l 1x88
215 240.999 m 9
 176.857 72 l 2
 168.482 34.8936 169.013 -10 131 -10 c 3
 99.166 -10 90.1172 0.55957 90.1172 17.2344 c 3
 90.1172 27.04 98 52 102.822 72 c 2
 158.92 322 l 2
 165 350 168 362.89 168 372 c 3
 168 382.05 162 391 150 392 c 2
 110 395 l 1
 104 404 102.347 415 109 423 c 1x98
 156 429 203 436 235 436 c 3
 248.248 436 255.495 428.507 255.495 414.854 c 3
 255.495 397.794 242.214 358.951 233.285 320.25 c 2
 215 240.999 l 9
EndSplineSet
Validated: 524325
Substitution2: "'smcp' Gemeine nach Kapitaelchen 1" k.sc
EndChar
StartChar: ldot
Encoding: 320 320 436
Width: 319
VWidth: 999
Flags: W
HStem: -10 60<106.25 185.526> 313 96<279.998 358.141> 648 28<146.239 189> 669 20<260.333 278.624>
VStem: 83 79<24.5 154.718> 207 85.4951<566.579 676.751> 271 96<320.89 399.942>
DStem2: 69.5802 -10 144.88 -10 0.207912 0.978148<91.9705 649.265>
LayerCount: 2
Fore
SplineSet
271 360 m 4xca
 271 385 293 409 319 409 c 4
 343 409 367 387 367 360 c 4
 367 335 346 313 319 313 c 4
 290 313 271 336 271 360 c 4xca
EndSplineSet
Refer: 294 108 N 1 0 0 1 0 0 2
Validated: 524289
EndChar
StartChar: Lslash
Encoding: 321 321 437
Width: 506
VWidth: 999
Flags: W
HStem: 0 31<19.7188 94> 0 39<205.096 393.356> 614 33<137.562 201.125 316 390.281>
DStem2: 98.643 -2 180.406 -2 0.207912 0.978148<73.9415 605.102>
LayerCount: 2
Fore
SplineSet
393 449 m 5x20
 404 419 l 5
 74 244 l 5
 63 275 l 5
 393 449 l 5x20
EndSplineSet
Refer: 263 76 N 1 0 0 1 0 0 3
Validated: 5
Position2: "'cpsp' Versalabstaende 1" dx=2 dy=0 dh=5 dv=0
Substitution2: "'c2sc' Versale nach Kapitaelchen 1" lslash.sc
EndChar
StartChar: lslash
Encoding: 322 322 438
Width: 237
VWidth: 999
Flags: W
HStem: -10 60<106.25 185.526> 418 20G<274.741 317> 648 28<146.239 189> 669 20<260.333 278.624>
VStem: 59 261 83 79<24.5 154.718> 207 85.4951<566.579 676.751>
DStem2: 69.5802 -10 144.88 -10 0.207912 0.978148<91.9705 649.265>
LayerCount: 2
Fore
SplineSet
311 438 m 5xc8
 320 408 l 5
 68 270 l 5
 59 299 l 5
 311 438 l 5xc8
EndSplineSet
Refer: 294 108 N 1 0 0 1 0 0 3
Validated: 8912901
Substitution2: "'smcp' Gemeine nach Kapitaelchen 1" lslash.sc
AlternateSubs2: "LinLibertine-'aalt' Alle Alternativen zeigen 1" lslash.sc
EndChar
StartChar: Eng
Encoding: 330 330 446
Width: 666
VWidth: 999
Flags: W
HStem: -178 45<338.5 438.611> -2 29<12.8125 53 201 226> 618 28<146 182.018 571 603 750 785.95>
DStem2: 60.46 -178 103.46 -178 0.207912 0.978148<236.462 690.151> 277 646 274 455 0.480931 -0.876759<124.243 571.597> 494.33 -178 539.547 -178 0.207912 0.978148<332.18 790.338>
AnchorPoint: "unten_punkt" 364 -109 basechar 0
AnchorPoint: "unten_anhang" 124 -3 basechar 0
AnchorPoint: "top_akzent" 346 804 basechar 0
LayerCount: 2
Fore
SplineSet
598 97 m 2
 572 -31 531 -93 466 -139 c 0
 416 -177 373 -178 349 -178 c 0
 328 -178 291 -160 298 -124 c 0
 303 -102 328 -88 342 -88 c 0
 371 -88 380 -102 386 -115 c 0
 391 -125 396 -133 410 -133 c 0
 439 -133 473 -109 508 40 c 1
 274 455 l 2
 261 477 253 488 247 488 c 0
 240 488 235 473 228 439 c 2
 160 88 l 2
 154 58 164 32 201 29 c 2
 226 27 l 2
 230 27 233 24 232 19 c 2
 228 0 l 1
 226 -2 l 1
 226 -2 158 0 120 0 c 0
 86 0 12 -2 12 -2 c 1
 10 0 l 1
 14 18 l 2
 15 23 18 26 28 27 c 2
 53 29 l 2
 93 32 111 61 117 88 c 2
 207 550 l 1
 206 576 185 615 154 618 c 0
 147 619 139 621 140 626 c 2
 143 644 l 1
 146 646 l 1
 277 646 l 1
 520 203 l 2
 541 166 551 148 558 148 c 0
 564 148 566 159 570 178 c 2
 644 557 l 2
 649 584 643 613 603 616 c 2
 579 618 l 2
 574 618 566 621 567 626 c 2
 571 645 l 1
 575 646 l 1
 575 646 646 645 681 645 c 0
 718 645 788 646 788 646 c 1
 789 645 l 1
 786 626 l 2
 785 621 780 618 777 618 c 2
 750 616 l 2
 712 613 693 587 687 557 c 2
 598 97 l 2
EndSplineSet
Validated: 33
Position2: "'cpsp' Versalabstaende 1" dx=2 dy=0 dh=5 dv=0
Substitution2: "'c2sc' Versale nach Kapitaelchen 1" eng.sc
EndChar
StartChar: eng
Encoding: 331 331 447
Width: 518
VWidth: 999
Flags: W
HStem: -233 33<235.757 292.63> -10 21G<116.083 151.007> 380 59<344.297 439.969> 395 28<105.549 149>
VStem: 167 87.495<322.184 423.882> 414.622 78.889<122.573 370.811>
DStem2: 36.9922 -233 113.027 -233 0.207912 0.978148<256.065 535.804 572.241 618.388>
AnchorPoint: "unten_punkt" 265 -111 basechar 0
AnchorPoint: "unten_anhang" 128 9 basechar 0
AnchorPoint: "top_akzent" 264 646 basechar 0
LayerCount: 2
Fore
SplineSet
304.627 -170 m 4xec
 322.768 -141.632 353.316 -62.3076 375.789 26 c 4
 398.866 116.683 414.622 220.504 414.622 287.362 c 7
 414.622 357.761 394.317 380 370 380 c 7xec
 334 380 279 320 216 238 c 1
 177.857 72 l 2
 169 34 170.013 -10 132 -10 c 3
 100.166 -10 89.1172 0.55957 89.1172 17.2344 c 3
 89.1172 27.04 97 52 101.822 72 c 2
 158 321 l 2
 164 349 167 362.89 167 372 c 3
 167 382.05 161 391 149 392 c 2
 109 395 l 1
 103 404 101.347 415 108 423 c 1xdc
 155 429 202 436 234 436 c 3
 247.248 436 254.495 428.507 254.495 414.854 c 3
 254.495 397.794 242 359 232.285 320.25 c 10
 229.999 311 l 25
 230.996 309.995 l 1
 322.996 417.995 366 439 418 439 c 7
 461.938 439 493.511 397.262 493.511 303.671 c 7
 493.511 248.537 480.524 134.277 448.477 28 c 4
 422.883 -56.875 388.569 -124.861 356 -170 c 4
 331.812 -203.524 281.049 -233 240 -233 c 7
 172 -233 147.63 -209.305 147.63 -187.02 c 7
 147.63 -170.06 157.149 -150.98 184.73 -150.98 c 7
 203.81 -150.98 222.89 -166.88 231.37 -178.54 c 4
 238.79 -190.2 243 -200 259 -200 c 7
 274.033 -200 293.519 -187.37 304.627 -170 c 4xec
EndSplineSet
Validated: 524321
Substitution2: "'smcp' Gemeine nach Kapitaelchen 1" eng.sc
AlternateSubs2: "LinLibertine-'aalt' Alle Alternativen zeigen 1" eng.sc
EndChar
StartChar: OE
Encoding: 338 338 454
Width: 813
VWidth: 999
Flags: W
HStem: 0 39<473.99 712.241> 0 32<267.646 387.674> 332 34<532 661.859> 605 40<329.783 496.315 576.054 802.949>
VStem: 666 31<253 326.798> 829 27<506 566.291>
DStem2: 381.271 -2 459.271 -2 0.207912 0.978148<64.4688 356.584 391.297 616.1>
AnchorPoint: "top_akzent" 546 698 basechar 0
LayerCount: 2
Fore
SplineSet
323 -2 m 0x7c
 143 -1 66 138 101 318 c 0
 136 498 260 646 439 646 c 0
 439 646 505 645 548 645 c 16
 623 645 l 1
 869 645 l 1
 856 506 l 1
 829 503 l 1
 831 546 810 605 760 605 c 2
 613 605 l 2
 590 605 577 597 572 573 c 2
 532 366 l 1
 633 366 l 2
 667 366 678 382 690 410 c 2
 703 440 l 2
 704 444 707 448 711 448 c 2
 732 448 l 17
 734 448 735 446 734 444 c 1
 726 412 715 382 708 349 c 0
 701 314 701 285 697 253 c 1
 695 250 l 1
 673 250 l 2
 668 250 666 253 666 257 c 2
 667 288 l 2
 666 316 659 332 626 332 c 2
 525 332 l 1
 475 72 l 2
 470 45 482 39 503 39 c 2
 654 39 l 2xbc
 716 39 754 92 783 165 c 1
 808 160 l 1
 752 0 l 1
 422 0 l 10
 384 0 323 -2 323 -2 c 0x7c
328 32 m 2x7c
 340 32 l 2
 379 32 392 44 397 72 c 2
 495 574 l 2
 501 605 489 611 453 611 c 2
 419 611 l 2
 326 611 232 541 190 327 c 0
 150 120 229 32 328 32 c 2x7c
EndSplineSet
Validated: 33
Position2: "'cpsp' Versalabstaende 1" dx=2 dy=0 dh=5 dv=0
EndChar
StartChar: oe
Encoding: 339 339 455
Width: 705
VWidth: 999
Flags: W
HStem: -10 35<197.859 293.411> -10 60<485.668 587.711> 394 45<533.337 634.945> 404 35<243.145 348.817>
VStem: 78 84<74.2231 274.505> 377 81<159.681 379.747> 379 83<72.8566 200.7> 642 77<302.552 387.144>
AnchorPoint: "ogonek" 361 41 basechar 0
LayerCount: 2
Fore
SplineSet
78 163 m 3x9d
 78 283 154 439 321 439 c 3
 443 439 458 350 458 278 c 3
 458 120 352 -10 224 -10 c 3
 111 -10 78 110 78 163 c 3x9d
162 171 m 3
 162 43 209 25 239 25 c 3
 352 25 377 206 377 271 c 3
 377 332 374 404 303 404 c 3
 188 404 162 261 162 171 c 3
EndSplineSet
Refer: 287 101 N 1 0 0 1 296 0 2
Validated: 524293
Substitution2: "'smcp' Gemeine nach Kapitaelchen 1" oe.sc
AlternateSubs2: "LinLibertine-'aalt' Alle Alternativen zeigen 1" oe.sc
EndChar
StartChar: Tbar
Encoding: 358 358 474
Width: 572
VWidth: 999
Flags: W
HStem: -2 33<162.719 245.375 363 435.281> 329 39<174.186 539.627> 606 39<203.874 355.91 462.338 596.513> 633 20<662.5 679.5>
VStem: 632 34<505.785 567.416>
DStem2: 251.643 -2 333.643 -2 0.207912 0.978148<69.3087 598.863>
LayerCount: 2
Fore
SplineSet
516 329 m 6xc8
 180 329 l 6
 172 329 171 337 172 343 c 4
 174 353 187 368 196 368 c 6
 533 368 l 6
 542 368 543 360 542 355 c 4
 540 344 528 329 516 329 c 6xc8
EndSplineSet
Refer: 271 84 N 1 0 0 1 0 0 3
Validated: 8388645
Position2: "'cpsp' Versalabstaende 1" dx=2 dy=0 dh=5 dv=0
Substitution2: "'c2sc' Versale nach Kapitaelchen 1" tbar.sc
EndChar
StartChar: tbar
Encoding: 359 359 475
Width: 307
VWidth: 999
Flags: HW
HStem: -10 60<138.5 218.126> 245 39<76.1863 335.52> 390 39<108.202 180 263 364.943>
DStem2: 87.6231 -10 161.628 -10 0.21644 0.976296<92.8782 410.512 466.552 573.478>
LayerCount: 2
Fore
SplineSet
301 245 m 2
 82 245 l 2
 74 245 73 253 74 259 c 0
 76 269 89 284 98 284 c 2
 318 284 l 2
 327 284 329 276 328 271 c 0
 326 260 313 245 301 245 c 2
EndSplineSet
Refer: 302 116 N 1 0 0 1 0 0 3
Validated: 524325
Substitution2: "'smcp' Gemeine nach Kapitaelchen 1" tbar.sc
AlternateSubs2: "LinLibertine-'aalt' Alle Alternativen zeigen 1" tbar.sc
EndChar
